<svg xmlns="http://www.w3.org/2000/svg" width="203" height="203" fill="none" viewBox="0 0 203 203"><path fill="#007C97" d="M187.166 84.5089C187.166 84.5089 161.182 21.112 113.68 8.88732C66.178 -3.33734 46.2556 34.0593 38.976 60.0433C31.6964 86.0273 4.87198 120.355 7.30798 143.959C9.62218 166.395 29.2848 177.004 47.6481 181.559C70.9891 187.345 97.513 187.783 120.939 182.96C126.509 181.782 132.009 180.291 137.411 178.494C148.417 174.905 159.221 172.124 170.37 169.156C191.579 163.5 199.983 140.736 197.592 118.917C196.244 106.652 191.75 95.6739 187.166 84.5089Z"/><path fill="#fff" d="M187.166 84.5089C187.166 84.5089 161.182 21.112 113.68 8.88732C66.178 -3.33734 46.2556 34.0593 38.976 60.0433C31.6964 86.0273 4.87198 120.355 7.30798 143.959C9.62218 166.395 29.2848 177.004 47.6481 181.559C70.9891 187.345 97.513 187.783 120.939 182.96C126.509 181.782 132.009 180.291 137.411 178.494C148.417 174.905 159.221 172.124 170.37 169.156C191.579 163.5 199.983 140.736 197.592 118.917C196.244 106.652 191.75 95.6739 187.166 84.5089Z" opacity=".7"/><path stroke="#263238" stroke-linecap="round" stroke-linejoin="round" d="M172.855 15.1072H97.5415V119.384H172.855V15.1072Z"/><path stroke="#263238" stroke-linecap="round" stroke-linejoin="round" d="M135.198 15.1682V119.75"/><path stroke="#263238" stroke-linecap="round" stroke-linejoin="round" d="M172.92 67.4609H97.4807"/><path stroke="#263238" stroke-linecap="round" stroke-linejoin="round" d="M172.92 41.2739H97.4807"/><path stroke="#263238" stroke-linecap="round" stroke-linejoin="round" d="M172.92 93.6479H97.4807"/><path stroke="#263238" stroke-linecap="round" stroke-linejoin="round" d="M159.193 53.3605L151.852 60.4168"/><path stroke="#263238" stroke-linecap="round" stroke-linejoin="round" d="M170.11 42.8614L161.34 51.294"/><path stroke="#263238" stroke-linecap="round" stroke-linejoin="round" d="M151.32 57.0552L148.99 59.2963"/><path stroke="#263238" stroke-linecap="round" stroke-linejoin="round" d="M161.332 47.4249L152.924 55.5083"/><path stroke="#263238" stroke-linecap="round" stroke-linejoin="round" d="M118.463 29.4837L111.122 36.54"/><path stroke="#263238" stroke-linecap="round" stroke-linejoin="round" d="M129.38 18.9846L120.61 27.4212"/><path stroke="#263238" stroke-linecap="round" stroke-linejoin="round" d="M110.59 33.1783L108.26 35.4194"/><path stroke="#263238" stroke-linecap="round" stroke-linejoin="round" d="M120.602 23.5521L112.194 31.6315"/><path stroke="#263238" stroke-linecap="round" stroke-linejoin="round" d="M157.435 81.0985L150.098 88.1548"/><path stroke="#263238" stroke-linecap="round" stroke-linejoin="round" d="M168.356 70.5993L159.582 79.036"/><path stroke="#263238" stroke-linecap="round" stroke-linejoin="round" d="M149.562 84.7931L147.232 87.0342"/><path stroke="#263238" stroke-linecap="round" stroke-linejoin="round" d="M159.578 75.1668L151.17 83.2462"/><path fill="#007C97" stroke="#263238" stroke-linecap="round" stroke-linejoin="round" d="M160.748 109.559L160.431 106.847C160.431 106.847 158.99 106.928 158.433 105.674C158.096 104.914 157.755 103.376 158.251 102.616C158.395 102.379 158.605 102.189 158.856 102.07C159.107 101.95 159.387 101.906 159.662 101.943C159.937 101.98 160.196 102.097 160.406 102.278C160.616 102.46 160.768 102.699 160.845 102.966C161.231 104.066 161.422 104.537 161.422 104.537C161.328 102.941 160.126 96.5143 163.744 97.4928C165.214 97.8988 165.616 99.3117 165.68 100.432C165.745 101.553 165.595 104.456 165.595 104.456C165.595 104.456 166.566 104.561 166.631 102.949C166.695 101.338 168.255 100.607 168.949 101.37C169.643 102.133 169.956 104.845 169.201 105.694C168.445 106.543 166.054 106.839 166.054 106.839L166.212 109.563L160.748 109.559Z"/><path stroke="#263238" stroke-linecap="round" stroke-linejoin="round" stroke-width=".5" d="M162.826 97.9394C162.826 97.9394 162.23 98.4834 162.392 100.335C162.554 102.186 162.554 105.499 162.554 105.499"/><path stroke="#263238" stroke-linecap="round" stroke-linejoin="round" stroke-width=".5" d="M164.406 99.1898C164.406 99.1898 165.112 99.0843 164.893 100.769C164.775 102.18 164.775 103.597 164.893 105.008"/><path stroke="#263238" stroke-linecap="round" stroke-linejoin="round" stroke-width=".5" d="M159.29 102.779C159.29 102.779 158.584 102.941 158.912 104.086C159.241 105.231 159.347 106.096 160.106 106.262C160.446 106.347 160.792 106.401 161.141 106.425L161.251 107.618"/><path stroke="#263238" stroke-linecap="round" stroke-linejoin="round" stroke-width=".5" d="M166.143 106.206C166.143 106.206 168.372 106.262 168.807 105.337C169.241 104.411 168.973 102.836 168.973 102.836"/><path stroke="#263238" stroke-linecap="round" stroke-linejoin="round" stroke-width=".5" d="M160.216 103.079C160.216 103.117 160.205 103.154 160.184 103.185C160.163 103.217 160.133 103.241 160.098 103.256C160.063 103.27 160.025 103.274 159.988 103.266C159.951 103.259 159.917 103.241 159.89 103.214C159.863 103.188 159.845 103.154 159.838 103.117C159.83 103.08 159.834 103.041 159.849 103.006C159.863 102.971 159.888 102.942 159.919 102.921C159.95 102.9 159.987 102.888 160.025 102.888C160.05 102.888 160.075 102.893 160.098 102.903C160.121 102.913 160.142 102.927 160.16 102.944C160.178 102.962 160.192 102.983 160.201 103.006C160.211 103.029 160.216 103.054 160.216 103.079Z"/><path stroke="#263238" stroke-linecap="round" stroke-linejoin="round" stroke-width=".5" d="M160.679 105.471C160.784 105.471 160.869 105.385 160.869 105.28C160.869 105.174 160.784 105.089 160.679 105.089C160.573 105.089 160.488 105.174 160.488 105.28C160.488 105.385 160.573 105.471 160.679 105.471Z"/><path stroke="#263238" stroke-linecap="round" stroke-linejoin="round" stroke-width=".5" d="M159.729 104.573C159.834 104.573 159.919 104.488 159.919 104.383C159.919 104.277 159.834 104.192 159.729 104.192C159.623 104.192 159.538 104.277 159.538 104.383C159.538 104.488 159.623 104.573 159.729 104.573Z"/><path stroke="#263238" stroke-linecap="round" stroke-linejoin="round" stroke-width=".5" d="M163.59 102.32C163.695 102.32 163.78 102.235 163.78 102.129C163.78 102.024 163.695 101.938 163.59 101.938C163.484 101.938 163.399 102.024 163.399 102.129C163.399 102.235 163.484 102.32 163.59 102.32Z"/><path stroke="#263238" stroke-linecap="round" stroke-linejoin="round" stroke-width=".5" d="M161.795 100.469C161.9 100.469 161.986 100.383 161.986 100.278C161.986 100.173 161.9 100.087 161.795 100.087C161.69 100.087 161.604 100.173 161.604 100.278C161.604 100.383 161.69 100.469 161.795 100.469Z"/><path stroke="#263238" stroke-linecap="round" stroke-linejoin="round" stroke-width=".5" d="M164.406 106.912C164.406 106.95 164.394 106.987 164.374 107.018C164.353 107.049 164.323 107.074 164.288 107.088C164.253 107.103 164.215 107.106 164.178 107.099C164.141 107.092 164.107 107.074 164.08 107.047C164.053 107.02 164.035 106.986 164.028 106.949C164.02 106.912 164.024 106.874 164.039 106.839C164.053 106.804 164.077 106.774 164.109 106.753C164.14 106.732 164.177 106.721 164.215 106.721C164.265 106.721 164.314 106.741 164.35 106.777C164.386 106.813 164.406 106.861 164.406 106.912Z"/><path stroke="#263238" stroke-linecap="round" stroke-linejoin="round" stroke-width=".5" d="M162.339 106.64C162.339 106.678 162.328 106.715 162.307 106.746C162.286 106.777 162.256 106.802 162.221 106.816C162.187 106.831 162.148 106.834 162.111 106.827C162.074 106.82 162.04 106.802 162.013 106.775C161.987 106.748 161.969 106.714 161.961 106.677C161.954 106.64 161.958 106.602 161.972 106.567C161.986 106.532 162.011 106.502 162.042 106.481C162.074 106.46 162.111 106.449 162.148 106.449C162.199 106.449 162.247 106.469 162.283 106.505C162.319 106.541 162.339 106.589 162.339 106.64Z"/><path stroke="#263238" stroke-linecap="round" stroke-linejoin="round" stroke-width=".5" d="M163.914 98.7311C164.02 98.7311 164.105 98.6456 164.105 98.5402C164.105 98.4349 164.02 98.3494 163.914 98.3494C163.809 98.3494 163.724 98.4349 163.724 98.5402C163.724 98.6456 163.809 98.7311 163.914 98.7311Z"/><path stroke="#263238" stroke-linecap="round" stroke-linejoin="round" stroke-width=".5" d="M167.966 102.154C167.966 102.191 167.955 102.228 167.934 102.26C167.913 102.291 167.883 102.316 167.848 102.33C167.814 102.344 167.775 102.348 167.738 102.341C167.701 102.333 167.667 102.315 167.64 102.289C167.614 102.262 167.596 102.228 167.588 102.191C167.581 102.154 167.585 102.115 167.599 102.081C167.614 102.046 167.638 102.016 167.669 101.995C167.701 101.974 167.738 101.963 167.775 101.963C167.826 101.963 167.875 101.983 167.91 102.019C167.946 102.055 167.966 102.103 167.966 102.154Z"/><path stroke="#263238" stroke-linecap="round" stroke-linejoin="round" stroke-width=".5" d="M167.284 104.931C167.39 104.931 167.475 104.845 167.475 104.74C167.475 104.635 167.39 104.549 167.284 104.549C167.179 104.549 167.093 104.635 167.093 104.74C167.093 104.845 167.179 104.931 167.284 104.931Z"/><path stroke="#263238" stroke-linecap="round" stroke-linejoin="round" stroke-width=".5" d="M163.914 104.874C164.02 104.874 164.105 104.788 164.105 104.683C164.105 104.578 164.02 104.492 163.914 104.492C163.809 104.492 163.724 104.578 163.724 104.683C163.724 104.788 163.809 104.874 163.914 104.874Z"/><path fill="#fff" stroke="#263238" stroke-linecap="round" stroke-linejoin="round" d="M168.246 107.801H158.462L159.44 115.824H167.268L168.246 107.801Z"/><path stroke="#263238" stroke-miterlimit="10" stroke-width="2" d="M22.5939 93.0106L30.0846 164.763"/><path stroke="#263238" stroke-miterlimit="10" stroke-width="2" d="M28.8747 151.032L25.4805 147.447"/><path fill="#007C97" stroke="#263238" stroke-miterlimit="10" d="M26.5118 148.519C26.5066 147.971 26.3843 147.431 26.1533 146.935C25.9222 146.438 25.5876 145.997 25.172 145.64C24.3032 144.861 19.7154 142.932 19.2809 144.548C18.7937 146.306 23.4912 149.757 26.5118 148.519Z"/><path stroke="#263238" stroke-miterlimit="10" stroke-width=".5" d="M26.5118 148.519L22.1473 145.799"/><path stroke="#263238" stroke-miterlimit="10" stroke-width="2" d="M29.7273 159.193L26.3331 155.608"/><path fill="#007C97" stroke="#263238" stroke-miterlimit="10" d="M27.3644 156.679C27.3576 156.131 27.2335 155.59 27.0003 155.094C26.7671 154.597 26.4302 154.156 26.0124 153.801C25.1435 153.021 20.5557 151.093 20.1213 152.709C19.6463 154.467 24.36 157.934 27.3644 156.679Z"/><path stroke="#263238" stroke-miterlimit="10" stroke-width=".5" d="M27.3644 156.679L22.9999 153.959"/><path stroke="#263238" stroke-miterlimit="10" stroke-width="2" d="M26.796 131.118L23.4018 127.533"/><path fill="#007C97" stroke="#263238" stroke-miterlimit="10" d="M24.433 128.609C24.4266 128.06 24.303 127.519 24.0706 127.022C23.8381 126.525 23.5021 126.083 23.0851 125.726C22.2122 124.951 17.6244 123.018 17.19 124.642C16.719 126.392 21.4124 129.843 24.433 128.609Z"/><path stroke="#263238" stroke-miterlimit="10" stroke-width=".5" d="M24.433 128.609L20.0685 125.888"/><path stroke="#263238" stroke-miterlimit="10" stroke-width="2" d="M27.6486 139.278L24.2544 135.693"/><path fill="#007C97" stroke="#263238" stroke-miterlimit="10" d="M25.2856 136.769C25.279 136.22 25.1549 135.679 24.9217 135.182C24.6885 134.684 24.3516 134.243 23.9337 133.887C23.0648 133.111 18.477 131.183 18.0426 132.794C17.5676 134.552 22.2609 138.003 25.2856 136.769Z"/><path stroke="#263238" stroke-miterlimit="10" stroke-width=".5" d="M25.2856 136.769L20.9211 134.049"/><path stroke="#263238" stroke-miterlimit="10" stroke-width="2" d="M25.4156 117.862L22.0214 114.277"/><path fill="#007C97" stroke="#263238" stroke-miterlimit="10" d="M23.0526 115.353C23.0449 114.804 22.9204 114.263 22.6872 113.766C22.4541 113.269 22.1178 112.827 21.7007 112.47C20.8278 111.695 16.244 109.762 15.8055 111.378C15.3346 113.136 20.0279 116.587 23.0526 115.353Z"/><path stroke="#263238" stroke-miterlimit="10" stroke-width=".5" d="M23.0526 115.353L18.6841 112.633"/><path stroke="#263238" stroke-miterlimit="10" stroke-width="2" d="M24.023 104.549L20.6288 100.964"/><path fill="#007C97" stroke="#263238" stroke-miterlimit="10" d="M21.6601 102.036C21.6521 101.487 21.5266 100.946 21.292 100.449C21.0574 99.9527 20.7191 99.5122 20.3 99.1573C19.4271 98.3778 14.8393 96.4493 14.4049 98.0652C13.9461 99.8232 18.6394 103.27 21.6601 102.036Z"/><path stroke="#263238" stroke-miterlimit="10" stroke-width=".5" d="M21.6601 102.036L17.2956 99.3157"/><path stroke="#263238" stroke-miterlimit="10" stroke-width="2" d="M28.3063 146.205L30.8885 141.994"/><path fill="#007C97" stroke="#263238" stroke-miterlimit="10" d="M30.1008 143.257C29.9942 142.719 30.0038 142.165 30.1292 141.632C30.2545 141.098 30.4927 140.597 30.8275 140.163C31.5177 139.221 35.6062 136.388 36.3654 137.878C37.1936 139.498 33.3123 143.842 30.1008 143.257Z"/><path stroke="#263238" stroke-miterlimit="10" stroke-width=".5" d="M30.1008 143.257L34.0309 139.502"/><path stroke="#263238" stroke-miterlimit="10" stroke-width="2" d="M26.0652 124.727L28.6473 120.521"/><path fill="#007C97" stroke="#263238" stroke-miterlimit="10" d="M27.8597 121.8C27.753 121.262 27.7626 120.707 27.888 120.173C28.0133 119.638 28.2515 119.137 28.5865 118.702C29.2767 117.76 33.3651 114.926 34.1243 116.416C34.9525 118.024 31.0712 122.368 27.8597 121.8Z"/><path stroke="#263238" stroke-miterlimit="10" stroke-width=".5" d="M27.8597 121.784L31.7898 118.024"/><path stroke="#263238" stroke-miterlimit="10" stroke-width="2" d="M25.0786 115.292L27.6608 111.082"/><path fill="#007C97" stroke="#263238" stroke-miterlimit="10" d="M26.8731 112.348C26.7676 111.809 26.7785 111.254 26.9053 110.72C27.032 110.186 27.2716 109.685 27.608 109.251C28.3023 108.309 32.3907 105.475 33.1499 106.965C33.966 108.585 30.0846 112.929 26.8731 112.348Z"/><path stroke="#263238" stroke-miterlimit="10" stroke-width=".5" d="M26.8731 112.348L30.8032 108.589"/><path stroke="#263238" stroke-miterlimit="10" stroke-width="2" d="M23.6373 101.455L26.2154 97.2492"/><path fill="#007C97" stroke="#263238" stroke-miterlimit="10" d="M25.4278 98.5118C25.3214 97.9732 25.3315 97.4181 25.4576 96.8838C25.5836 96.3494 25.8227 95.8483 26.1586 95.414C26.8488 94.4721 30.9372 91.6382 31.6964 93.1283C32.5206 94.7523 28.6433 99.0965 25.4278 98.5118Z"/><path stroke="#263238" stroke-miterlimit="10" stroke-width=".5" d="M25.4277 98.5118L29.3619 94.7523"/><path fill="#007C97" stroke="#263238" stroke-miterlimit="10" d="M22.533 92.6126C22.4263 92.0743 22.4359 91.5194 22.5613 90.9851C22.6866 90.4509 22.9248 89.9496 23.2597 89.5149C23.9499 88.5729 28.0384 85.7391 28.7976 87.2291C29.638 88.849 25.7445 93.1932 22.533 92.6126Z"/><path stroke="#263238" stroke-miterlimit="10" stroke-width=".5" d="M22.533 92.6126L26.463 88.8531"/><path fill="#007C97" stroke="#263238" stroke-miterlimit="10" d="M22.7603 92.7751C22.2136 92.8234 21.6628 92.7546 21.1447 92.5733C20.6266 92.392 20.1532 92.1023 19.7559 91.7235C18.8911 90.94 16.5079 86.5754 18.0629 85.9746C19.764 85.325 23.6779 89.6407 22.7603 92.7751Z"/><path stroke="#263238" stroke-miterlimit="10" stroke-width=".5" d="M22.7603 92.775L19.4352 88.4714"/><path stroke="#263238" stroke-miterlimit="10" stroke-width="2" d="M42.3458 102.893L34.8997 174.649"/><path stroke="#263238" stroke-miterlimit="10" stroke-width="2" d="M36.5441 160.963L33.9619 156.757"/><path fill="#007C97" stroke="#263238" stroke-miterlimit="10" d="M34.7495 158.019C34.856 157.481 34.8458 156.926 34.7197 156.391C34.5937 155.857 34.3547 155.356 34.0187 154.921C33.3285 153.984 29.2361 151.15 28.4809 152.64C27.6527 154.28 31.5381 158.604 34.7495 158.019Z"/><path stroke="#263238" stroke-miterlimit="10" stroke-width=".5" d="M34.7495 158.019L31.0387 154.459"/><path stroke="#263238" stroke-miterlimit="10" stroke-width="2" d="M38.6106 141.048L36.0284 136.842"/><path fill="#007C97" stroke="#263238" stroke-miterlimit="10" d="M36.8161 138.105C36.9225 137.566 36.9123 137.011 36.7863 136.477C36.6602 135.943 36.4212 135.441 36.0853 135.007C35.3951 134.069 31.3026 131.235 30.5474 132.725C29.7192 134.349 33.6046 138.69 36.8161 138.105Z"/><path stroke="#263238" stroke-miterlimit="10" stroke-width=".5" d="M36.8161 138.105L33.1052 134.544"/><path stroke="#263238" stroke-miterlimit="10" stroke-width="2" d="M37.7661 149.209L35.1799 145.003"/><path fill="#007C97" stroke="#263238" stroke-miterlimit="10" d="M35.9675 146.266C36.0742 145.728 36.0645 145.174 35.9392 144.64C35.8138 144.106 35.5757 143.606 35.2408 143.172C34.5466 142.23 30.4581 139.396 29.6989 140.886C28.8747 142.506 32.7561 146.85 35.9675 146.266Z"/><path stroke="#263238" stroke-miterlimit="10" stroke-width=".5" d="M35.9676 146.266L32.2567 142.705"/><path stroke="#263238" stroke-miterlimit="10" stroke-width="2" d="M39.9869 127.793L37.4048 123.586"/><path fill="#007C97" stroke="#263238" stroke-miterlimit="10" d="M38.1924 124.849C38.2991 124.31 38.2891 123.755 38.163 123.221C38.0369 122.687 37.7977 122.185 37.4616 121.751C36.7714 120.809 32.6789 117.98 31.9197 119.47C31.0955 121.09 34.9809 125.454 38.1924 124.849Z"/><path stroke="#263238" stroke-miterlimit="10" stroke-width=".5" d="M38.1924 124.849L34.4816 121.288"/><path stroke="#263238" stroke-miterlimit="10" stroke-width="2" d="M41.3673 114.476L38.7852 110.27"/><path fill="#007C97" stroke="#263238" stroke-miterlimit="10" d="M39.5728 111.532C39.6795 110.995 39.6698 110.44 39.5444 109.907C39.4191 109.373 39.181 108.872 38.8461 108.439C38.1518 107.497 34.0594 104.663 33.3042 106.157C32.48 107.777 36.3614 112.121 39.5728 111.532Z"/><path stroke="#263238" stroke-miterlimit="10" stroke-width=".5" d="M39.5728 111.532L35.8619 107.972"/><path stroke="#263238" stroke-miterlimit="10" stroke-width="2" d="M36.9825 156.119L40.3726 152.534"/><path fill="#007C97" stroke="#263238" stroke-miterlimit="10" d="M39.3414 153.61C39.348 153.061 39.4721 152.52 39.7053 152.022C39.9385 151.525 40.2754 151.084 40.6934 150.727C41.5622 149.948 46.15 148.019 46.5844 149.631C47.0594 151.389 42.3661 154.84 39.3414 153.61Z"/><path stroke="#263238" stroke-miterlimit="10" stroke-width=".5" d="M39.3414 153.61L43.9657 150.74"/><path stroke="#263238" stroke-miterlimit="10" stroke-width="2" d="M39.2115 134.646L42.6016 131.057"/><path fill="#007C97" stroke="#263238" stroke-miterlimit="10" d="M41.5703 132.133C41.5768 131.584 41.7008 131.043 41.934 130.547C42.1672 130.05 42.5042 129.609 42.9223 129.254C43.7911 128.475 48.3749 126.542 48.8134 128.158C49.2884 129.92 44.595 133.367 41.5703 132.133Z"/><path stroke="#263238" stroke-miterlimit="10" stroke-width=".5" d="M41.5703 132.133L46.1906 129.266"/><path stroke="#263238" stroke-miterlimit="10" stroke-width="2" d="M40.1899 125.206L43.58 121.621"/><path fill="#007C97" stroke="#263238" stroke-miterlimit="10" d="M42.5529 122.693C42.5583 122.145 42.6814 121.604 42.914 121.107C43.1465 120.611 43.4831 120.17 43.9008 119.815C44.7696 119.035 49.3574 117.103 49.7918 118.718C50.2669 120.476 45.5735 123.927 42.5529 122.693Z"/><path stroke="#263238" stroke-miterlimit="10" stroke-width=".5" d="M42.5529 122.693L47.1731 119.827"/><path stroke="#263238" stroke-miterlimit="10" stroke-width="2" d="M41.6231 111.37L45.0173 107.785"/><path fill="#007C97" stroke="#263238" stroke-miterlimit="10" d="M43.986 108.861C43.9927 108.312 44.1168 107.77 44.35 107.273C44.5832 106.776 44.92 106.334 45.338 105.978C46.2068 105.199 50.7906 103.266 51.2291 104.882C51.7041 106.64 47.0107 110.091 43.986 108.861Z"/><path stroke="#263238" stroke-miterlimit="10" stroke-width=".5" d="M43.986 108.861L48.6063 105.99"/><path fill="#007C97" stroke="#263238" stroke-miterlimit="10" d="M42.3661 102.487C42.3726 101.938 42.4962 101.398 42.7287 100.901C42.9611 100.405 43.2971 99.964 43.714 99.608C44.5869 98.8285 49.1706 96.8959 49.6051 98.5118C50.0801 100.282 45.3908 103.721 42.3661 102.487Z"/><path stroke="#263238" stroke-miterlimit="10" stroke-width=".5" d="M42.3661 102.487L46.9864 99.6202"/><path fill="#007C97" stroke="#263238" stroke-miterlimit="10" d="M42.5569 102.694C42.0118 102.63 41.4867 102.45 41.0169 102.166C40.547 101.883 40.1432 101.502 39.8326 101.049C39.1506 100.103 37.7093 95.341 39.3617 95.0771C41.1562 94.7888 44.0997 99.8151 42.5569 102.694Z"/><path stroke="#263238" stroke-miterlimit="10" stroke-width=".5" d="M42.5569 102.694L40.1899 97.7973"/><path stroke="#263238" stroke-miterlimit="10" stroke-width="2" d="M33.8116 73.6728V164.414"/><path stroke="#263238" stroke-miterlimit="10" stroke-width="2" d="M33.8848 150.772L30.8804 146.85"/><path fill="#007C97" stroke="#263238" stroke-miterlimit="10" d="M31.7939 148.028C31.8449 147.481 31.7781 146.931 31.5981 146.412C31.4181 145.894 31.1291 145.42 30.7505 145.023C29.9628 144.158 25.6024 141.775 25.0015 143.326C24.36 145.023 28.6596 148.941 31.7939 148.028Z"/><path stroke="#263238" stroke-miterlimit="10" stroke-width=".5" d="M31.7938 148.028L27.7338 144.869"/><path stroke="#263238" stroke-miterlimit="10" stroke-width="2" d="M33.8848 133.716L30.8804 129.798"/><path fill="#007C97" stroke="#263238" stroke-miterlimit="10" d="M31.7939 130.976C31.8449 130.429 31.7781 129.878 31.5981 129.36C31.4181 128.842 31.1291 128.368 30.7505 127.971C29.9628 127.106 25.6024 124.723 25.0015 126.27C24.36 127.971 28.6596 131.889 31.7939 130.976Z"/><path stroke="#263238" stroke-miterlimit="10" stroke-width=".5" d="M31.7938 130.976L27.7338 127.817"/><path stroke="#263238" stroke-miterlimit="10" stroke-width="2" d="M33.8848 113.696L30.8804 109.778"/><path fill="#007C97" stroke="#263238" stroke-miterlimit="10" d="M31.7939 110.952C31.8449 110.405 31.7781 109.855 31.5981 109.336C31.4181 108.818 31.1291 108.344 30.7505 107.947C29.9628 107.082 25.6024 104.699 25.0015 106.25C24.36 107.947 28.6596 111.865 31.7939 110.952Z"/><path stroke="#263238" stroke-miterlimit="10" stroke-width=".5" d="M31.7938 110.952L27.7338 107.793"/><path stroke="#263238" stroke-miterlimit="10" stroke-width="2" d="M33.8848 100.367L30.8804 96.4493"/><path fill="#007C97" stroke="#263238" stroke-miterlimit="10" d="M31.7939 97.6227C31.8451 97.077 31.7784 96.5267 31.5984 96.0091C31.4184 95.4914 31.1292 95.0185 30.7505 94.6223C29.9628 93.7576 25.6024 91.3743 25.0015 92.9212C24.36 94.6223 28.6596 98.5402 31.7939 97.6227Z"/><path stroke="#263238" stroke-miterlimit="10" stroke-width=".5" d="M31.7938 97.6227L27.7338 94.464"/><path stroke="#263238" stroke-miterlimit="10" stroke-width="2" d="M33.8848 86.9814L30.8804 83.0635"/><path fill="#007C97" stroke="#263238" stroke-miterlimit="10" d="M31.7939 84.2369C31.8449 83.6906 31.7781 83.1397 31.5981 82.6215C31.4181 82.1032 31.1291 81.6295 30.7505 81.2325C29.9628 80.3677 25.6024 77.9845 25.0015 79.5354C24.36 81.2325 28.6596 85.1544 31.7939 84.2369Z"/><path stroke="#263238" stroke-miterlimit="10" stroke-width=".5" d="M31.7938 84.2369L27.7338 81.0782"/><path stroke="#263238" stroke-miterlimit="10" stroke-width="2" d="M33.8198 155.977L36.8242 152.059"/><path fill="#007C97" stroke="#263238" stroke-miterlimit="10" d="M35.9066 153.233C35.8539 152.685 35.9194 152.133 36.0987 151.613C36.278 151.093 36.567 150.618 36.946 150.22C37.7295 149.355 42.09 146.972 42.6909 148.519C43.3526 150.22 39.0409 154.15 35.9066 153.233Z"/><path stroke="#263238" stroke-miterlimit="10" stroke-width=".5" d="M35.9066 153.233L40.2062 149.907"/><path stroke="#263238" stroke-miterlimit="10" stroke-width="2" d="M33.8198 128.856L36.8242 124.938"/><path fill="#007C97" stroke="#263238" stroke-miterlimit="10" d="M35.9066 126.112C35.8569 125.565 35.9247 125.014 36.1054 124.496C36.286 123.978 36.5754 123.505 36.9541 123.107C37.7377 122.243 42.0981 119.859 42.699 121.41C43.3526 123.107 39.0409 127.025 35.9066 126.112Z"/><path stroke="#263238" stroke-miterlimit="10" stroke-width=".5" d="M35.9066 126.112L40.2062 122.783"/><path stroke="#263238" stroke-miterlimit="10" stroke-width="2" d="M33.8198 115.47L36.8242 111.553"/><path fill="#007C97" stroke="#263238" stroke-miterlimit="10" d="M35.9066 112.726C35.8569 112.179 35.9247 111.629 36.1054 111.11C36.286 110.592 36.5754 110.119 36.9541 109.721C37.7377 108.857 42.0981 106.473 42.699 108.024C43.3526 109.721 39.0409 113.639 35.9066 112.726Z"/><path stroke="#263238" stroke-miterlimit="10" stroke-width=".5" d="M35.9066 112.726L40.2062 109.397"/><path stroke="#263238" stroke-miterlimit="10" stroke-width="2" d="M33.8198 97.777L36.8242 93.8591"/><path fill="#007C97" stroke="#263238" stroke-miterlimit="10" d="M35.9066 95.0324C35.8569 94.4859 35.9247 93.9351 36.1054 93.4169C36.286 92.8987 36.5754 92.4252 36.9541 92.028C37.7377 91.1632 42.0981 88.78 42.699 90.3309C43.3526 92.028 39.0409 95.9459 35.9066 95.0324Z"/><path stroke="#263238" stroke-miterlimit="10" stroke-width=".5" d="M35.9066 95.0324L40.2062 91.7032"/><path stroke="#263238" stroke-miterlimit="10" stroke-width="2" d="M33.8198 83.8674L36.8242 79.9454"/><path fill="#007C97" stroke="#263238" stroke-miterlimit="10" d="M35.9066 81.1229C35.8569 80.5763 35.9247 80.0255 36.1054 79.5073C36.286 78.9892 36.5754 78.5156 36.9541 78.1185C37.7377 77.2537 42.0981 74.8705 42.699 76.4214C43.3526 78.1185 39.0409 82.0364 35.9066 81.1229Z"/><path stroke="#263238" stroke-miterlimit="10" stroke-width=".5" d="M35.9066 81.1228L40.2062 77.7936"/><path fill="#007C97" stroke="#263238" stroke-miterlimit="10" d="M33.6371 74.9517C33.5874 74.4052 33.6552 73.8544 33.8358 73.3362C34.0165 72.818 34.3059 72.3444 34.6846 71.9473C35.4681 71.0866 39.8286 68.6993 40.4295 70.2502C41.0831 71.9473 36.7714 75.8692 33.6371 74.9517Z"/><path stroke="#263238" stroke-miterlimit="10" stroke-width=".5" d="M33.6371 74.9516L37.9366 71.6224"/><path fill="#007C97" stroke="#263238" stroke-miterlimit="10" d="M33.8482 75.1384C33.2993 75.1317 32.7582 75.0072 32.2616 74.7732C31.7649 74.5393 31.3244 74.2014 30.9697 73.7824C30.1942 72.9135 28.2698 68.3257 29.8857 67.8913C31.6396 67.4204 35.0865 72.1178 33.8482 75.1384Z"/><path stroke="#263238" stroke-miterlimit="10" stroke-width=".5" d="M33.8482 75.1384L30.99 70.5141"/><path fill="#263238" stroke="#263238" stroke-miterlimit="10" d="M37.5469 187.95H27.9369L26.7351 163.679H38.7486L37.5469 187.95Z"/><path fill="#7D7D7D" stroke="#263238" stroke-linecap="round" stroke-linejoin="round" d="M124.378 89.32H154.008L147.106 114.744H117.476L124.378 89.32Z"/><path fill="#fff" stroke="#263238" stroke-linecap="round" stroke-linejoin="round" d="M125.223 90.266H152.648L146.262 113.798H118.836L125.223 90.266Z"/><path fill="#263238" d="M131.865 106.457L133.513 100.302H134.199L132.721 105.836H134.479L134.313 106.457H131.865Z"/><path fill="#263238" d="M136.03 101.788C136.282 100.846 136.911 100.241 137.849 100.241C138.787 100.241 139.104 100.846 138.852 101.788L137.999 104.971C137.752 105.905 137.118 106.522 136.168 106.522C135.218 106.522 134.926 105.905 135.178 104.971L136.03 101.788ZM135.844 105.008C135.693 105.572 135.844 105.897 136.339 105.897C136.834 105.897 137.151 105.572 137.305 105.008L138.174 101.76C138.324 101.204 138.174 100.871 137.683 100.871C137.192 100.871 136.871 101.204 136.717 101.76L135.844 105.008Z"/><path fill="#263238" d="M142.222 101.788L142.1 102.312H141.45L141.601 101.752C141.751 101.196 141.601 100.863 141.118 100.863C140.634 100.863 140.306 101.196 140.159 101.752L139.286 105C139.14 105.552 139.286 105.889 139.77 105.889C140.253 105.889 140.582 105.552 140.728 105L141.061 103.782H140.427L140.59 103.165H141.877L141.39 104.975C141.142 105.909 140.537 106.526 139.587 106.526C138.637 106.526 138.369 105.909 138.621 104.975L139.473 101.792C139.721 100.863 140.326 100.245 141.268 100.245C142.21 100.245 142.47 100.859 142.222 101.788Z"/><path fill="#263238" d="M142.823 101.788C143.074 100.846 143.7 100.241 144.642 100.241C145.584 100.241 145.896 100.846 145.644 101.788L144.792 104.971C144.544 105.905 143.911 106.522 142.961 106.522C142.011 106.522 141.718 105.905 141.97 104.971L142.823 101.788ZM142.636 105.008C142.486 105.572 142.636 105.897 143.131 105.897C143.627 105.897 143.943 105.572 144.098 105.008L144.966 101.76C145.117 101.204 144.966 100.871 144.475 100.871C143.984 100.871 143.663 101.204 143.509 101.76L142.636 105.008Z"/><path stroke="#263238" stroke-linecap="round" stroke-linejoin="round" d="M132.612 100.639C132.559 99.2386 132.234 96.6564 130.704 94.6589C128.491 91.7763 124.48 95.6983 126.169 100.603C126.391 101.234 126.715 101.825 127.127 102.353"/><path stroke="#263238" stroke-linecap="round" stroke-linejoin="round" d="M128.722 103.899C128.722 103.899 122.868 104.789 124.102 106.936C126.234 110.659 129.786 107.241 131.276 105.499"/><path fill="#007C97" stroke="#263238" stroke-linecap="round" stroke-linejoin="round" d="M131.374 98.7717C132.031 100.538 131.893 102.219 131.065 102.527C130.237 102.836 129.035 101.654 128.369 99.8882C127.703 98.1221 127.854 96.4372 128.682 96.1286C129.51 95.8201 130.732 97.0056 131.374 98.7717Z"/><path fill="#007C97" stroke="#263238" stroke-linecap="round" stroke-linejoin="round" d="M125.482 107.038C125.685 107.578 126.725 107.683 127.805 107.273C128.885 106.863 129.591 106.096 129.388 105.556C129.185 105.016 128.142 104.91 127.066 105.321C125.99 105.731 125.275 106.498 125.482 107.038Z"/><path stroke="#263238" stroke-linecap="round" stroke-linejoin="round" d="M134.386 95.6617C134.71 96.6054 134.792 97.6151 134.625 98.5987C134.459 99.5823 134.048 100.509 133.432 101.293C133.616 99.7854 133.444 98.2557 132.928 96.827"/><path fill="#7D7D7D" stroke="#263238" stroke-linecap="round" stroke-linejoin="round" d="M147.106 113.396H105.564V114.748H147.106V113.396Z"/><path fill="#595959" stroke="#263238" stroke-linecap="round" stroke-linejoin="round" d="M147.106 113.396H128.016V114.748H147.106V113.396Z"/><path fill="#fff" stroke="#263238" stroke-linecap="round" stroke-linejoin="round" d="M94.5086 116.9H92.2756V187.791H94.5086V116.9Z"/><path fill="#A8A8A8" stroke="#263238" stroke-linecap="round" stroke-linejoin="round" d="M90.3674 187.791H92.2756L92.2756 116.9H90.3674L90.3674 187.791Z"/><path fill="#fff" stroke="#263238" stroke-linecap="round" stroke-linejoin="round" d="M151.714 153.992H149.481V187.791H151.714V153.992Z"/><path fill="#A8A8A8" stroke="#263238" stroke-linecap="round" stroke-linejoin="round" d="M147.573 187.795H149.481V153.996H147.573V187.795Z"/><path fill="#fff" stroke="#263238" stroke-linecap="round" stroke-linejoin="round" d="M175.623 153.992H173.39V187.791H175.623V153.992Z"/><path fill="#A8A8A8" stroke="#263238" stroke-linecap="round" stroke-linejoin="round" d="M171.482 187.795H173.39V153.996H171.482V187.795Z"/><path fill="#A8A8A8" stroke="#263238" stroke-linecap="round" stroke-linejoin="round" d="M127.346 155.92H149.132V117.586H127.346V155.92Z"/><path fill="#fff" stroke="#263238" stroke-linecap="round" stroke-linejoin="round" d="M177.84 117.59H149.132V155.924H177.84V117.59Z"/><path fill="#263238" stroke="#263238" stroke-linecap="round" stroke-linejoin="round" d="M149.132 117.59H127.35V119.457H149.132H177.84V117.59H149.132Z"/><path fill="#fff" stroke="#263238" stroke-linecap="round" stroke-linejoin="round" d="M147.78 119.786H129.205V128.734H147.78V119.786Z"/><path fill="#263238" d="M140.943 123.416H136.047V125.105H140.943V123.416Z"/><path fill="#fff" stroke="#263238" stroke-linecap="round" stroke-linejoin="round" d="M147.78 132.112H129.205V141.061H147.78V132.112Z"/><path fill="#263238" d="M140.943 135.576H136.047V137.265H140.943V135.576Z"/><path fill="#fff" stroke="#263238" stroke-linecap="round" stroke-linejoin="round" d="M147.78 144.439H129.205V153.387H147.78V144.439Z"/><path fill="#263238" d="M140.943 147.731H136.047V149.42H140.943V147.731Z"/><path fill="#A8A8A8" stroke="#263238" stroke-linecap="round" stroke-linejoin="round" d="M180.804 115.905H87.29V118.134H180.804V115.905Z"/><path fill="#fff" stroke="#263238" stroke-linecap="round" stroke-linejoin="round" d="M180.804 115.905H152.567V118.134H180.804V115.905Z"/><path fill="#fff" stroke="#263238" stroke-linecap="round" stroke-linejoin="round" d="M95.2192 138.592C95.2192 138.592 98.0043 140.521 102.121 152.441C103.493 156.403 111.212 177.771 111.618 179.237C112.024 180.702 112.836 182.485 114.054 182.485C115.272 182.485 119.738 176.801 119.193 176.127C118.649 175.453 116.084 172.741 116.084 172.741C116.084 172.741 114.549 155.445 114.277 150.573C114.005 145.701 115.113 139.834 112.543 135.908C109.973 131.982 98.6012 136.042 98.6012 136.042L95.2192 138.592Z"/><path fill="#007C97" stroke="#263238" stroke-linecap="round" stroke-linejoin="round" d="M117.334 172.761C117.02 172.929 116.763 173.186 116.594 173.499C116.425 173.813 116.352 174.169 116.384 174.523C116.522 175.741 117.74 177.365 117.74 177.365C117.74 177.365 115.166 179.395 113.814 179.529C112.462 179.663 110.972 179.935 110.972 180.341C110.972 180.747 112.056 181.425 112.73 182.911C113.476 184.419 114.337 185.867 115.304 187.243C115.71 187.783 115.978 188.189 117.468 187.783C118.958 187.377 122.206 184.401 123.964 183.183C125.722 181.965 131 181.153 131.95 180.475C132.9 179.797 135.872 175.469 134.52 174.657C133.168 173.845 132.762 174.791 131.138 175.197C129.514 175.603 124.776 175.063 122.206 174.523C119.636 173.983 118.82 173.845 118.82 173.845L117.334 172.761Z"/><path fill="#fff" stroke="#263238" stroke-linecap="round" stroke-linejoin="round" d="M115.068 186.935C115.158 187.064 115.231 187.17 115.288 187.243C115.694 187.783 115.962 188.189 117.452 187.783C118.942 187.377 122.19 184.401 123.948 183.183C125.706 181.965 130.984 181.153 131.934 180.475C132.884 179.797 135.856 175.469 134.504 174.657C134.314 174.538 134.107 174.448 133.891 174.389C133.915 174.478 133.939 174.56 133.964 174.657C134.37 176.281 133.014 177.905 131.796 179.123C130.578 180.341 126.518 180.069 122.052 182.371C119.584 183.666 117.246 185.194 115.068 186.935Z"/><path fill="#263238" stroke="#263238" stroke-linecap="round" stroke-linejoin="round" d="M114.939 159.221C114.646 155.66 114.391 152.319 114.293 150.594C114.021 145.722 115.129 139.855 112.559 135.929C109.989 132.003 98.6174 136.063 98.6174 136.063L95.2192 138.592C95.2192 138.592 98.0043 140.521 102.121 152.441C102.645 153.955 104.098 158.019 105.718 162.538L114.939 159.221Z"/><path fill="#fff" stroke="#263238" stroke-linecap="round" stroke-linejoin="round" d="M108.313 69.1743C108.664 70.1148 108.831 71.1142 108.804 72.1178C108.682 73.4697 107.452 74.0828 107.33 73.7174C107.225 73.109 107.184 72.4911 107.208 71.8742V71.3829C106.905 71.8828 106.533 72.3379 106.104 72.7349C105.243 73.5915 104.752 73.3479 104.383 73.3479C104.013 73.3479 103.891 72.1299 104.508 71.2611C105.126 70.3923 107.086 68.4353 108.313 69.1743Z"/><path fill="#fff" stroke="#263238" stroke-linecap="round" stroke-linejoin="round" d="M111.138 72.3654C109.92 71.6265 108.069 74.2087 105.243 73.5834C104.882 73.5063 104.752 72.9704 105.365 71.7442C105.978 70.5181 107.943 69.5315 108.926 68.7967C109.908 68.0618 110.647 67.4447 110.647 66.584C110.647 65.7233 108.434 67.0752 107.805 67.5665C107.062 68.0296 106.289 68.4433 105.491 68.8048L104.959 68.8332C103.867 68.9022 102.182 69.0971 101.545 69.6452C100.708 70.372 100.229 72.8689 100.03 73.8311C99.4862 74.6187 98.999 75.3455 98.7189 75.7839C97.8582 77.1319 80.5463 89.7828 80.5463 89.7828L81.7643 100.586L101.411 78.2565C101.955 77.8115 102.581 77.4777 103.254 77.274C104.606 76.7827 106.445 76.4132 108.045 75.5525C109.228 74.9201 110.376 74.2235 111.484 73.4657C112.34 72.9338 111.804 72.7633 111.138 72.3654Z"/><path fill="#007C97" stroke="#263238" stroke-linecap="round" stroke-linejoin="round" d="M90.4893 82.418C85.666 86.072 80.5626 89.8031 80.5626 89.8031L81.7806 100.607L93.8591 86.884L90.4893 82.418Z"/><path fill="#fff" stroke="#263238" stroke-linecap="round" stroke-linejoin="round" d="M84.448 123.29C84.448 123.29 93.1079 122.884 105.694 124.914C118.28 126.944 122.99 129.108 122.612 131.544C121.077 141.426 98.0043 173.959 98.0043 173.959L98.4103 178.559C98.4103 178.559 97.5983 179.643 94.7563 179.777C91.9143 179.911 88.3943 175.855 88.3943 175.855C88.3943 175.855 91.5733 172.566 92.7913 168.644C94.0093 164.722 103.802 139.392 103.802 139.392C103.802 139.392 90.944 142.234 76.734 139.664C62.524 137.094 84.448 123.29 84.448 123.29Z"/><path fill="#263238" stroke="#263238" stroke-linecap="round" stroke-linejoin="round" d="M105.694 124.914C93.1079 122.884 84.448 123.29 84.448 123.29C84.448 123.29 62.524 137.094 76.734 139.664C90.944 142.234 103.802 139.392 103.802 139.392C103.802 139.392 99.742 149.948 96.494 158.474L106.039 162.128C112.868 151.799 121.682 137.524 122.612 131.544C122.99 129.108 118.28 126.944 105.694 124.914Z"/><path fill="#007C97" stroke="#263238" stroke-linecap="round" stroke-linejoin="round" d="M98.0043 173.959C97.731 174.072 97.4827 174.237 97.2736 174.446C97.0646 174.655 96.899 174.904 96.7863 175.177C96.5253 175.796 96.299 176.429 96.1083 177.073C94.6273 176.754 93.1785 176.3 91.7804 175.717C90.7501 175.246 89.7543 174.703 88.8003 174.093C88.8003 174.093 87.5823 174.231 87.5823 175.043C87.5755 176.291 87.3473 177.528 86.9084 178.697C86.5592 179.566 85.8162 181.502 85.3331 182.757C85.2769 182.905 85.2532 183.063 85.2635 183.221C85.2739 183.379 85.3182 183.533 85.3933 183.673C85.4683 183.812 85.5725 183.934 85.6987 184.029C85.825 184.125 85.9703 184.192 86.1248 184.227C88.2685 184.702 92.7872 185.745 96.6524 186.935C101.93 188.559 107.748 187.747 108.426 187.613C109.104 187.479 111.808 185.851 110.59 184.771C109.372 183.691 102.198 180.845 100.712 178.949C99.2264 177.053 98.0043 173.959 98.0043 173.959Z"/><path fill="#fff" stroke="#263238" stroke-linecap="round" stroke-linejoin="round" d="M110.046 184.405C110.046 185.749 109.356 187.085 107.204 187.085C105.052 187.085 101.248 186.817 95.8363 184.649C92.5705 183.369 89.2146 182.332 85.7959 181.547C85.6294 181.981 85.467 182.404 85.329 182.765C85.2728 182.913 85.2491 183.071 85.2595 183.229C85.2698 183.387 85.3141 183.541 85.3892 183.681C85.4643 183.82 85.5684 183.942 85.6946 184.037C85.8209 184.133 85.9662 184.2 86.1207 184.235C88.2644 184.71 92.7831 185.753 96.6483 186.943C101.926 188.567 107.744 187.755 108.422 187.621C109.1 187.487 111.804 185.859 110.586 184.779C110.418 184.639 110.237 184.514 110.046 184.405Z"/><path fill="#007C97" stroke="#263238" stroke-linecap="round" stroke-linejoin="round" d="M57.1079 91.756C57.1079 91.756 55.6341 103.424 55.76 105.633C55.8859 107.842 57.4774 126.875 57.8468 131.053C58.2163 135.23 59.9337 138.909 63.003 139.648C66.0724 140.387 74.0544 141.487 77.4932 140.63C80.932 139.774 84.6144 132.035 85.8405 129.088C87.0667 126.14 87.9314 124.297 87.562 123.684C87.1925 123.071 85.5969 121.719 85.5969 121.719C85.5969 121.719 82.5276 99.3888 81.7887 93.5992C81.0497 87.8097 81.4233 87.3387 78.7193 85.126C76.0153 82.9133 62.0205 81.0822 57.1079 91.756Z"/><path stroke="#263238" stroke-linecap="round" stroke-linejoin="round" d="M76.7584 132.482C76.3158 132.819 75.853 133.14 75.382 133.44"/><path stroke="#263238" stroke-linecap="round" stroke-linejoin="round" d="M84.8539 122.612C84.8539 122.612 82.2474 127.728 77.9316 131.52"/><path stroke="#263238" stroke-linecap="round" stroke-linejoin="round" d="M82.958 122.884C82.958 122.884 78.764 126.806 74.57 129.242"/><path fill="#fff" stroke="#263238" stroke-linecap="round" stroke-linejoin="round" d="M86.3318 55.0495C87.0071 56.4679 87.5429 57.9487 87.9315 59.4708C88.2969 61.3141 88.4227 63.0315 89.2794 63.4009C90.136 63.7704 91.7154 63.8922 91.4921 64.8747C91.2688 65.8572 89.6488 67.4528 89.6488 67.4528C89.6488 67.4528 90.0183 73.3479 89.8924 74.4522C89.7666 75.5566 83.2625 75.5566 82.8971 75.5566C82.5317 75.5566 78.8371 84.2774 78.8371 84.2774L68.5247 79.1172L70.4897 72.7349C70.4897 72.7349 67.2985 66.5921 67.0509 63.8922C66.8032 61.1923 73.08 56.2797 76.6325 55.1754C80.185 54.071 86.3318 55.0495 86.3318 55.0495Z"/><path fill="#263238" stroke="#263238" stroke-linecap="round" stroke-linejoin="round" d="M82.897 75.5566L79.6206 74.6228L80.8467 79.4177L82.897 75.5566Z"/><path fill="#263238" d="M87.5498 61.9962C87.7122 62.6904 87.635 63.3035 87.3711 63.3644C87.1072 63.4253 86.7581 62.9178 86.5916 62.2276C86.4252 61.5374 86.5064 60.9203 86.7703 60.8594C87.0342 60.7985 87.3833 61.306 87.5498 61.9962Z"/><path stroke="#263238" stroke-linecap="round" stroke-linejoin="round" d="M85.4752 68.5571C85.4752 68.5571 86.9489 69.6655 88.2969 69.1743"/><path fill="#263238" stroke="#263238" stroke-linecap="round" stroke-linejoin="round" d="M85.7188 52.7191C85.7188 52.7191 87.4402 55.7884 86.21 57.7535C84.9798 59.7185 82.0363 60.5752 80.4408 62.4184C78.8452 64.2617 78.0048 67.4528 77.3714 67.6964C76.738 67.94 74.9354 64.2576 73.8067 64.5012C72.678 64.7448 70.8632 67.3432 72.4588 70.0269C72.8983 70.7954 73.5474 71.4231 74.3303 71.8365C75.1132 72.2498 75.9976 72.4319 76.8801 72.3614C76.8801 72.3614 72.4588 74.6959 71.6021 74.6959C70.7455 74.6959 68.1633 73.2221 66.9372 71.8539C65.7111 70.4856 61.306 66.4703 61.038 63.1573C60.7701 59.8444 65.2117 55.6666 65.2117 55.6666C65.2117 55.6666 59.9337 55.2972 61.2857 53.3321C62.6377 51.3671 67.4244 50.141 67.4244 50.141C67.4244 50.141 66.5637 47.0716 67.7939 46.4545C69.024 45.8374 76.5107 48.314 76.5107 48.314C76.5107 48.314 74.4238 45.6141 77.3714 45.472C80.319 45.3299 85.3493 49.0326 85.7188 52.7191Z"/><path stroke="#263238" stroke-linecap="round" stroke-linejoin="round" d="M75.9464 66.0521L91.6139 59.7185"/><path stroke="#263238" stroke-linecap="round" stroke-linejoin="round" d="M87.5295 58.8294C88.1813 58.5467 88.917 58.5259 89.5838 58.7712C90.2506 59.0164 90.7975 59.509 91.1108 60.1467C91.4242 60.7843 91.48 61.5182 91.2667 62.1959C91.0535 62.8737 90.5875 63.4433 89.9655 63.7866"/><path fill="#007C97" stroke="#263238" stroke-linecap="round" stroke-linejoin="round" d="M81.7887 87.696C81.7887 87.696 81.6669 84.1354 80.6844 83.1528C79.7018 82.1703 72.4588 78.1184 69.1418 77.2618C65.8248 76.4051 62.39 77.6272 60.1773 78.3661C57.9646 79.105 56.4949 81.2 55.622 85.7512C54.7491 90.3025 54.6395 93.1161 56.4827 93.3637C58.326 93.6114 60.9041 88.0857 66.6733 86.9774C72.4426 85.869 77.7246 86.8556 78.9548 87.4686C80.185 88.0817 81.7887 87.696 81.7887 87.696Z"/><path stroke="#263238" stroke-linecap="round" stroke-linejoin="round" d="M63.1411 83.9445C62.0327 84.3505 61.2856 84.6428 61.2856 84.6428"/><path stroke="#263238" stroke-linecap="round" stroke-linejoin="round" d="M81.7887 87.696C81.7887 87.696 74.0747 83.4005 71.2327 82.5398C69.7589 82.0932 67.1118 82.6819 64.9194 83.3518"/><path fill="#fff" stroke="#263238" stroke-linecap="round" stroke-linejoin="round" d="M118.252 107.671C118.252 107.671 117.846 110.225 117.379 110.513C116.912 110.801 116.94 108.142 116.94 108.142C116.94 108.142 116.356 109.673 115.994 110.038C115.633 110.404 115.848 108.471 115.848 108.471L116.254 106.648L118.252 107.671Z"/><path fill="#fff" stroke="#263238" stroke-linecap="round" stroke-linejoin="round" d="M113.055 105.154L116.822 105.215C116.822 105.215 117.817 105.357 117.959 105.925C118.161 106.554 118.398 107.171 118.67 107.773L112.84 106.067L113.055 105.154Z"/><path fill="#fff" stroke="#263238" stroke-linecap="round" stroke-linejoin="round" d="M114.403 106.344C114.403 106.344 119.681 105.633 119.807 106.059C119.912 106.38 120.318 109.271 120.407 110.205C120.409 110.237 120.401 110.268 120.383 110.295C120.366 110.322 120.341 110.342 120.311 110.354C120.281 110.365 120.248 110.366 120.217 110.358C120.186 110.349 120.159 110.331 120.139 110.306L118.67 107.765L114.687 108.049C114.687 108.049 113.55 107.054 114.403 106.344Z"/><path fill="#007C97" d="M70.7698 90.4243C70.7698 90.4243 67.4975 92.84 68.6343 98.8123C69.7711 104.785 77.7327 121.142 78.4432 122.547C79.1537 123.952 82.2799 124.11 83.7009 123.684C85.1219 123.258 110.432 113.168 110.432 113.168C110.432 113.168 113.132 112.454 113.558 111.885C113.984 111.317 116.688 108.333 116.688 108.333C116.688 108.333 120.951 108.901 121.946 108.617C122.941 108.333 120.951 108.049 119.957 107.765C119.189 107.545 114.959 105.893 113.055 105.146C112.78 105.035 112.479 105.009 112.19 105.07C111.901 105.132 111.636 105.278 111.431 105.491C110.099 106.855 107.261 109.75 106.721 110.18C106.011 110.749 85.9705 114.163 85.9705 114.163C85.9705 114.163 81.2771 92.1295 79.4298 90.2822C77.5825 88.4349 74.3142 88.8612 74.3142 88.8612"/><path stroke="#263238" stroke-linecap="round" stroke-linejoin="round" d="M70.7698 90.4243C70.7698 90.4243 67.4975 92.84 68.6343 98.8123C69.7711 104.785 77.7327 121.142 78.4432 122.547C79.1537 123.952 82.2799 124.11 83.7009 123.684C85.1219 123.258 110.432 113.168 110.432 113.168C110.432 113.168 113.132 112.454 113.558 111.885C113.984 111.317 116.688 108.333 116.688 108.333C116.688 108.333 120.951 108.901 121.946 108.617C122.941 108.333 120.951 108.049 119.957 107.765C119.189 107.545 114.959 105.893 113.055 105.146C112.78 105.035 112.479 105.009 112.19 105.07C111.901 105.132 111.636 105.278 111.431 105.491C110.099 106.855 107.261 109.75 106.721 110.18C106.011 110.749 85.9705 114.163 85.9705 114.163C85.9705 114.163 81.2771 92.1295 79.4298 90.2822C77.5825 88.4349 74.3142 88.8612 74.3142 88.8612"/><path fill="#fff" stroke="#263238" stroke-linecap="round" stroke-linejoin="round" d="M97.2045 118.422C103.843 115.791 110.432 113.168 110.432 113.168C110.432 113.168 113.132 112.454 113.558 111.885C113.984 111.317 116.684 108.333 116.684 108.333C116.684 108.333 120.951 108.901 121.962 108.617C122.973 108.333 120.968 108.049 119.973 107.765C119.206 107.545 114.975 105.893 113.071 105.146C112.797 105.035 112.496 105.009 112.206 105.07C111.917 105.132 111.653 105.278 111.447 105.491C110.115 106.855 107.277 109.75 106.737 110.18C106.368 110.477 100.769 111.54 95.479 112.494L97.2045 118.422Z"/><path fill="#9C9C9C" stroke="#263238" stroke-linecap="round" stroke-linejoin="round" d="M52.78 146.395L46.5885 187.539C46.5664 187.626 46.5797 187.718 46.6254 187.795C46.6711 187.872 46.7454 187.927 46.8321 187.95C46.9188 187.972 47.0107 187.958 47.0876 187.913C47.1645 187.867 47.2201 187.793 47.2422 187.706L56.5802 147.073L52.78 146.395Z"/><path fill="#9C9C9C" stroke="#263238" stroke-linecap="round" stroke-linejoin="round" d="M62.0205 146.667L64.7123 187.462C64.7123 187.552 64.7478 187.637 64.811 187.701C64.8742 187.764 64.9599 187.799 65.0493 187.799C65.1386 187.799 65.2244 187.764 65.2876 187.701C65.3507 187.637 65.3863 187.552 65.3863 187.462L65.8531 146.339L62.0205 146.667Z"/><path fill="#9C9C9C" stroke="#263238" stroke-linecap="round" stroke-linejoin="round" d="M71.1028 147.281L78.492 187.369C78.5137 187.449 78.5644 187.519 78.6343 187.564C78.7041 187.609 78.7882 187.627 78.8703 187.614C78.9525 187.601 79.0268 187.558 79.0792 187.493C79.1315 187.428 79.1581 187.347 79.1538 187.263L74.8502 146.408L71.1028 147.281Z"/><path fill="#9C9C9C" stroke="#263238" stroke-linecap="round" stroke-linejoin="round" d="M85.3858 146.944L91.4311 187.3C91.4493 187.381 91.4969 187.453 91.5648 187.501C91.6327 187.549 91.7161 187.571 91.7988 187.561C91.8816 187.552 91.9578 187.512 92.0129 187.449C92.0679 187.387 92.0979 187.306 92.097 187.223L89.1657 146.217L85.3858 146.944Z"/><path fill="#fff" stroke="#263238" stroke-linecap="round" stroke-linejoin="round" d="M79.6085 138.73C79.6085 138.73 72.4994 136.359 69.1824 127.833C65.8654 119.307 60.4209 104.618 56.6289 102.718C52.8368 100.818 45.4963 104.374 45.0213 118.114C44.5463 131.853 45.6587 142.068 48.72 145.445C51.428 148.421 56.028 152.213 71.996 152.481C86.2587 152.725 92.0808 147.289 94.058 145.445C96.0352 143.602 99.267 139.664 96.6645 139.664C94.0621 139.664 82.9255 139.664 79.6085 138.73Z"/><path fill="#fff" stroke="#263238" stroke-linecap="round" stroke-linejoin="round" d="M112.434 54.404C112.434 54.404 109.661 51.156 105.808 50.551C101.955 49.9461 101.695 55.5651 106.62 58.0296C108.001 58.665 109.532 58.904 111.041 58.7198C111.041 58.7198 107.107 63.3685 109.652 64.1114C115.336 65.7842 114.118 57.0227 114.118 57.0227L112.434 54.404Z"/><path fill="#fff" stroke="#263238" stroke-linecap="round" stroke-linejoin="round" d="M113.367 54.1807C113.367 54.1807 111.743 50.2384 112.961 46.5276C114.179 42.8167 119.007 45.338 118.958 50.8474C118.939 52.2729 118.558 53.6702 117.85 54.9074C117.85 54.9074 124.045 53.5879 123.282 56.1254C121.548 61.8947 114.935 56.8765 114.935 56.8765L113.367 54.1807Z"/><path fill="#263238" d="M115.519 59.1055C115.449 59.1055 115.38 59.0871 115.318 59.0522C115.257 59.0174 115.206 58.9671 115.17 58.9065L111.317 52.4349C111.262 52.3428 111.245 52.2325 111.271 52.1283C111.297 52.024 111.363 51.9343 111.455 51.8787C111.501 51.8509 111.552 51.8325 111.605 51.8245C111.659 51.8166 111.713 51.8194 111.765 51.8326C111.817 51.8458 111.866 51.8693 111.909 51.9016C111.952 51.9339 111.988 51.9744 112.015 52.0208L115.864 58.4924C115.92 58.5845 115.936 58.6948 115.91 58.799C115.884 58.9033 115.818 58.993 115.726 59.0486C115.663 59.0848 115.592 59.1043 115.519 59.1055Z"/><path stroke="#263238" stroke-linecap="round" stroke-linejoin="round" d="M111.975 52.9992C111.975 52.9992 110.586 50.072 108.122 49.7512"/><path stroke="#263238" stroke-linecap="round" stroke-linejoin="round" d="M112.015 52.0208C112.015 52.0208 111.203 49.6091 111.821 48.0663"/><path fill="#007C97" stroke="#263238" stroke-linecap="round" stroke-linejoin="round" d="M109.559 54.7572C109.413 55.4718 108.341 55.8615 107.18 55.626C106.019 55.3906 105.178 54.6151 105.325 53.9006C105.471 53.186 106.543 52.7922 107.704 53.0317C108.865 53.2713 109.705 54.0386 109.559 54.7572Z"/><path fill="#007C97" stroke="#263238" stroke-linecap="round" stroke-linejoin="round" d="M112.462 59.7916C112.868 60.0636 112.868 60.8269 112.409 61.5049C111.95 62.183 111.244 62.524 110.838 62.2317C110.432 61.9394 110.432 61.1964 110.891 60.5184C111.35 59.8403 112.028 59.5196 112.462 59.7916Z"/><path fill="#007C97" stroke="#263238" stroke-linecap="round" stroke-linejoin="round" d="M120.903 56.3934C120.903 56.8887 120.261 57.2988 119.453 57.311C118.645 57.3231 117.988 56.9293 117.98 56.434C117.971 55.9387 118.621 55.5286 119.429 55.5164C120.237 55.5043 120.895 55.9021 120.903 56.3934Z"/><path fill="#007C97" stroke="#263238" stroke-linecap="round" stroke-linejoin="round" d="M115.901 52.1548C115.174 52.236 114.476 51.3428 114.346 50.1532C114.216 48.9636 114.699 47.9445 115.426 47.8633C116.153 47.7821 116.847 48.6753 116.977 49.8649C117.107 51.0545 116.628 52.0736 115.901 52.1548Z"/><path stroke="#263238" stroke-linecap="round" stroke-linejoin="round" d="M9.80487 187.95H198.916"/></svg>