<svg width="301" height="301" viewBox="0 0 301 301" fill="none" xmlns="http://www.w3.org/2000/svg">
<path d="M266.927 199.22C266.927 199.22 297.683 164.653 287.906 104.507C278.13 44.3614 227.905 22.2018 194.596 33.7783C161.288 45.3547 153.775 65.5037 126.57 77.0259C99.3661 88.5482 47.6724 80.6379 21.8225 119.341C-4.0274 158.043 28.9742 222.174 70.9878 262.388C113.001 302.601 220.212 277.426 266.927 199.22Z" fill="#007C97"/>
<path opacity="0.7" d="M266.927 199.22C266.927 199.22 297.683 164.653 287.906 104.507C278.13 44.3614 227.905 22.2018 194.596 33.7783C161.288 45.3547 153.775 65.5037 126.57 77.0259C99.3661 88.5482 47.6724 80.6379 21.8225 119.341C-4.0274 158.043 28.9742 222.174 70.9878 262.388C113.001 302.601 220.212 277.426 266.927 199.22Z" fill="white"/>
<path d="M267.89 286.215H287.551" stroke="#263238" stroke-linecap="round" stroke-linejoin="round"/>
<path d="M264.278 241.703L254.345 255.549L257.855 257.921C258.987 258.686 259.915 259.717 260.556 260.924C261.197 262.131 261.533 263.477 261.533 264.844H268.721C268.72 263.478 269.054 262.132 269.694 260.925C270.334 259.718 271.261 258.686 272.393 257.921L275.903 255.549L265.976 241.703H264.278Z" fill="white" stroke="black" stroke-linecap="round" stroke-linejoin="round"/>
<path d="M264.994 241.884V253.039" stroke="black" stroke-linecap="round" stroke-linejoin="round"/>
<path d="M264.994 255.417C266.308 255.417 267.372 254.352 267.372 253.039C267.372 251.725 266.308 250.661 264.994 250.661C263.681 250.661 262.616 251.725 262.616 253.039C262.616 254.352 263.681 255.417 264.994 255.417Z" fill="white" stroke="black" stroke-linecap="round" stroke-linejoin="round"/>
<path d="M281.736 253.039C281.736 248.592 279.97 244.328 276.825 241.184C273.681 238.04 269.417 236.273 264.97 236.273C260.524 236.273 256.259 238.04 253.115 241.184C249.971 244.328 248.205 248.592 248.205 253.039" stroke="black" stroke-linecap="round" stroke-linejoin="round"/>
<path d="M283.012 251.787H280.508V254.291H283.012V251.787Z" fill="white" stroke="black" stroke-linejoin="round"/>
<path d="M249.3 251.787H246.796V254.291H249.3V251.787Z" fill="white" stroke="black" stroke-linejoin="round"/>
<path d="M266.247 235.021H263.742V237.525H266.247V235.021Z" fill="white" stroke="black" stroke-linejoin="round"/>
<path d="M266.205 209.794C275.127 207.662 280.631 198.701 278.499 189.779C276.367 180.857 267.406 175.353 258.484 177.485C249.562 179.617 244.058 188.578 246.19 197.5C248.322 206.422 257.283 211.926 266.205 209.794Z" stroke="black" stroke-linecap="round" stroke-linejoin="round"/>
<path d="M262.352 207.239C269.876 207.239 275.975 201.139 275.975 193.615C275.975 186.092 269.876 179.992 262.352 179.992C254.828 179.992 248.728 186.092 248.728 193.615C248.728 201.139 254.828 207.239 262.352 207.239Z" stroke="black" stroke-linecap="round" stroke-linejoin="round"/>
<path d="M262.352 199.039V193.615H274.313" stroke="black" stroke-linecap="round" stroke-linejoin="round"/>
<path d="M263.682 175.682H261.027V178.337H263.682V175.682Z" fill="white" stroke="black" stroke-linecap="round" stroke-linejoin="round"/>
<path d="M263.682 208.93H261.027V211.585H263.682V208.93Z" fill="white" stroke="black" stroke-linecap="round" stroke-linejoin="round"/>
<path d="M280.46 192.514H277.805V195.168H280.46V192.514Z" fill="white" stroke="black" stroke-linecap="round" stroke-linejoin="round"/>
<path d="M247.025 192.514H244.37V195.168H247.025V192.514Z" fill="white" stroke="black" stroke-linecap="round" stroke-linejoin="round"/>
<path d="M273.946 204.993L275.716 219.544L278.973 213.951L285.444 214.077L273.946 204.993Z" fill="black"/>
<path d="M282.958 219.044H280.466V221.536H282.958V219.044Z" fill="black"/>
<path d="M280.851 118.022H248.957C247.494 118.022 246.308 119.208 246.308 120.671V142.831C246.308 144.294 247.494 145.479 248.957 145.479H280.851C282.314 145.479 283.5 144.294 283.5 142.831V120.671C283.5 119.208 282.314 118.022 280.851 118.022Z" stroke="black" stroke-linecap="round" stroke-linejoin="round"/>
<path d="M246.471 138.394H283.337" stroke="black" stroke-linecap="round" stroke-linejoin="round"/>
<path d="M269.708 145.473H260.106V152.818H269.708V145.473Z" stroke="black" stroke-linecap="round" stroke-linejoin="round"/>
<path d="M272.688 152.836H256.994V154.239H272.688V152.836Z" stroke="black" stroke-linecap="round" stroke-linejoin="round"/>
<path d="M28.3 183.207L36.427 261.063" stroke="#263238" stroke-linecap="round" stroke-linejoin="round"/>
<path d="M34.8257 245.839L31.4364 242.269" stroke="#263238" stroke-linecap="round" stroke-linejoin="round"/>
<path d="M32.5561 243.437C32.548 242.841 32.4128 242.255 32.1595 241.716C31.9062 241.177 31.5406 240.698 31.0872 240.312C30.1421 239.47 25.1696 237.375 24.694 239.108C24.1823 241.035 29.2752 244.779 32.5561 243.437Z" fill="#007C97" stroke="#263238" stroke-linejoin="round"/>
<path d="M32.5562 243.437L27.8184 240.487" stroke="#263238" stroke-linecap="round" stroke-linejoin="round"/>
<path d="M35.6685 253.881L32.3575 251.124" stroke="#263238" stroke-linecap="round" stroke-linejoin="round"/>
<path d="M33.4772 252.292C33.471 251.697 33.3373 251.11 33.0849 250.571C32.8325 250.032 32.4675 249.554 32.0143 249.168C31.0692 248.325 26.0906 246.23 25.6211 247.964C25.1033 249.89 30.1963 253.629 33.4772 252.292Z" fill="#007C97" stroke="#263238" stroke-linejoin="round"/>
<path d="M33.4772 252.292L28.7394 249.343" stroke="#263238" stroke-linecap="round" stroke-linejoin="round"/>
<path d="M32.526 223.673L29.1789 220.663" stroke="#263238" stroke-linecap="round" stroke-linejoin="round"/>
<path d="M30.2986 221.831C30.2925 221.236 30.1587 220.649 29.9064 220.11C29.654 219.571 29.2889 219.092 28.8358 218.707C27.8906 217.864 22.9121 215.769 22.4425 217.503C21.9248 219.429 27.0177 223.173 30.2986 221.831Z" fill="#007C97" stroke="#263238" stroke-linejoin="round"/>
<path d="M30.2987 221.831L25.5609 218.881" stroke="#263238" stroke-linecap="round" stroke-linejoin="round"/>
<path d="M33.4592 233.088L30.106 229.519" stroke="#263238" stroke-linecap="round" stroke-linejoin="round"/>
<path d="M31.2257 230.686C31.2185 230.09 31.0837 229.502 30.8304 228.962C30.577 228.422 30.211 227.943 29.7569 227.556C28.8117 226.713 23.8332 224.618 23.3636 226.352C22.876 228.284 27.9448 232.023 31.2257 230.686Z" fill="#007C97" stroke="#263238" stroke-linejoin="round"/>
<path d="M31.2257 230.686L26.488 227.737" stroke="#263238" stroke-linecap="round" stroke-linejoin="round"/>
<path d="M31.0331 209.701L27.6799 206.281" stroke="#263238" stroke-linecap="round" stroke-linejoin="round"/>
<path d="M28.7996 207.449C28.7916 206.854 28.6564 206.267 28.403 205.728C28.1497 205.189 27.7841 204.711 27.3308 204.325C26.3856 203.482 21.4131 201.387 20.9375 203.121C20.4258 205.047 25.5187 208.786 28.7996 207.449Z" fill="#007C97" stroke="#263238" stroke-linejoin="round"/>
<path d="M28.7996 207.449L24.0619 204.5" stroke="#263238" stroke-linecap="round" stroke-linejoin="round"/>
<path d="M29.4197 194.32L26.1689 191.839" stroke="#263238" stroke-linecap="round" stroke-linejoin="round"/>
<path d="M27.2886 193.001C27.2825 192.406 27.1487 191.819 26.8964 191.28C26.644 190.741 26.2789 190.263 25.8258 189.877C24.8806 189.034 19.9021 186.939 19.4325 188.673C18.9148 190.599 24.0077 194.344 27.2886 193.001Z" fill="#007C97" stroke="#263238" stroke-linejoin="round"/>
<path d="M27.2886 193.001L22.5509 190.052" stroke="#263238" stroke-linecap="round" stroke-linejoin="round"/>
<path d="M34.5006 240.926L37.2999 236.357" stroke="#263238" stroke-linecap="round" stroke-linejoin="round"/>
<path d="M36.445 237.73C36.3297 237.146 36.3404 236.544 36.4764 235.965C36.6124 235.386 36.8706 234.842 37.2337 234.371C37.9862 233.347 42.4229 230.271 43.2537 231.89C44.1446 233.648 39.9306 238.392 36.445 237.73Z" fill="#007C97" stroke="#263238" stroke-linejoin="round"/>
<path d="M36.4451 237.73L39.7801 234.599" stroke="#263238" stroke-linecap="round" stroke-linejoin="round"/>
<path d="M32.0685 217.623L34.8678 213.054" stroke="#263238" stroke-linecap="round" stroke-linejoin="round"/>
<path d="M34.013 214.427C33.8976 213.843 33.9083 213.241 34.0443 212.662C34.1803 212.082 34.4385 211.539 34.8016 211.067C35.5541 210.05 39.0156 207.492 39.8464 209.105C40.7433 210.863 37.4986 215.065 34.013 214.427Z" fill="#007C97" stroke="#263238" stroke-linejoin="round"/>
<path d="M34.013 214.426L38.2812 210.351" stroke="#263238" stroke-linecap="round" stroke-linejoin="round"/>
<path d="M30.9969 207.383L33.8023 202.82" stroke="#263238" stroke-linecap="round" stroke-linejoin="round"/>
<path d="M32.9474 204.186C32.8287 203.604 32.8355 203.004 32.9673 202.424C33.0992 201.845 33.353 201.301 33.712 200.827C34.4584 199.81 38.8952 196.734 39.732 198.347C40.641 200.111 36.433 204.824 32.9474 204.186Z" fill="#007C97" stroke="#263238" stroke-linejoin="round"/>
<path d="M32.9474 204.186L37.2096 200.111" stroke="#263238" stroke-linecap="round" stroke-linejoin="round"/>
<path d="M29.4318 192.375L32.2311 187.806" stroke="#263238" stroke-linecap="round" stroke-linejoin="round"/>
<path d="M31.3762 189.179C31.2609 188.594 31.2722 187.992 31.4092 187.413C31.5463 186.833 31.806 186.29 32.1709 185.819C32.9173 184.796 37.3541 181.72 38.1909 183.339C39.0758 185.097 34.8678 189.811 31.3762 189.179Z" fill="#007C97" stroke="#263238" stroke-linejoin="round"/>
<path d="M31.3762 189.179L35.6444 185.103" stroke="#263238" stroke-linecap="round" stroke-linejoin="round"/>
<path d="M28.2338 182.773C28.1157 182.187 28.1251 181.582 28.2611 180.999C28.3972 180.416 28.6568 179.87 29.0224 179.396C29.7749 178.379 34.2117 175.302 35.0424 176.916C35.9334 178.698 31.7194 183.411 28.2338 182.773Z" fill="#007C97" stroke="#263238" stroke-linejoin="round"/>
<path d="M28.2338 182.773L32.5019 178.698" stroke="#263238" stroke-linecap="round" stroke-linejoin="round"/>
<path d="M28.4806 182.954C27.8873 183.003 27.2903 182.926 26.729 182.728C26.1676 182.53 25.6546 182.215 25.2238 181.804C24.2847 180.949 21.69 176.212 23.4178 175.567C25.2298 174.869 29.498 179.553 28.4806 182.954Z" fill="#007C97" stroke="#263238" stroke-linejoin="round"/>
<path d="M28.4806 182.954L24.8746 178.282" stroke="#263238" stroke-linecap="round" stroke-linejoin="round"/>
<path d="M40.4724 162.227V260.684" stroke="#263238" stroke-linecap="round" stroke-linejoin="round"/>
<path d="M49.7312 193.928L41.6523 271.785" stroke="#263238" stroke-linecap="round" stroke-linejoin="round"/>
<path d="M43.362 255.88L41.4898 253.743" stroke="#263238" stroke-linecap="round" stroke-linejoin="round"/>
<path d="M41.4898 253.743C41.6052 253.159 41.5945 252.558 41.4585 251.978C41.3225 251.399 41.0643 250.855 40.7012 250.384C39.9487 249.367 35.5119 246.29 34.6812 247.91C33.7902 249.668 38.0042 254.381 41.4898 253.743Z" fill="#007C97" stroke="#263238" stroke-linejoin="round"/>
<path d="M41.4898 253.743L37.4624 249.878" stroke="#263238" stroke-linecap="round" stroke-linejoin="round"/>
<path d="M45.6436 233.654L42.8684 231.337" stroke="#263238" stroke-linecap="round" stroke-linejoin="round"/>
<path d="M43.7353 232.137C43.8533 231.55 43.8434 230.945 43.7063 230.362C43.5691 229.779 43.308 229.233 42.9406 228.76C42.1881 227.737 37.7514 224.666 36.9206 226.286C36.0357 228.062 40.2497 232.775 43.7353 232.137Z" fill="#007C97" stroke="#263238" stroke-linejoin="round"/>
<path d="M43.7353 232.137L39.7079 228.272" stroke="#263238" stroke-linecap="round" stroke-linejoin="round"/>
<path d="M44.7647 244.183L41.9594 239.62" stroke="#263238" stroke-linecap="round" stroke-linejoin="round"/>
<path d="M42.8142 240.993C42.9296 240.409 42.9189 239.807 42.7829 239.228C42.6469 238.649 42.3887 238.105 42.0256 237.633C41.2731 236.61 36.8363 233.54 36.0056 235.153C35.1146 236.917 39.3286 241.625 42.8142 240.993Z" fill="#007C97" stroke="#263238" stroke-linejoin="round"/>
<path d="M42.8142 240.993L38.7868 237.128" stroke="#263238" stroke-linecap="round" stroke-linejoin="round"/>
<path d="M47.0463 219.465L44.3734 216.383" stroke="#263238" stroke-linecap="round" stroke-linejoin="round"/>
<path d="M45.2283 217.756C45.3436 217.171 45.3323 216.569 45.1952 215.99C45.0582 215.41 44.7985 214.867 44.4336 214.396C43.6811 213.373 39.2444 210.303 38.4136 211.916C37.5287 213.71 41.7427 218.388 45.2283 217.756Z" fill="#007C97" stroke="#263238" stroke-linejoin="round"/>
<path d="M45.2282 217.755L41.2009 213.891" stroke="#263238" stroke-linecap="round" stroke-linejoin="round"/>
<path d="M48.455 205.944L45.8724 201.935" stroke="#263238" stroke-linecap="round" stroke-linejoin="round"/>
<path d="M46.7272 203.308C46.8425 202.723 46.8313 202.121 46.6942 201.542C46.5571 200.962 46.2974 200.419 45.9326 199.948C45.1801 198.925 40.7433 195.855 39.9126 197.468C39.0276 199.262 43.2416 203.94 46.7272 203.308Z" fill="#007C97" stroke="#263238" stroke-linejoin="round"/>
<path d="M46.7272 203.307L42.6998 199.443" stroke="#263238" stroke-linecap="round" stroke-linejoin="round"/>
<path d="M43.9099 251.684L47.5941 247.789" stroke="#263238" stroke-linecap="round" stroke-linejoin="round"/>
<path d="M46.4744 248.957C46.4805 248.362 46.6143 247.775 46.8666 247.236C47.119 246.697 47.4841 246.219 47.9372 245.833C48.8824 244.99 53.8609 242.889 54.3305 244.629C54.8482 246.549 49.7553 250.294 46.4744 248.957Z" fill="#007C97" stroke="#263238" stroke-linejoin="round"/>
<path d="M46.4744 248.957L51.489 245.845" stroke="#263238" stroke-linecap="round" stroke-linejoin="round"/>
<path d="M46.3299 228.381L50.0141 224.492" stroke="#263238" stroke-linecap="round" stroke-linejoin="round"/>
<path d="M48.8944 225.654C48.9009 225.059 49.0349 224.472 49.2872 223.933C49.5396 223.394 49.9044 222.915 50.3573 222.529C51.3024 221.687 56.2749 219.592 56.7505 221.325C57.2622 223.246 52.1753 226.996 48.8944 225.654Z" fill="#007C97" stroke="#263238" stroke-linejoin="round"/>
<path d="M48.8944 225.654L53.9091 222.547" stroke="#263238" stroke-linecap="round" stroke-linejoin="round"/>
<path d="M47.3954 218.141L51.0737 214.252" stroke="#263238" stroke-linecap="round" stroke-linejoin="round"/>
<path d="M49.9659 215.42C49.9755 214.824 50.1113 214.237 50.3645 213.697C50.6177 213.157 50.9825 212.678 51.4348 212.289C52.3739 211.447 57.3525 209.352 57.822 211.085C58.3277 213.006 53.2348 216.756 49.9659 215.42Z" fill="#007C97" stroke="#263238" stroke-linejoin="round"/>
<path d="M49.9539 215.42L54.9686 212.307" stroke="#263238" stroke-linecap="round" stroke-linejoin="round"/>
<path d="M48.9064 202.362L52.6328 199.238" stroke="#263238" stroke-linecap="round" stroke-linejoin="round"/>
<path d="M51.5131 200.406C51.5193 199.811 51.653 199.224 51.9054 198.685C52.1578 198.146 52.5228 197.667 52.976 197.282C53.9211 196.433 58.8997 194.338 59.3692 196.078C59.8869 197.998 54.782 201.742 51.5131 200.406Z" fill="#007C97" stroke="#263238" stroke-linejoin="round"/>
<path d="M51.5131 200.406L56.5278 197.293" stroke="#263238" stroke-linejoin="round"/>
<path d="M49.7552 193.495C49.7617 192.899 49.8956 192.311 50.1479 191.771C50.4002 191.232 50.7651 190.752 51.2181 190.365C52.1632 189.522 57.1358 187.427 57.6113 189.161C58.1291 191.087 53.0361 194.831 49.7552 193.495Z" fill="#007C97" stroke="#263238" stroke-linejoin="round"/>
<path d="M49.7552 193.495L54.7699 190.383" stroke="#263238" stroke-linecap="round" stroke-linejoin="round"/>
<path d="M49.9659 193.718C49.3734 193.643 48.8035 193.444 48.2939 193.132C47.7843 192.821 47.3467 192.405 47.0101 191.912C46.2697 190.888 44.7105 185.717 46.4984 185.434C48.4429 185.139 51.6335 190.593 49.9659 193.718Z" fill="#007C97" stroke="#263238" stroke-linejoin="round"/>
<path d="M49.9599 193.718L47.3894 188.402" stroke="#263238" stroke-linecap="round" stroke-linejoin="round"/>
<path d="M40.34 245.7L37.2939 241.625" stroke="#263238" stroke-linecap="round" stroke-linejoin="round"/>
<path d="M38.2872 242.901C38.3415 242.308 38.2681 241.711 38.0718 241.149C37.8755 240.587 37.561 240.074 37.1494 239.644C36.3006 238.705 31.5688 236.104 30.9127 237.802C30.2083 239.644 34.916 243.894 38.2872 242.901Z" fill="#007C97" stroke="#263238" stroke-linejoin="round"/>
<path d="M38.2872 242.901L33.8806 239.476" stroke="#263238" stroke-linecap="round" stroke-linejoin="round"/>
<path d="M40.4484 226.063L37.2939 223.125" stroke="#263238" stroke-linecap="round" stroke-linejoin="round"/>
<path d="M38.2872 224.402C38.3416 223.808 38.2682 223.21 38.072 222.647C37.8757 222.084 37.5611 221.57 37.1494 221.139C36.3006 220.2 31.5688 217.605 30.9127 219.297C30.2083 221.139 34.916 225.389 38.2872 224.402Z" fill="#007C97" stroke="#263238" stroke-linejoin="round"/>
<path d="M38.2872 224.402L33.8806 220.97" stroke="#263238" stroke-linecap="round" stroke-linejoin="round"/>
<path d="M40.5507 205.655L37.2939 201.399" stroke="#263238" stroke-linecap="round" stroke-linejoin="round"/>
<path d="M38.2872 202.675C38.3415 202.083 38.2681 201.485 38.0718 200.923C37.8755 200.362 37.561 199.848 37.1494 199.419C36.3006 198.479 31.5688 195.879 30.9127 197.576C30.2083 199.419 34.916 203.669 38.2872 202.675Z" fill="#007C97" stroke="#263238" stroke-linejoin="round"/>
<path d="M38.2872 202.675L33.8806 199.25" stroke="#263238" stroke-linecap="round" stroke-linejoin="round"/>
<path d="M40.34 189.684L37.2939 186.939" stroke="#263238" stroke-linecap="round" stroke-linejoin="round"/>
<path d="M38.2872 188.215C38.3415 187.623 38.2681 187.025 38.0718 186.464C37.8755 185.902 37.561 185.389 37.1494 184.959C36.3006 184.02 31.5688 181.419 30.9127 183.117C30.2083 184.959 34.916 189.209 38.2872 188.215Z" fill="#007C97" stroke="#263238" stroke-linejoin="round"/>
<path d="M38.2872 188.215L33.8806 184.79" stroke="#263238" stroke-linecap="round" stroke-linejoin="round"/>
<path d="M40.5146 175.218L37.3541 172.9" stroke="#263238" stroke-linecap="round" stroke-linejoin="round"/>
<path d="M38.2872 173.689C38.3415 173.096 38.2681 172.499 38.0718 171.937C37.8755 171.375 37.561 170.862 37.1494 170.432C36.3006 169.493 31.5688 166.893 30.9127 168.59C30.2083 170.432 34.916 174.682 38.2872 173.689Z" fill="#007C97" stroke="#263238" stroke-linejoin="round"/>
<path d="M38.2872 173.689L33.8806 170.264" stroke="#263238" stroke-linecap="round" stroke-linejoin="round"/>
<path d="M41.1105 250.613L43.7413 247.278" stroke="#263238" stroke-linecap="round" stroke-linejoin="round"/>
<path d="M42.742 248.554C42.6894 247.961 42.7632 247.363 42.9582 246.801C43.1533 246.239 43.4653 245.724 43.8737 245.291C44.7286 244.352 49.4603 241.757 50.1104 243.449C50.8268 245.291 46.1493 249.547 42.742 248.554Z" fill="#007C97" stroke="#263238" stroke-linejoin="round"/>
<path d="M42.748 248.554L47.4135 244.942" stroke="#263238" stroke-linecap="round" stroke-linejoin="round"/>
<path d="M40.4785 222.102L43.7413 217.852" stroke="#263238" stroke-linecap="round" stroke-linejoin="round"/>
<path d="M42.742 219.128C42.6894 218.535 42.7632 217.938 42.9582 217.375C43.1533 216.813 43.4653 216.298 43.8737 215.865C44.7286 214.926 49.4603 212.332 50.1104 214.023C50.8268 215.865 46.1493 220.115 42.742 219.128Z" fill="#007C97" stroke="#263238" stroke-linejoin="round"/>
<path d="M42.748 219.128L47.4135 215.51" stroke="#263238" stroke-linecap="round" stroke-linejoin="round"/>
<path d="M40.4785 207.576L43.7413 203.326" stroke="#263238" stroke-linecap="round" stroke-linejoin="round"/>
<path d="M42.742 204.602C42.6894 204.009 42.7632 203.411 42.9582 202.849C43.1533 202.287 43.4653 201.772 43.8737 201.339C44.7286 200.406 49.4603 197.805 50.1104 199.497C50.8268 201.339 46.1493 205.595 42.742 204.602Z" fill="#007C97" stroke="#263238" stroke-linejoin="round"/>
<path d="M42.748 204.602L47.4135 200.99" stroke="#263238" stroke-linecap="round" stroke-linejoin="round"/>
<path d="M40.4785 188.378L43.7413 184.128" stroke="#263238" stroke-linecap="round" stroke-linejoin="round"/>
<path d="M42.742 185.416C42.6894 184.823 42.7632 184.226 42.9582 183.663C43.1533 183.101 43.4653 182.586 43.8737 182.153C44.7286 181.22 49.4603 178.619 50.1104 180.311C50.8268 182.141 46.1493 186.397 42.742 185.416Z" fill="#007C97" stroke="#263238" stroke-linejoin="round"/>
<path d="M42.748 185.404L47.4135 181.792" stroke="#263238" stroke-linecap="round" stroke-linejoin="round"/>
<path d="M40.6229 171.811L43.8195 169.319" stroke="#263238" stroke-linecap="round" stroke-linejoin="round"/>
<path d="M42.742 170.312C42.6894 169.719 42.7632 169.122 42.9582 168.559C43.1533 167.997 43.4653 167.482 43.8737 167.049C44.7286 166.116 49.4603 163.515 50.1104 165.207C50.8268 167.049 46.1493 171.305 42.742 170.312Z" fill="#007C97" stroke="#263238" stroke-linejoin="round"/>
<path d="M42.748 170.312L47.4135 166.7" stroke="#263238" stroke-linecap="round" stroke-linejoin="round"/>
<path d="M40.2858 163.618C40.2333 163.025 40.307 162.427 40.5021 161.865C40.6972 161.303 41.0092 160.788 41.4176 160.355C42.2724 159.422 47.0042 156.821 47.6543 158.513C48.3647 160.355 43.6871 164.611 40.2858 163.618Z" fill="#007C97" stroke="#263238" stroke-linejoin="round"/>
<path d="M40.2858 163.618L44.9513 160.006" stroke="#263238" stroke-linecap="round" stroke-linejoin="round"/>
<path d="M40.5146 163.816C39.9192 163.808 39.3324 163.673 38.7935 163.42C38.2547 163.166 37.7762 162.801 37.3902 162.347C36.5474 161.402 34.4584 156.424 36.1862 155.954C38.1186 155.442 41.857 160.541 40.5146 163.816Z" fill="#007C97" stroke="#263238" stroke-linejoin="round"/>
<path d="M40.5146 163.816L37.4083 158.802" stroke="#263238" stroke-linecap="round" stroke-linejoin="round"/>
<path d="M44.5239 286.215H34.0973L32.7969 259.884H45.8302L44.5239 286.215Z" fill="#263238" stroke="#263238" stroke-linecap="round" stroke-linejoin="round"/>
<path d="M167.049 172.666L171.648 184.17H159.53V186.241H185.687L178.926 172.569L167.049 172.666Z" fill="white" stroke="#263238" stroke-linejoin="round"/>
<path d="M165.935 172.666L170.541 184.17H158.416V186.241H184.573L177.813 172.569L165.935 172.666Z" fill="white" stroke="#263238" stroke-linejoin="round"/>
<path d="M204.602 172.774H139.411C139.115 172.773 138.822 172.713 138.549 172.596C138.277 172.479 138.031 172.309 137.826 172.094C137.622 171.88 137.462 171.627 137.358 171.349C137.254 171.072 137.207 170.776 137.22 170.48L139.345 121.267C139.374 120.608 139.657 119.985 140.133 119.529C140.61 119.073 141.244 118.818 141.903 118.817H207.088C207.399 118.817 207.707 118.881 207.994 119.003C208.28 119.126 208.538 119.305 208.754 119.53C208.969 119.754 209.137 120.021 209.247 120.312C209.357 120.603 209.407 120.914 209.394 121.225L207.281 170.185C207.248 170.877 206.953 171.53 206.455 172.012C205.957 172.493 205.294 172.765 204.602 172.774Z" fill="white" stroke="#263238" stroke-linejoin="round"/>
<path d="M201.267 172.774H136.052C135.755 172.774 135.462 172.714 135.189 172.598C134.916 172.481 134.67 172.311 134.465 172.096C134.26 171.882 134.101 171.628 133.997 171.35C133.893 171.073 133.847 170.777 133.861 170.48L135.986 121.267C136.014 120.607 136.296 119.984 136.772 119.527C137.249 119.071 137.884 118.816 138.544 118.817H203.777C204.088 118.817 204.396 118.881 204.683 119.003C204.969 119.126 205.227 119.305 205.443 119.53C205.658 119.754 205.826 120.021 205.936 120.312C206.046 120.603 206.096 120.914 206.083 121.225L203.964 170.185C203.934 170.881 203.637 171.539 203.135 172.021C202.632 172.503 201.963 172.773 201.267 172.774Z" fill="#263238" stroke="#263238" stroke-linejoin="round"/>
<path d="M201.194 161.505H137.419L139.164 121.074H202.94L201.194 161.505Z" fill="white" stroke="#263238" stroke-linejoin="round"/>
<path d="M162.588 138.496C162.647 137.409 162.472 136.322 162.075 135.308C161.679 134.294 161.07 133.377 160.289 132.618C159.508 131.859 158.573 131.277 157.548 130.91C156.524 130.542 155.432 130.399 154.347 130.489C152.416 130.645 150.597 131.454 149.187 132.783C147.778 134.111 146.863 135.88 146.593 137.798C146.449 138.826 146.514 139.872 146.784 140.874C147.054 141.877 147.524 142.814 148.164 143.631C149.29 145.066 149.859 146.86 149.766 148.682L149.717 149.783H158.392L158.44 148.682C158.532 146.816 159.256 145.037 160.493 143.637C161.755 142.211 162.493 140.398 162.588 138.496Z" fill="white" stroke="#263238" stroke-linecap="round" stroke-linejoin="round"/>
<path d="M158.296 151.933H149.621L149.717 149.783H158.392L158.296 151.933Z" fill="white" stroke="#263238" stroke-linecap="round" stroke-linejoin="round"/>
<path d="M156.056 154.112H151.668C151.39 154.114 151.114 154.059 150.858 153.951C150.602 153.842 150.371 153.682 150.179 153.481C149.987 153.279 149.839 153.041 149.743 152.78C149.647 152.519 149.605 152.241 149.621 151.963H158.326C158.297 152.544 158.044 153.092 157.622 153.492C157.199 153.892 156.639 154.114 156.056 154.112Z" fill="white" stroke="#263238" stroke-linecap="round" stroke-linejoin="round"/>
<path d="M154.865 156.225H152.667C152.389 156.227 152.113 156.172 151.857 156.063C151.601 155.955 151.37 155.795 151.178 155.593C150.987 155.392 150.838 155.153 150.742 154.892C150.646 154.631 150.605 154.353 150.62 154.076H157.122C157.093 154.655 156.842 155.201 156.422 155.601C156.002 156.001 155.444 156.224 154.865 156.225Z" fill="white" stroke="#263238" stroke-linecap="round" stroke-linejoin="round"/>
<path d="M163.726 138.538H167.398" stroke="#263238" stroke-linecap="round" stroke-linejoin="round"/>
<path d="M141.368 138.538H145.094" stroke="#263238" stroke-linecap="round" stroke-linejoin="round"/>
<path d="M154.804 129.207L154.967 125.523" stroke="#263238" stroke-linecap="round" stroke-linejoin="round"/>
<path d="M161.348 131.874L163.997 129.333" stroke="#263238" stroke-linecap="round" stroke-linejoin="round"/>
<path d="M144.769 147.743L147.46 145.166" stroke="#263238" stroke-linecap="round" stroke-linejoin="round"/>
<path d="M147.948 131.802L145.594 129.333" stroke="#263238" stroke-linecap="round" stroke-linejoin="round"/>
<path d="M163.178 147.743L160.83 145.287" stroke="#263238" stroke-linecap="round" stroke-linejoin="round"/>
<path d="M192.64 138.496C192.7 137.409 192.526 136.322 192.13 135.308C191.734 134.294 191.125 133.377 190.345 132.618C189.564 131.86 188.63 131.277 187.605 130.91C186.581 130.542 185.489 130.399 184.405 130.489C182.474 130.644 180.654 131.453 179.244 132.782C177.834 134.11 176.92 135.879 176.651 137.798C176.506 138.825 176.57 139.872 176.839 140.874C177.108 141.876 177.576 142.814 178.216 143.631C179.341 145.067 179.911 146.86 179.823 148.682L179.769 149.783H188.45L188.498 148.682C188.59 146.816 189.314 145.037 190.551 143.637C191.813 142.212 192.55 140.398 192.64 138.496Z" fill="#263238" stroke="white" stroke-linecap="round" stroke-linejoin="round"/>
<path d="M188.378 151.933H179.697L179.793 149.783H188.474L188.378 151.933Z" fill="#263238" stroke="white" stroke-linecap="round" stroke-linejoin="round"/>
<path d="M186.132 154.112H181.75C181.471 154.114 181.196 154.059 180.939 153.951C180.683 153.842 180.451 153.682 180.259 153.481C180.067 153.28 179.918 153.041 179.821 152.78C179.724 152.519 179.682 152.241 179.697 151.963H188.378C188.347 152.54 188.098 153.083 187.681 153.482C187.264 153.881 186.71 154.107 186.132 154.112Z" fill="#263238" stroke="white" stroke-linecap="round" stroke-linejoin="round"/>
<path d="M184.946 156.225H182.749C182.471 156.227 182.195 156.172 181.939 156.063C181.682 155.955 181.451 155.795 181.259 155.594C181.066 155.392 180.917 155.154 180.82 154.893C180.724 154.632 180.682 154.354 180.696 154.076H187.186C187.155 154.651 186.907 155.194 186.491 155.593C186.075 155.992 185.523 156.218 184.946 156.225Z" fill="#263238" stroke="white" stroke-linecap="round" stroke-linejoin="round"/>
<path d="M193.802 138.538H197.48" stroke="#263238" stroke-linecap="round" stroke-linejoin="round"/>
<path d="M171.45 138.538H175.176" stroke="#263238" stroke-linecap="round" stroke-linejoin="round"/>
<path d="M184.88 129.207L185.049 125.523" stroke="#263238" stroke-linecap="round" stroke-linejoin="round"/>
<path d="M191.43 131.874L194.079 129.333" stroke="#263238" stroke-linecap="round" stroke-linejoin="round"/>
<path d="M174.851 147.743L177.542 145.166" stroke="#263238" stroke-linecap="round" stroke-linejoin="round"/>
<path d="M178.029 131.802L175.676 129.333" stroke="#263238" stroke-linecap="round" stroke-linejoin="round"/>
<path d="M193.254 147.743L190.912 145.287" stroke="#263238" stroke-linecap="round" stroke-linejoin="round"/>
<path d="M201.267 172.774H136.052C135.755 172.774 135.462 172.714 135.189 172.598C134.916 172.481 134.67 172.311 134.465 172.096C134.26 171.882 134.101 171.628 133.997 171.35C133.893 171.073 133.847 170.777 133.861 170.48L134.132 164.153H204.204L203.94 170.173C203.913 170.867 203.621 171.524 203.123 172.008C202.626 172.493 201.961 172.767 201.267 172.774Z" fill="white" stroke="#263238" stroke-linejoin="round"/>
<path d="M221.608 187.794H188.071V286.227H221.608V187.794Z" fill="#263238" stroke="#263238" stroke-linejoin="round"/>
<path d="M223.794 187.794H190.256V286.227H223.794V187.794Z" fill="#7D7D7D" stroke="#263238" stroke-linejoin="round"/>
<path d="M223.794 187.794H190.256V192.959H223.794V187.794Z" fill="#263238" stroke="#263238" stroke-linejoin="round"/>
<path d="M124.999 187.794H91.4619V286.227H124.999V187.794Z" fill="#263238" stroke="#263238" stroke-linejoin="round"/>
<path d="M127.185 187.794H93.6471V286.227H127.185V187.794Z" fill="#7D7D7D" stroke="#263238" stroke-linejoin="round"/>
<path d="M232.33 186.024H86.7181V189.359H232.33V186.024Z" fill="#263238" stroke="#263238" stroke-linejoin="round"/>
<path d="M232.33 186.024H188.51V189.359H232.33V186.024Z" fill="white" stroke="#263238" stroke-linejoin="round"/>
<path d="M178.192 186.018L178.126 185.843C177.608 184.523 176.704 183.39 175.533 182.591C174.361 181.792 172.976 181.365 171.558 181.365H168.771C167.561 181.368 166.371 181.682 165.317 182.276C164.263 182.871 163.379 183.726 162.751 184.76L161.938 186.018H178.192Z" fill="white" stroke="#263238" stroke-linejoin="round"/>
<path d="M119.196 111.767C119.196 111.767 119.196 112.219 119.196 112.881C119.154 114.518 119.082 117.468 119.082 118.167C119.082 119.136 117.553 120.526 117.553 121.502C117.553 122.477 118.389 125.535 118.666 126.504C118.943 127.473 116.162 128.31 116.162 128.31C116.162 128.31 114.91 132.903 113.104 134.011C111.298 135.119 107.686 134.011 106.987 133.873C106.289 133.734 104.068 133.042 104.068 133.042L103.929 140.127L92.389 135.402L93.2679 127.636L93.3642 126.781C93.3642 126.781 93.7796 120.249 93.2258 117.053C92.2505 111.46 94.4779 104.26 103.093 102.454C105.793 101.854 108.605 102.003 111.227 102.885C113.848 103.766 116.179 105.347 117.968 107.457C118.931 108.709 119.196 111.767 119.196 111.767Z" fill="white" stroke="#263238" stroke-linejoin="round"/>
<path d="M105.308 118.859L120.599 120.388" stroke="#263238" stroke-linejoin="round"/>
<path d="M118.377 119.696L121.297 119.973C121.297 119.973 120.876 123.862 117.956 123.862" stroke="#263238" stroke-linejoin="round"/>
<path d="M114.482 129.147C114.482 129.147 113.23 129.286 112.399 127.203" stroke="#263238" stroke-linejoin="round"/>
<path d="M116.848 120.388L116.011 122.194" stroke="#263238" stroke-linejoin="round"/>
<path d="M116.011 118.443C116.011 118.443 116.987 116.914 118.516 118.859" stroke="#263238" stroke-linejoin="round"/>
<path d="M119.196 111.767C119.196 111.767 119.196 112.219 119.196 112.881L118.991 112.688C118.991 112.688 115.187 109.233 112.592 108.715C109.997 108.197 110.69 111.996 111.213 112.688C111.737 113.381 115.187 114.759 113.453 115.975C111.719 117.191 110.172 118.221 110.172 118.221L109.076 121.147C108.978 121.411 108.803 121.641 108.573 121.806C108.344 121.971 108.071 122.065 107.788 122.074C107.506 122.084 107.227 122.01 106.987 121.86C106.747 121.711 106.556 121.494 106.44 121.237C105.976 120.213 105.031 118.167 104.634 117.522C104.116 116.662 100.697 117.829 101.022 121.134C101.042 121.748 101.218 122.347 101.534 122.874C101.85 123.4 102.296 123.838 102.828 124.144C102.828 124.144 104.489 125.288 100.691 127.708C96.8919 130.128 95.5073 130.471 93.605 128.057C93.5027 127.931 93.4003 127.787 93.2859 127.624L93.3822 126.769C93.3822 126.769 93.7976 120.237 93.2438 117.041C92.2685 111.448 94.4959 104.248 103.111 102.442C105.811 101.842 108.623 101.991 111.245 102.873C113.866 103.754 116.197 105.335 117.986 107.445C118.931 108.709 119.196 111.767 119.196 111.767Z" fill="#263238" stroke="#263238" stroke-linejoin="round"/>
<path d="M151.668 273.109C151.668 273.109 157.417 275.144 160.752 274.964C164.087 274.783 166.682 273.29 167.428 274.59C168.175 275.891 166.682 277.925 166.315 278.666C165.947 279.406 158.711 281.266 156.303 282.374C153.895 283.482 147.592 285.529 144.998 285.896C142.403 286.263 141.289 279.593 141.289 279.593L151.668 273.109Z" fill="white" stroke="#263238" stroke-linejoin="round"/>
<path d="M153.335 281.447C149.856 282.542 146.324 283.46 142.752 284.198C143.318 285.252 144.059 286.034 144.998 285.896C147.592 285.529 153.895 283.488 156.303 282.374C158.711 281.26 165.935 279.412 166.315 278.666C166.694 277.919 168.169 275.891 167.428 274.59C164.647 279.966 159.085 279.593 153.335 281.447Z" fill="white" stroke="#263238" stroke-linejoin="round"/>
<path d="M127.57 222.313L141.289 279.593C143.269 279.402 145.207 278.903 147.032 278.112C150 276.812 150.927 276.071 151.668 275.144C152.408 274.217 151.481 271.069 151.481 270.515C151.481 269.961 149.814 269.214 149.814 269.214L144.624 219.905L127.57 222.313Z" fill="#263238" stroke="#263238" stroke-linejoin="round"/>
<path d="M139.207 274.663C139.207 274.663 141.434 278.184 143.469 279.298C145.503 280.412 147.364 281.152 148.477 281.152C149.591 281.152 150.518 283.38 150.699 284.12C150.822 284.73 150.884 285.351 150.885 285.974H133.831C133.831 285.974 123.452 284.674 122.525 282.266C121.598 279.858 128.641 270.774 128.641 270.774L139.207 274.663Z" fill="white" stroke="#263238" stroke-linejoin="round"/>
<path d="M150.771 284.481C146.78 284.439 137.834 284.252 133.463 283.379C129.826 282.589 126.232 281.614 122.694 280.46C122.447 281.029 122.388 281.661 122.525 282.266C123.452 284.674 133.831 285.974 133.831 285.974H150.885C150.882 285.474 150.844 284.975 150.771 284.481Z" fill="white" stroke="#263238" stroke-linejoin="round"/>
<path d="M113.327 196.764L118.516 201.393C118.516 201.393 140.946 203.067 148.73 203.434C156.514 203.801 161.703 206.028 161.523 209.737C161.342 213.445 139.7 271.634 139.7 271.634L139.67 275.03C139.67 275.03 138.743 275.957 134.667 275.03C132.292 274.513 130.031 273.571 127.991 272.248C127.991 272.248 127.251 268.727 129.105 267.246C130.959 265.765 132.976 256.639 132.976 256.639L140.573 219.917H84.0332C81.98 213.253 81.5995 206.186 82.9255 199.34C82.9255 199.34 102.575 203.067 113.327 196.764Z" fill="#263238" stroke="#263238" stroke-linejoin="round"/>
<path d="M106.133 141.163C103.282 139.073 100.313 137.149 97.2411 135.402C92.3588 132.651 91.2211 134.029 88.7288 135.528C86.2365 137.027 75.2018 144.173 74.3289 146.551C73.456 148.929 74.3289 151.933 74.3289 151.933C74.3289 151.933 78.5851 178.234 79.7108 188.751C80.8366 199.268 84.0934 204.529 90.9803 205.282C97.8671 206.034 108.763 202.272 111.647 200.647C114.53 199.021 114.777 199.647 114.524 196.517C114.272 193.386 111.514 182.237 111.141 179.733C110.768 177.229 111.021 171.594 111.021 171.594C111.021 171.594 113.646 158.952 111.623 152.059C110.534 148.099 108.668 144.395 106.133 141.163Z" fill="#007C97" stroke="#263238" stroke-linejoin="round"/>
<path d="M141.175 176.001L161.336 180.173C161.336 180.173 167.175 176.976 168.704 176.831C170.234 176.687 173.569 179.197 174.267 179.474C174.965 179.751 175.658 180.865 175.935 181.84C176.211 182.815 177.325 182.532 176.35 183.369C175.375 184.206 174.129 182.532 174.129 182.532C174.129 182.532 171.347 182.671 169.818 183.508C168.289 184.344 166.339 185.591 164.256 185.874C162.668 185.991 161.072 185.848 159.53 185.452L139.092 183.923C139.092 183.923 141.873 179.474 141.175 176.001Z" fill="white" stroke="#263238" stroke-linejoin="round"/>
<path d="M170.926 181.003C170.926 181.003 172.599 180.45 173.707 180.865C174.815 181.28 175.935 181.84 175.935 181.84" stroke="#263238" stroke-linejoin="round"/>
<path d="M105.675 168.963L99.8176 167.597" stroke="#263238" stroke-linejoin="round"/>
<path d="M104.194 140.826C104.194 140.826 107.951 141.663 110.31 144.023C112.67 146.382 128.804 170.023 129.358 170.438C129.912 170.854 138.388 175.302 138.388 175.302C138.388 175.302 139.086 179.336 137.834 180.72C136.582 182.105 133.524 183.917 133.524 183.917C133.524 183.917 126.017 183.086 123.651 182.526C121.285 181.967 99.8778 164.593 99.8778 164.593" fill="#007C97"/>
<path d="M104.194 140.826C104.194 140.826 107.951 141.663 110.31 144.023C112.67 146.382 128.804 170.023 129.358 170.438C129.912 170.854 138.388 175.302 138.388 175.302C138.388 175.302 139.086 179.336 137.834 180.72C136.582 182.105 133.524 183.917 133.524 183.917C133.524 183.917 126.017 183.086 123.651 182.526C121.285 181.967 99.8778 164.593 99.8778 164.593" stroke="#263238" stroke-linejoin="round"/>
<path d="M125.294 172.172C126.131 172.208 126.986 172.226 127.865 172.226" stroke="#263238" stroke-linejoin="round"/>
<path d="M109.642 169.451C114.027 170.84 118.558 171.71 123.145 172.046" stroke="#263238" stroke-linejoin="round"/>
<path d="M134.92 173.219C134.92 173.219 136.311 176.976 135.059 179.613C134.226 181.284 133.041 182.755 131.585 183.923C131.585 183.923 137.978 185.037 139.231 185.037C140.483 185.037 142.704 179.619 142.566 176.831C142.427 174.044 134.92 173.219 134.92 173.219Z" fill="white" stroke="#263238" stroke-linejoin="round"/>
<path d="M140.573 219.935C144.579 218.742 148.345 216.86 151.704 214.372" stroke="#878787" stroke-linejoin="round"/>
<path d="M144.095 219.008C144.095 219.008 149.471 218.267 152.438 216.226" stroke="#878787" stroke-linejoin="round"/>
<path d="M115.656 220.434C115.656 220.434 100.287 195.391 96.2659 160.457C95.3147 152.198 88.6867 145.967 80.7945 145.967C71.4815 145.967 64.2455 154.534 65.311 164.298C66.9785 179.553 70.6688 201.803 78.7717 221.042L115.656 220.434Z" fill="white" stroke="#263238" stroke-linejoin="round"/>
<path d="M113.525 220.434C113.525 220.434 98.1561 195.391 94.1347 160.457C93.1836 152.198 86.5556 145.967 78.6633 145.967C69.3504 145.967 62.1144 154.534 63.1799 164.298C64.8474 179.553 68.5377 201.803 76.6406 221.042L113.525 220.434Z" fill="#263238" stroke="#263238" stroke-linejoin="round"/>
<path d="M114.133 225.172H106.464V267.168H114.133V225.172Z" fill="#263238" stroke="#263238" stroke-linejoin="round"/>
<path d="M116.511 259.685H103.544V268.998H116.511V259.685Z" fill="#263238" stroke="#263238" stroke-linejoin="round"/>
<path d="M103.725 264.435L79.4399 279.406V282.145H81.8118V280.315L103.544 268.998L103.725 264.435Z" fill="white" stroke="#263238" stroke-linejoin="round"/>
<path d="M85.484 282.693C85.484 282.043 85.2912 281.408 84.9301 280.867C84.5689 280.327 84.0555 279.905 83.4549 279.656C82.8543 279.408 82.1934 279.343 81.5558 279.469C80.9182 279.596 80.3326 279.909 79.8729 280.369C79.4132 280.829 79.1001 281.414 78.9733 282.052C78.8465 282.69 78.9116 283.35 79.1604 283.951C79.4091 284.552 79.8304 285.065 80.371 285.426C80.9115 285.787 81.547 285.98 82.1971 285.98C82.6287 285.98 83.0561 285.895 83.4549 285.73C83.8537 285.565 84.2161 285.323 84.5213 285.017C84.8265 284.712 85.0686 284.35 85.2338 283.951C85.399 283.552 85.484 283.125 85.484 282.693Z" fill="#263238" stroke="#263238" stroke-linejoin="round"/>
<path d="M116.505 264.435L140.79 279.406V282.145H138.418V280.315L116.686 268.998L116.505 264.435Z" fill="white" stroke="#263238" stroke-linejoin="round"/>
<path d="M134.764 282.693C134.764 282.043 134.957 281.408 135.318 280.867C135.679 280.327 136.192 279.905 136.793 279.656C137.393 279.408 138.054 279.343 138.692 279.469C139.329 279.596 139.915 279.909 140.375 280.369C140.835 280.829 141.148 281.414 141.274 282.052C141.401 282.69 141.336 283.35 141.087 283.951C140.839 284.552 140.417 285.065 139.877 285.426C139.336 285.787 138.701 285.98 138.051 285.98C137.179 285.98 136.343 285.634 135.726 285.017C135.11 284.401 134.764 283.565 134.764 282.693Z" fill="#263238" stroke="#263238" stroke-linejoin="round"/>
<path d="M107.012 282.693C107.012 282.043 107.204 281.408 107.565 280.867C107.927 280.327 108.44 279.905 109.041 279.656C109.641 279.408 110.302 279.343 110.94 279.469C111.577 279.596 112.163 279.909 112.623 280.369C113.082 280.829 113.395 281.414 113.522 282.052C113.649 282.69 113.584 283.35 113.335 283.951C113.086 284.552 112.665 285.065 112.125 285.426C111.584 285.787 110.949 285.98 110.298 285.98C109.867 285.981 109.439 285.896 109.04 285.731C108.641 285.567 108.278 285.325 107.972 285.019C107.667 284.714 107.425 284.351 107.26 283.952C107.095 283.553 107.011 283.125 107.012 282.693Z" fill="#263238" stroke="#263238" stroke-linejoin="round"/>
<path d="M111.214 264.248H109.203V279.406H111.214V264.248Z" fill="white" stroke="#263238" stroke-linejoin="round"/>
<path d="M129.221 198.35L124.034 220.222L127.824 221.121L133.011 199.249L129.221 198.35Z" fill="white" stroke="#263238" stroke-linejoin="round"/>
<path d="M140.573 194.723H118.329C116.793 194.723 115.548 195.968 115.548 197.504C115.548 199.04 116.793 200.285 118.329 200.285H140.573C142.109 200.285 143.354 199.04 143.354 197.504C143.354 195.968 142.109 194.723 140.573 194.723Z" fill="#263238" stroke="#263238" stroke-linejoin="round"/>
<path d="M140.386 226.791H78.2901C77.4056 226.791 76.5573 226.44 75.9318 225.815C75.3064 225.189 74.955 224.341 74.955 223.456C74.955 222.571 75.3062 221.722 75.9315 221.096C76.5567 220.47 77.405 220.117 78.2901 220.115H140.386C141.272 220.117 142.121 220.469 142.747 221.096C143.373 221.722 143.726 222.571 143.728 223.456C143.726 224.341 143.373 225.19 142.747 225.815C142.12 226.44 141.271 226.791 140.386 226.791Z" fill="#263238" stroke="#263238" stroke-linejoin="round"/>
<path d="M140.386 226.791H113.507C112.623 226.791 111.774 226.44 111.149 225.815C110.523 225.189 110.172 224.341 110.172 223.456C110.172 222.571 110.523 221.722 111.149 221.096C111.774 220.47 112.622 220.117 113.507 220.115H140.386C141.272 220.117 142.121 220.469 142.747 221.096C143.373 221.722 143.726 222.571 143.728 223.456C143.726 224.341 143.373 225.19 142.747 225.815C142.12 226.44 141.272 226.791 140.386 226.791Z" fill="white" stroke="#263238" stroke-linejoin="round"/>
<path d="M256.603 21.9609H197.209V92.0759H256.603V21.9609Z" stroke="#B6CED3" stroke-linejoin="round"/>
<path d="M245.405 51.6697C245.406 48.7624 244.707 45.8976 243.366 43.3177C242.026 40.7378 240.083 38.5188 237.704 36.8484C235.324 35.178 232.577 34.1053 229.695 33.721C226.814 33.3368 223.882 33.6524 221.148 34.641C218.413 35.6297 215.958 37.2623 213.988 39.4009C212.018 41.5394 210.593 44.1209 209.832 46.9269C209.071 49.733 208.997 52.681 209.617 55.5216C210.236 58.3622 211.531 61.0117 213.391 63.2462C216.059 66.4464 217.518 70.4817 217.515 74.6481V77.1283H237.086V74.6481C237.083 70.4901 238.54 66.4631 241.203 63.2703C243.922 60.0166 245.41 55.9099 245.405 51.6697Z" fill="white" stroke="#263238" stroke-width="3" stroke-linecap="round" stroke-linejoin="round"/>
<path d="M237.086 77.1223H217.515V81.9624H237.086V77.1223Z" fill="white" stroke="#263238" stroke-width="3" stroke-linecap="round" stroke-linejoin="round"/>
<path d="M217.515 81.9744H237.086V83.973C237.086 84.7282 236.786 85.4525 236.252 85.9865C235.718 86.5205 234.993 86.8205 234.238 86.8205H220.332C219.577 86.8205 218.853 86.5205 218.319 85.9865C217.785 85.4525 217.485 84.7282 217.485 83.973V81.9744H217.515Z" fill="white" stroke="#263238" stroke-width="3" stroke-linecap="round" stroke-linejoin="round"/>
<path d="M219.983 86.8083H234.612V87.7896C234.612 88.813 234.205 89.7945 233.481 90.5182C232.758 91.2419 231.776 91.6484 230.753 91.6484H223.842C222.818 91.6484 221.837 91.2419 221.113 90.5182C220.389 89.7945 219.983 88.813 219.983 87.7896V86.8083Z" fill="white" stroke="#263238" stroke-width="3" stroke-linecap="round" stroke-linejoin="round"/>
<path d="M247.97 51.76H256.265" stroke="#263238" stroke-width="3" stroke-linecap="round" stroke-linejoin="round"/>
<path d="M197.558 51.76H205.956" stroke="#263238" stroke-width="3" stroke-linecap="round" stroke-linejoin="round"/>
<path d="M226.912 30.726V22.4124" stroke="#263238" stroke-width="3" stroke-linecap="round" stroke-linejoin="round"/>
<path d="M241.944 36.728L247.669 31.009" stroke="#263238" stroke-width="3" stroke-linecap="round" stroke-linejoin="round"/>
<path d="M206.155 72.5168L211.964 66.7075" stroke="#263238" stroke-width="3" stroke-linecap="round" stroke-linejoin="round"/>
<path d="M211.717 36.5655L206.155 31.009" stroke="#263238" stroke-width="3" stroke-linecap="round" stroke-linejoin="round"/>
<path d="M247.669 72.517L242.13 66.9846" stroke="#263238" stroke-width="3" stroke-linecap="round" stroke-linejoin="round"/>
<path d="M182.201 21.9609H122.808V92.0759H182.201V21.9609Z" stroke="#B6CED3" stroke-linejoin="round"/>
<path d="M170.655 51.6696C170.657 48.7616 169.958 45.8958 168.618 43.3149C167.278 40.7341 165.336 38.5141 162.956 36.8428C160.576 35.1716 157.829 34.0983 154.946 33.7138C152.064 33.3294 149.131 33.645 146.396 34.6341C143.661 35.6231 141.205 37.2565 139.236 39.3959C137.266 41.5353 135.84 44.1177 135.08 46.9247C134.32 49.7316 134.247 52.6804 134.868 55.5214C135.489 58.3624 136.785 61.0121 138.647 63.2461C141.314 66.4463 142.774 70.4816 142.77 74.648V77.1282H162.335V74.648C162.332 70.49 163.79 66.463 166.453 63.2702C169.176 60.0186 170.664 55.9106 170.655 51.6696Z" stroke="#263238" stroke-width="3" stroke-linecap="round" stroke-linejoin="round"/>
<path d="M162.341 77.1223H142.77V81.9624H162.341V77.1223Z" stroke="#263238" stroke-width="3" stroke-linecap="round" stroke-linejoin="round"/>
<path d="M142.77 81.9744H162.341V83.973C162.341 84.3469 162.268 84.7172 162.125 85.0627C161.981 85.4082 161.772 85.7221 161.507 85.9865C161.243 86.2509 160.929 86.4606 160.584 86.6037C160.238 86.7468 159.868 86.8205 159.494 86.8205H145.612C144.857 86.8205 144.132 86.5205 143.598 85.9865C143.064 85.4525 142.764 84.7282 142.764 83.973V81.9744H142.77Z" stroke="#263238" stroke-width="3" stroke-linecap="round" stroke-linejoin="round"/>
<path d="M145.239 86.8083H159.867V87.7896C159.867 88.813 159.461 89.7945 158.737 90.5182C158.013 91.2419 157.032 91.6484 156.008 91.6484H149.097C148.074 91.6484 147.092 91.2419 146.369 90.5182C145.645 89.7945 145.239 88.813 145.239 87.7896V86.8083Z" stroke="#263238" stroke-width="3" stroke-linecap="round" stroke-linejoin="round"/>
<path d="M131.537 51.76H173.551" stroke="#B6CED3" stroke-linejoin="round"/>
<path d="M152.493 81.1135V30.7261" stroke="#B6CED3" stroke-linejoin="round"/>
<path d="M137.545 66.7076L167.525 36.728" stroke="#B6CED3" stroke-linejoin="round"/>
<path d="M167.711 66.9845L137.292 36.5654" stroke="#B6CED3" stroke-linejoin="round"/>
<path d="M152.547 81.3481C168.905 81.3481 182.165 68.0875 182.165 51.7297C182.165 35.3719 168.905 22.1113 152.547 22.1113C136.189 22.1113 122.928 35.3719 122.928 51.7297C122.928 68.0875 136.189 81.3481 152.547 81.3481Z" stroke="#B6CED3" stroke-linejoin="round"/>
<path d="M152.547 72.7396C164.15 72.7396 173.557 63.3332 173.557 51.7298C173.557 40.1264 164.15 30.72 152.547 30.72C140.943 30.72 131.537 40.1264 131.537 51.7298C131.537 63.3332 140.943 72.7396 152.547 72.7396Z" stroke="#B6CED3" stroke-linejoin="round"/>
<path d="M173.225 51.76H181.515" stroke="#263238" stroke-width="3" stroke-linecap="round" stroke-linejoin="round"/>
<path d="M122.814 51.76H131.212" stroke="#263238" stroke-width="3" stroke-linecap="round" stroke-linejoin="round"/>
<path d="M152.161 30.726V22.4124" stroke="#263238" stroke-width="3" stroke-linecap="round" stroke-linejoin="round"/>
<path d="M167.193 36.728L172.918 31.009" stroke="#263238" stroke-width="3" stroke-linecap="round" stroke-linejoin="round"/>
<path d="M131.411 72.5168L137.22 66.7075" stroke="#263238" stroke-width="3" stroke-linecap="round" stroke-linejoin="round"/>
<path d="M136.967 36.5655L131.411 31.009" stroke="#263238" stroke-width="3" stroke-linecap="round" stroke-linejoin="round"/>
<path d="M172.918 72.517L167.386 66.9846" stroke="#263238" stroke-width="3" stroke-linecap="round" stroke-linejoin="round"/>
<path d="M107.722 21.9609H48.3286V92.0759H107.722V21.9609Z" stroke="#B6CED3" stroke-linejoin="round"/>
<path d="M78.254 69.7717C88.2515 69.7717 96.3561 61.6671 96.3561 51.6695C96.3561 41.672 88.2515 33.5674 78.254 33.5674C68.2565 33.5674 60.1519 41.672 60.1519 51.6695C60.1519 61.6671 68.2565 69.7717 78.254 69.7717Z" stroke="#263238" stroke-linejoin="round"/>
<path d="M88.0425 54.6135H68.4714V77.1163H88.0425V54.6135Z" stroke="#263238" stroke-linejoin="round"/>
<path d="M88.0425 77.1223H68.4714V81.9624H88.0425V77.1223Z" stroke="#263238" stroke-linejoin="round"/>
<path d="M88.0425 81.9744H68.4714V86.8145H88.0425V81.9744Z" stroke="#263238" stroke-linejoin="round"/>
<path d="M85.5683 86.8083H70.9397V91.6484H85.5683V86.8083Z" stroke="#263238" stroke-linejoin="round"/>
<path d="M48.8643 51.7961H107.571" stroke="#B6CED3" stroke-linejoin="round"/>
<path d="M78.1456 81.4083V22.4124" stroke="#B6CED3" stroke-linejoin="round"/>
<path d="M57.2562 72.6733L99.1494 30.8042" stroke="#B6CED3" stroke-linejoin="round"/>
<path d="M99.017 72.5771L57.178 30.9187" stroke="#B6CED3" stroke-linejoin="round"/>
<path d="M78.254 81.3481C94.6118 81.3481 107.872 68.0875 107.872 51.7297C107.872 35.3719 94.6118 22.1113 78.254 22.1113C61.8962 22.1113 48.6356 35.3719 48.6356 51.7297C48.6356 68.0875 61.8962 81.3481 78.254 81.3481Z" stroke="#B6CED3" stroke-linejoin="round"/>
<path d="M78.2539 72.7396C89.8573 72.7396 99.2637 63.3332 99.2637 51.7298C99.2637 40.1264 89.8573 30.72 78.2539 30.72C66.6506 30.72 57.2441 40.1264 57.2441 51.7298C57.2441 63.3332 66.6506 72.7396 78.2539 72.7396Z" stroke="#B6CED3" stroke-linejoin="round"/>
<path d="M16.0373 286.215H261.87" stroke="white" stroke-linecap="round" stroke-linejoin="round"/>
</svg>
