<svg xmlns="http://www.w3.org/2000/svg" width="592" height="592" fill="none" viewBox="0 0 592 592"><path fill="#007C97" d="M524.986 391.821C524.986 391.821 585.476 323.836 566.248 205.542C547.02 87.2491 448.239 43.666 382.728 66.4343C317.217 89.2027 302.441 128.831 248.936 151.493C195.431 174.155 93.761 158.597 42.92 234.716C-7.92096 310.836 56.9859 436.967 139.617 516.058C222.249 595.15 433.107 545.635 524.986 391.821Z"/><path fill="#fff" d="M524.986 391.821C524.986 391.821 585.476 323.836 566.248 205.542C547.02 87.2491 448.239 43.666 382.728 66.4343C317.217 89.2027 302.441 128.831 248.936 151.493C195.431 174.155 93.761 158.597 42.92 234.716C-7.92096 310.836 56.9859 436.967 139.617 516.058C222.249 595.15 433.107 545.635 524.986 391.821Z" opacity=".7"/><path stroke="#263238" stroke-linecap="round" stroke-linejoin="round" d="M526.88 562.921H565.549"/><path fill="#fff" stroke="#000" stroke-linecap="round" stroke-linejoin="round" d="M519.776 475.376L500.24 502.608L507.143 507.273C509.37 508.778 511.195 510.806 512.456 513.18C513.717 515.554 514.377 518.201 514.377 520.889H528.514C528.512 518.202 529.169 515.555 530.428 513.181C531.688 510.807 533.51 508.778 535.736 507.273L542.639 502.608L523.115 475.376H519.776Z"/><path stroke="#000" stroke-linecap="round" stroke-linejoin="round" d="M521.185 475.731V497.671"/><path fill="#fff" stroke="#000" stroke-linecap="round" stroke-linejoin="round" d="M521.185 502.348C523.768 502.348 525.862 500.254 525.862 497.671C525.862 495.088 523.768 492.994 521.185 492.994C518.602 492.994 516.508 495.088 516.508 497.671C516.508 500.254 518.602 502.348 521.185 502.348Z"/><path stroke="#000" stroke-linecap="round" stroke-linejoin="round" d="M554.112 497.671C554.112 488.926 550.638 480.538 544.454 474.355C538.27 468.171 529.883 464.697 521.138 464.697C512.392 464.697 504.005 468.171 497.821 474.355C491.637 480.538 488.163 488.926 488.163 497.671"/><path fill="#fff" stroke="#000" stroke-linejoin="round" d="M556.622 495.208H551.697V500.133H556.622V495.208Z"/><path fill="#fff" stroke="#000" stroke-linejoin="round" d="M490.318 495.208H485.393V500.133H490.318V495.208Z"/><path fill="#fff" stroke="#000" stroke-linejoin="round" d="M523.648 462.234H518.722V467.159H523.648V462.234Z"/><path stroke="#000" stroke-linecap="round" stroke-linejoin="round" d="M523.566 412.618C541.113 408.425 551.939 390.801 547.745 373.254C543.552 355.706 525.928 344.881 508.381 349.074C490.834 353.267 480.008 370.892 484.201 388.439C488.395 405.986 506.019 416.811 523.566 412.618Z"/><path stroke="#000" stroke-linecap="round" stroke-linejoin="round" d="M515.987 407.592C530.785 407.592 542.781 395.596 542.781 380.798C542.781 366 530.785 354.004 515.987 354.004C501.189 354.004 489.193 366 489.193 380.798C489.193 395.596 501.189 407.592 515.987 407.592Z"/><path stroke="#000" stroke-linecap="round" stroke-linejoin="round" d="M515.987 391.466V380.798H539.513"/><path fill="#fff" stroke="#000" stroke-linecap="round" stroke-linejoin="round" d="M518.604 345.527H513.382V350.748H518.604V345.527Z"/><path fill="#fff" stroke="#000" stroke-linecap="round" stroke-linejoin="round" d="M518.604 410.919H513.382V416.141H518.604V410.919Z"/><path fill="#fff" stroke="#000" stroke-linecap="round" stroke-linejoin="round" d="M551.602 378.631H546.38V383.853H551.602V378.631Z"/><path fill="#fff" stroke="#000" stroke-linecap="round" stroke-linejoin="round" d="M485.843 378.631H480.621V383.853H485.843V378.631Z"/><path fill="#000" d="M538.791 403.176L542.272 431.793L548.677 420.794L561.405 421.042L538.791 403.176Z"/><path fill="#000" d="M556.516 430.81H551.614V435.712H556.516V430.81Z"/><path stroke="#000" stroke-linecap="round" stroke-linejoin="round" d="M552.372 232.123H489.643C486.766 232.123 484.434 234.456 484.434 237.333V280.916C484.434 283.793 486.766 286.126 489.643 286.126H552.372C555.249 286.126 557.581 283.793 557.581 280.916V237.333C557.581 234.456 555.249 232.123 552.372 232.123Z"/><path stroke="#000" stroke-linecap="round" stroke-linejoin="round" d="M484.753 272.19H557.261"/><path stroke="#000" stroke-linecap="round" stroke-linejoin="round" d="M530.456 286.114H511.571V300.559H530.456V286.114Z"/><path stroke="#000" stroke-linecap="round" stroke-linejoin="round" d="M536.316 300.594H505.45V303.353H536.316V300.594Z"/><path stroke="#263238" stroke-linecap="round" stroke-linejoin="round" d="M55.6599 360.327L71.6439 513.453"/><path stroke="#263238" stroke-linecap="round" stroke-linejoin="round" d="M68.4944 483.51L61.8285 476.489"/><path fill="#007C97" stroke="#263238" stroke-linejoin="round" d="M64.0307 478.786C64.0149 477.615 63.7489 476.461 63.2507 475.401C62.7524 474.341 62.0334 473.4 61.1418 472.641C59.2829 470.983 49.503 466.863 48.5677 470.273C47.5613 474.062 57.5779 481.426 64.0307 478.786Z"/><path stroke="#263238" stroke-linecap="round" stroke-linejoin="round" d="M64.0307 478.786L54.7126 472.984"/><path stroke="#263238" stroke-linecap="round" stroke-linejoin="round" d="M70.152 499.328L63.64 493.906"/><path fill="#007C97" stroke="#263238" stroke-linejoin="round" d="M65.8422 496.203C65.8302 495.032 65.5671 493.878 65.0707 492.818C64.5744 491.758 63.8564 490.816 62.9651 490.058C61.1062 488.4 51.3146 484.28 50.391 487.69C49.3728 491.478 59.3894 498.831 65.8422 496.203Z"/><path stroke="#263238" stroke-linecap="round" stroke-linejoin="round" d="M65.8422 496.202L56.5242 490.401"/><path stroke="#263238" stroke-linecap="round" stroke-linejoin="round" d="M63.9715 439.915L57.3885 433.995"/><path fill="#007C97" stroke="#263238" stroke-linejoin="round" d="M59.5907 436.292C59.5787 435.122 59.3156 433.967 58.8192 432.907C58.3229 431.847 57.6048 430.906 56.7136 430.147C54.8547 428.49 45.063 424.369 44.1395 427.779C43.1213 431.568 53.1379 438.933 59.5907 436.292Z"/><path stroke="#263238" stroke-linecap="round" stroke-linejoin="round" d="M59.5907 436.292L50.2726 430.49"/><path stroke="#263238" stroke-linecap="round" stroke-linejoin="round" d="M65.8067 458.433L59.2119 451.412"/><path fill="#007C97" stroke="#263238" stroke-linejoin="round" d="M61.4141 453.709C61.3999 452.536 61.1348 451.379 60.6365 450.318C60.1382 449.256 59.4183 448.313 58.5251 447.552C56.6663 445.894 46.8746 441.774 45.9511 445.184C44.992 448.985 54.9613 456.337 61.4141 453.709Z"/><path stroke="#263238" stroke-linecap="round" stroke-linejoin="round" d="M61.4141 453.709L52.096 447.907"/><path stroke="#263238" stroke-linecap="round" stroke-linejoin="round" d="M61.0352 412.435L54.4403 405.709"/><path fill="#007C97" stroke="#263238" stroke-linejoin="round" d="M56.6426 408.006C56.6267 406.835 56.3608 405.681 55.8625 404.621C55.3643 403.562 54.6452 402.621 53.7536 401.861C51.8947 400.204 42.1149 396.083 41.1795 399.493C40.1731 403.282 50.1898 410.635 56.6426 408.006Z"/><path stroke="#263238" stroke-linecap="round" stroke-linejoin="round" d="M56.6426 408.006L47.3245 402.205"/><path stroke="#263238" stroke-linecap="round" stroke-linejoin="round" d="M57.8621 382.183L51.4685 377.305"/><path fill="#007C97" stroke="#263238" stroke-linejoin="round" d="M53.6707 379.59C53.6587 378.42 53.3956 377.266 52.8992 376.205C52.4029 375.145 51.6848 374.204 50.7936 373.445C48.9347 371.788 39.143 367.667 38.2195 371.077C37.2013 374.866 47.2179 382.231 53.6707 379.59Z"/><path stroke="#263238" stroke-linecap="round" stroke-linejoin="round" d="M53.6707 379.59L44.3526 373.789"/><path stroke="#263238" stroke-linecap="round" stroke-linejoin="round" d="M67.855 473.849L73.3606 464.862"/><path fill="#007C97" stroke="#263238" stroke-linejoin="round" d="M71.6794 467.561C71.4525 466.413 71.4735 465.23 71.741 464.091C72.0085 462.951 72.5163 461.882 73.2304 460.955C74.7104 458.942 83.4365 452.892 85.0704 456.077C86.8227 459.534 78.5347 468.864 71.6794 467.561Z"/><path stroke="#263238" stroke-linecap="round" stroke-linejoin="round" d="M71.6794 467.562L78.2387 461.405"/><path stroke="#263238" stroke-linecap="round" stroke-linejoin="round" d="M63.0717 428.016L68.5773 419.029"/><path fill="#007C97" stroke="#263238" stroke-linejoin="round" d="M66.896 421.729C66.6691 420.581 66.6901 419.397 66.9576 418.258C67.2251 417.119 67.7329 416.049 68.4471 415.122C69.9271 413.121 76.7351 408.089 78.369 411.262C80.1331 414.72 73.7514 422.984 66.896 421.729Z"/><path stroke="#263238" stroke-linecap="round" stroke-linejoin="round" d="M66.896 421.729L75.2906 413.713"/><path stroke="#263238" stroke-linecap="round" stroke-linejoin="round" d="M60.9642 407.876L66.4816 398.901"/><path fill="#007C97" stroke="#263238" stroke-linejoin="round" d="M64.8003 401.589C64.5668 400.444 64.5802 399.263 64.8395 398.123C65.0988 396.984 65.5981 395.913 66.304 394.982C67.7722 392.981 76.4982 386.931 78.144 390.104C79.9318 393.573 71.6557 402.844 64.8003 401.589Z"/><path stroke="#263238" stroke-linecap="round" stroke-linejoin="round" d="M64.8003 401.589L73.183 393.573"/><path stroke="#263238" stroke-linecap="round" stroke-linejoin="round" d="M57.8858 378.359L63.3914 369.373"/><path fill="#007C97" stroke="#263238" stroke-linejoin="round" d="M61.7101 372.072C61.4833 370.923 61.5054 369.739 61.775 368.599C62.0446 367.459 62.5554 366.391 63.273 365.465C64.7411 363.453 73.4672 357.402 75.113 360.587C76.8534 364.044 68.5773 373.315 61.7101 372.072Z"/><path stroke="#263238" stroke-linecap="round" stroke-linejoin="round" d="M61.7101 372.072L70.1046 364.056"/><path fill="#007C97" stroke="#263238" stroke-linejoin="round" d="M55.5296 359.474C55.2974 358.32 55.3158 357.13 55.5834 355.984C55.851 354.839 56.3616 353.763 57.0807 352.832C58.5607 350.831 67.2867 344.781 68.9207 347.954C70.673 351.458 62.385 360.729 55.5296 359.474Z"/><path stroke="#263238" stroke-linecap="round" stroke-linejoin="round" d="M55.5296 359.474L63.9242 351.458"/><path fill="#007C97" stroke="#263238" stroke-linejoin="round" d="M56.015 359.829C54.8482 359.926 53.6741 359.775 52.57 359.385C51.4659 358.995 50.457 358.376 49.6096 357.568C47.7626 355.887 42.6595 346.569 46.0576 345.302C49.6214 343.928 58.016 353.14 56.015 359.829Z"/><path stroke="#263238" stroke-linecap="round" stroke-linejoin="round" d="M56.015 359.829L48.9229 350.642"/><path stroke="#263238" stroke-linecap="round" stroke-linejoin="round" d="M79.6003 319.064V512.707"/><path stroke="#263238" stroke-linecap="round" stroke-linejoin="round" d="M97.8103 381.414L81.921 534.541"/><path stroke="#263238" stroke-linecap="round" stroke-linejoin="round" d="M85.2835 503.259L81.6013 499.056"/><path fill="#007C97" stroke="#263238" stroke-linejoin="round" d="M81.6013 499.056C81.8282 497.908 81.8072 496.724 81.5397 495.585C81.2722 494.446 80.7644 493.376 80.0502 492.449C78.5702 490.448 69.8442 484.398 68.2102 487.583C66.4579 491.04 74.7459 500.311 81.6013 499.056Z"/><path stroke="#263238" stroke-linecap="round" stroke-linejoin="round" d="M81.6013 499.056L73.6803 491.455"/><path stroke="#263238" stroke-linecap="round" stroke-linejoin="round" d="M89.7709 459.546L84.3126 454.988"/><path fill="#007C97" stroke="#263238" stroke-linejoin="round" d="M86.0176 456.562C86.2497 455.408 86.2302 454.217 85.9605 453.071C85.6908 451.924 85.1772 450.85 84.4547 449.92C82.9747 447.907 74.2486 441.869 72.6147 445.054C70.8742 448.547 79.1622 457.817 86.0176 456.562Z"/><path stroke="#263238" stroke-linecap="round" stroke-linejoin="round" d="M86.0176 456.562L78.0966 448.961"/><path stroke="#263238" stroke-linecap="round" stroke-linejoin="round" d="M88.0422 480.254L82.5248 471.279"/><path fill="#007C97" stroke="#263238" stroke-linejoin="round" d="M84.2061 473.979C84.433 472.831 84.412 471.647 84.1445 470.508C83.877 469.368 83.3692 468.299 82.655 467.372C81.175 465.359 72.449 459.321 70.8151 462.494C69.0627 465.963 77.3507 475.222 84.2061 473.979Z"/><path stroke="#263238" stroke-linecap="round" stroke-linejoin="round" d="M84.2061 473.979L76.2851 466.377"/><path stroke="#263238" stroke-linecap="round" stroke-linejoin="round" d="M92.5296 431.639L87.2726 425.577"/><path fill="#007C97" stroke="#263238" stroke-linejoin="round" d="M88.9539 428.276C89.1807 427.127 89.1586 425.943 88.889 424.804C88.6194 423.664 88.1086 422.595 87.391 421.67C85.911 419.657 77.185 413.619 75.5511 416.792C73.8106 420.32 82.0986 429.52 88.9539 428.276Z"/><path stroke="#263238" stroke-linecap="round" stroke-linejoin="round" d="M88.9539 428.276L81.033 420.675"/><path stroke="#263238" stroke-linecap="round" stroke-linejoin="round" d="M95.3002 405.046L90.2208 397.161"/><path fill="#007C97" stroke="#263238" stroke-linejoin="round" d="M91.9021 399.86C92.1289 398.711 92.1067 397.527 91.8371 396.388C91.5675 395.248 91.0568 394.179 90.3392 393.254C88.8592 391.241 80.1331 385.202 78.4992 388.376C76.7587 391.904 85.0467 401.104 91.9021 399.86Z"/><path stroke="#263238" stroke-linecap="round" stroke-linejoin="round" d="M91.9021 399.861L83.9811 392.259"/><path stroke="#263238" stroke-linecap="round" stroke-linejoin="round" d="M86.361 495.007L93.607 487.346"/><path fill="#007C97" stroke="#263238" stroke-linejoin="round" d="M91.4048 489.643C91.4169 488.473 91.68 487.318 92.1763 486.258C92.6726 485.198 93.3907 484.257 94.2819 483.498C96.1408 481.84 105.932 477.708 106.856 481.13C107.874 484.907 97.8576 492.272 91.4048 489.643Z"/><path stroke="#263238" stroke-linecap="round" stroke-linejoin="round" d="M91.4048 489.643L101.268 483.522"/><path stroke="#263238" stroke-linecap="round" stroke-linejoin="round" d="M91.1207 449.174L98.3667 441.525"/><path fill="#007C97" stroke="#263238" stroke-linejoin="round" d="M96.1645 443.811C96.1773 442.64 96.4408 441.486 96.9371 440.426C97.4333 439.366 98.151 438.425 99.0416 437.666C100.9 436.008 110.68 431.888 111.616 435.298C112.622 439.074 102.617 446.451 96.1645 443.811Z"/><path stroke="#263238" stroke-linecap="round" stroke-linejoin="round" d="M96.1645 443.811L106.027 437.701"/><path stroke="#263238" stroke-linecap="round" stroke-linejoin="round" d="M93.2163 429.034L100.451 421.385"/><path fill="#007C97" stroke="#263238" stroke-linejoin="round" d="M98.272 423.682C98.2907 422.51 98.5579 421.355 99.0559 420.294C99.5539 419.233 100.271 418.289 101.161 417.526C103.008 415.868 112.8 411.748 113.723 415.158C114.718 418.935 104.701 426.311 98.272 423.682Z"/><path stroke="#263238" stroke-linecap="round" stroke-linejoin="round" d="M98.2483 423.683L108.111 417.561"/><path stroke="#263238" stroke-linecap="round" stroke-linejoin="round" d="M96.1882 398.002L103.517 391.857"/><path fill="#007C97" stroke="#263238" stroke-linejoin="round" d="M101.315 394.154C101.327 392.983 101.59 391.829 102.086 390.769C102.583 389.709 103.301 388.767 104.192 388.009C106.051 386.339 115.843 382.219 116.766 385.641C117.784 389.418 107.744 396.782 101.315 394.154Z"/><path stroke="#263238" stroke-linejoin="round" d="M101.315 394.153L111.178 388.032"/><path fill="#007C97" stroke="#263238" stroke-linejoin="round" d="M97.8576 380.561C97.8703 379.389 98.1336 378.233 98.6298 377.172C99.1261 376.11 99.8438 375.166 100.735 374.405C102.594 372.747 112.373 368.627 113.309 372.037C114.327 375.825 104.31 383.19 97.8576 380.561Z"/><path stroke="#263238" stroke-linecap="round" stroke-linejoin="round" d="M97.8576 380.561L107.72 374.44"/><path fill="#007C97" stroke="#263238" stroke-linejoin="round" d="M98.272 380.999C97.1066 380.853 95.9857 380.461 94.9834 379.848C93.9812 379.236 93.1206 378.417 92.4586 377.447C91.0022 375.434 87.9357 365.264 91.4522 364.707C95.2765 364.127 101.552 374.854 98.272 380.999Z"/><path stroke="#263238" stroke-linecap="round" stroke-linejoin="round" d="M98.2602 380.999L93.2045 370.545"/><path stroke="#263238" stroke-linecap="round" stroke-linejoin="round" d="M79.3398 483.238L73.3488 475.222"/><path fill="#007C97" stroke="#263238" stroke-linejoin="round" d="M75.3024 477.732C75.4093 476.566 75.2649 475.392 74.8788 474.286C74.4928 473.181 73.8741 472.172 73.0646 471.327C71.3952 469.48 62.089 464.365 60.7984 467.704C59.4131 471.327 68.672 479.686 75.3024 477.732Z"/><path stroke="#263238" stroke-linecap="round" stroke-linejoin="round" d="M75.3024 477.732L66.6355 470.995"/><path stroke="#263238" stroke-linecap="round" stroke-linejoin="round" d="M79.553 444.616L73.3488 438.838"/><path fill="#007C97" stroke="#263238" stroke-linejoin="round" d="M75.3024 441.348C75.4095 440.181 75.2652 439.004 74.8792 437.897C74.4932 436.79 73.8744 435.778 73.0646 434.931C71.3952 433.084 62.089 427.981 60.7984 431.308C59.4131 434.931 68.672 443.29 75.3024 441.348Z"/><path stroke="#263238" stroke-linecap="round" stroke-linejoin="round" d="M75.3024 441.348L66.6355 434.599"/><path stroke="#263238" stroke-linecap="round" stroke-linejoin="round" d="M79.7542 404.478L73.3488 396.107"/><path fill="#007C97" stroke="#263238" stroke-linejoin="round" d="M75.3024 398.617C75.4093 397.452 75.2649 396.277 74.8788 395.172C74.4928 394.067 73.8741 393.057 73.0646 392.212C71.3952 390.365 62.089 385.25 60.7984 388.589C59.4131 392.212 68.672 400.571 75.3024 398.617Z"/><path stroke="#263238" stroke-linecap="round" stroke-linejoin="round" d="M75.3024 398.617L66.6355 391.88"/><path stroke="#263238" stroke-linecap="round" stroke-linejoin="round" d="M79.3398 373.067L73.3488 367.667"/><path fill="#007C97" stroke="#263238" stroke-linejoin="round" d="M75.3024 370.178C75.4093 369.012 75.2649 367.837 74.8788 366.732C74.4928 365.627 73.8741 364.618 73.0646 363.772C71.3952 361.925 62.089 356.81 60.7984 360.149C59.4131 363.772 68.672 372.131 75.3024 370.178Z"/><path stroke="#263238" stroke-linecap="round" stroke-linejoin="round" d="M75.3024 370.178L66.6355 363.441"/><path stroke="#263238" stroke-linecap="round" stroke-linejoin="round" d="M79.6832 344.615L73.4672 340.057"/><path fill="#007C97" stroke="#263238" stroke-linejoin="round" d="M75.3024 341.608C75.4093 340.442 75.2649 339.267 74.8788 338.162C74.4928 337.057 73.8741 336.048 73.0646 335.202C71.3952 333.355 62.089 328.24 60.7984 331.579C59.4131 335.202 68.672 343.561 75.3024 341.608Z"/><path stroke="#263238" stroke-linecap="round" stroke-linejoin="round" d="M75.3024 341.608L66.6355 334.871"/><path stroke="#263238" stroke-linecap="round" stroke-linejoin="round" d="M80.8554 492.899L86.0295 486.34"/><path fill="#007C97" stroke="#263238" stroke-linejoin="round" d="M84.064 488.85C83.9607 487.684 84.1057 486.509 84.4894 485.403C84.873 484.297 85.4867 483.284 86.2899 482.433C87.9712 480.586 97.2774 475.483 98.5562 478.81C99.9651 482.433 90.7654 490.804 84.064 488.85Z"/><path stroke="#263238" stroke-linecap="round" stroke-linejoin="round" d="M84.0759 488.85L93.2519 481.746"/><path stroke="#263238" stroke-linecap="round" stroke-linejoin="round" d="M79.6122 436.825L86.0295 428.466"/><path fill="#007C97" stroke="#263238" stroke-linejoin="round" d="M84.064 430.976C83.9607 429.81 84.1057 428.635 84.4894 427.529C84.873 426.423 85.4867 425.41 86.2899 424.559C87.9712 422.712 97.2774 417.609 98.5562 420.936C99.9651 424.559 90.7654 432.918 84.064 430.976Z"/><path stroke="#263238" stroke-linecap="round" stroke-linejoin="round" d="M84.0759 430.976L93.2519 423.86"/><path stroke="#263238" stroke-linecap="round" stroke-linejoin="round" d="M79.6122 408.255L86.0295 399.896"/><path fill="#007C97" stroke="#263238" stroke-linejoin="round" d="M84.064 402.406C83.9607 401.24 84.1057 400.065 84.4894 398.959C84.873 397.853 85.4867 396.84 86.2899 395.989C87.9712 394.154 97.2774 389.039 98.5562 392.366C99.9651 395.989 90.7654 404.36 84.064 402.406Z"/><path stroke="#263238" stroke-linecap="round" stroke-linejoin="round" d="M84.0759 402.406L93.2519 395.302"/><path stroke="#263238" stroke-linecap="round" stroke-linejoin="round" d="M79.6122 370.497L86.0295 362.138"/><path fill="#007C97" stroke="#263238" stroke-linejoin="round" d="M84.064 364.672C83.9607 363.506 84.1057 362.331 84.4894 361.225C84.873 360.119 85.4867 359.106 86.2899 358.255C87.9712 356.419 97.2774 351.305 98.5562 354.632C99.9651 358.231 90.7654 366.602 84.064 364.672Z"/><path stroke="#263238" stroke-linecap="round" stroke-linejoin="round" d="M84.0759 364.648L93.2519 357.544"/><path stroke="#263238" stroke-linecap="round" stroke-linejoin="round" d="M79.8963 337.913L86.1834 333.012"/><path fill="#007C97" stroke="#263238" stroke-linejoin="round" d="M84.064 334.965C83.9607 333.799 84.1057 332.624 84.4894 331.518C84.873 330.412 85.4867 329.4 86.2899 328.548C87.9712 326.713 97.2774 321.598 98.5562 324.925C99.9651 328.548 90.7654 336.919 84.064 334.965Z"/><path stroke="#263238" stroke-linecap="round" stroke-linejoin="round" d="M84.0759 334.965L93.2519 327.861"/><path fill="#007C97" stroke="#263238" stroke-linejoin="round" d="M79.2333 321.799C79.13 320.633 79.275 319.458 79.6587 318.352C80.0423 317.246 80.656 316.234 81.4592 315.382C83.1405 313.547 92.4467 308.432 93.7254 311.759C95.1226 315.382 85.9229 323.753 79.2333 321.799Z"/><path stroke="#263238" stroke-linecap="round" stroke-linejoin="round" d="M79.2333 321.799L88.4093 314.695"/><path fill="#007C97" stroke="#263238" stroke-linejoin="round" d="M79.6832 322.19C78.5122 322.174 77.3582 321.908 76.2983 321.41C75.2385 320.912 74.2975 320.193 73.5382 319.301C71.8806 317.442 67.7722 307.651 71.1702 306.727C74.9709 305.721 82.3235 315.749 79.6832 322.19Z"/><path stroke="#263238" stroke-linecap="round" stroke-linejoin="round" d="M79.6832 322.19L73.5738 312.327"/><path fill="#263238" stroke="#263238" stroke-linecap="round" stroke-linejoin="round" d="M87.5687 562.921H67.0618L64.5043 511.133H90.1379L87.5687 562.921Z"/><path fill="#fff" stroke="#263238" stroke-linejoin="round" d="M328.548 339.595L337.594 362.221H313.76V366.294H365.205L351.908 339.405L328.548 339.595Z"/><path fill="#fff" stroke="#263238" stroke-linejoin="round" d="M326.358 339.595L335.415 362.221H311.57V366.294H363.014L349.718 339.405L326.358 339.595Z"/><path fill="#fff" stroke="#263238" stroke-linejoin="round" d="M402.406 339.808H274.191C273.608 339.807 273.031 339.688 272.496 339.458C271.96 339.229 271.476 338.893 271.074 338.472C270.671 338.05 270.358 337.552 270.153 337.006C269.948 336.461 269.855 335.879 269.881 335.297L274.06 238.505C274.118 237.209 274.674 235.985 275.611 235.087C276.548 234.19 277.795 233.688 279.092 233.686H407.296C407.908 233.687 408.514 233.812 409.077 234.053C409.64 234.294 410.149 234.646 410.572 235.088C410.996 235.531 411.325 236.054 411.542 236.627C411.758 237.2 411.856 237.81 411.831 238.422L407.675 334.717C407.612 336.077 407.031 337.362 406.051 338.309C405.072 339.255 403.768 339.791 402.406 339.808Z"/><path fill="#263238" stroke="#263238" stroke-linejoin="round" d="M395.847 339.808H267.584C267.001 339.809 266.423 339.691 265.887 339.462C265.35 339.233 264.866 338.897 264.463 338.475C264.06 338.054 263.747 337.554 263.543 337.008C263.338 336.462 263.247 335.88 263.274 335.297L267.454 238.505C267.509 237.208 268.063 235.982 269.001 235.084C269.939 234.186 271.187 233.685 272.486 233.686H400.784C401.396 233.687 402.002 233.812 402.565 234.053C403.128 234.294 403.637 234.646 404.06 235.088C404.484 235.531 404.813 236.054 405.03 236.627C405.246 237.2 405.344 237.81 405.319 238.422L401.151 334.717C401.093 336.085 400.509 337.379 399.521 338.327C398.533 339.276 397.216 339.806 395.847 339.808Z"/><path fill="#fff" stroke="#263238" stroke-linejoin="round" d="M395.705 317.643H270.272L273.705 238.126H399.138L395.705 317.643Z"/><path fill="#fff" stroke="#263238" stroke-linecap="round" stroke-linejoin="round" d="M319.775 272.391C319.89 270.253 319.546 268.115 318.766 266.121C317.986 264.126 316.788 262.323 315.252 260.831C313.716 259.338 311.879 258.193 309.863 257.471C307.847 256.748 305.7 256.466 303.566 256.644C299.769 256.951 296.19 258.542 293.418 261.154C290.646 263.767 288.847 267.246 288.316 271.018C288.033 273.039 288.161 275.098 288.692 277.069C289.223 279.04 290.146 280.884 291.406 282.491C293.621 285.313 294.739 288.841 294.556 292.424L294.461 294.591H311.522L311.617 292.424C311.797 288.754 313.221 285.255 315.654 282.502C318.135 279.697 319.588 276.131 319.775 272.391Z"/><path fill="#fff" stroke="#263238" stroke-linecap="round" stroke-linejoin="round" d="M311.333 298.818H294.271L294.461 294.591H311.522L311.333 298.818Z"/><path fill="#fff" stroke="#263238" stroke-linecap="round" stroke-linejoin="round" d="M306.928 303.104H298.297C297.75 303.108 297.208 303 296.704 302.786C296.201 302.573 295.746 302.258 295.369 301.862C294.992 301.466 294.7 300.997 294.511 300.483C294.322 299.97 294.241 299.423 294.271 298.877H311.392C311.334 300.02 310.838 301.097 310.007 301.885C309.176 302.672 308.073 303.108 306.928 303.104Z"/><path fill="#fff" stroke="#263238" stroke-linecap="round" stroke-linejoin="round" d="M304.584 307.26H300.262C299.715 307.264 299.173 307.156 298.67 306.942C298.166 306.729 297.712 306.414 297.334 306.018C296.957 305.622 296.665 305.153 296.476 304.639C296.288 304.126 296.206 303.579 296.237 303.033H309.024C308.966 304.172 308.474 305.246 307.647 306.032C306.821 306.819 305.725 307.258 304.584 307.26Z"/><path stroke="#263238" stroke-linecap="round" stroke-linejoin="round" d="M322.012 272.474H329.235"/><path stroke="#263238" stroke-linecap="round" stroke-linejoin="round" d="M278.039 272.474H285.368"/><path stroke="#263238" stroke-linecap="round" stroke-linejoin="round" d="M304.466 254.122L304.785 246.876"/><path stroke="#263238" stroke-linecap="round" stroke-linejoin="round" d="M317.336 259.367L322.545 254.371"/><path stroke="#263238" stroke-linecap="round" stroke-linejoin="round" d="M284.728 290.577L290.021 285.51"/><path stroke="#263238" stroke-linecap="round" stroke-linejoin="round" d="M290.98 259.225L286.35 254.371"/><path stroke="#263238" stroke-linecap="round" stroke-linejoin="round" d="M320.935 290.577L316.317 285.747"/><path fill="#263238" stroke="#fff" stroke-linecap="round" stroke-linejoin="round" d="M378.88 272.391C378.997 270.253 378.655 268.116 377.876 266.121C377.098 264.127 375.9 262.323 374.365 260.831C372.831 259.339 370.994 258.193 368.978 257.471C366.963 256.748 364.816 256.466 362.683 256.644C358.885 256.949 355.305 258.539 352.533 261.152C349.761 263.765 347.962 267.245 347.433 271.018C347.148 273.039 347.274 275.096 347.803 277.068C348.332 279.039 349.253 280.883 350.511 282.491C352.723 285.315 353.846 288.841 353.673 292.424L353.566 294.591H370.639L370.734 292.424C370.914 288.754 372.338 285.255 374.772 282.502C377.254 279.699 378.703 276.131 378.88 272.391Z"/><path fill="#263238" stroke="#fff" stroke-linecap="round" stroke-linejoin="round" d="M370.497 298.818H353.424L353.613 294.591H370.687L370.497 298.818Z"/><path fill="#263238" stroke="#fff" stroke-linecap="round" stroke-linejoin="round" d="M366.081 303.104H357.461C356.914 303.108 356.371 303 355.867 302.786C355.363 302.573 354.908 302.258 354.53 301.863C354.151 301.467 353.858 300.998 353.668 300.484C353.478 299.971 353.395 299.424 353.424 298.877H370.497C370.437 300.011 369.947 301.08 369.126 301.865C368.306 302.65 367.217 303.093 366.081 303.104Z"/><path fill="#263238" stroke="#fff" stroke-linecap="round" stroke-linejoin="round" d="M363.748 307.26H359.427C358.879 307.264 358.337 307.156 357.833 306.942C357.328 306.729 356.873 306.414 356.495 306.019C356.117 305.623 355.824 305.154 355.634 304.64C355.443 304.127 355.36 303.58 355.389 303.033H368.153C368.093 304.165 367.604 305.232 366.786 306.017C365.968 306.802 364.882 307.246 363.748 307.26Z"/><path stroke="#263238" stroke-linecap="round" stroke-linejoin="round" d="M381.165 272.474H388.399"/><path stroke="#263238" stroke-linecap="round" stroke-linejoin="round" d="M337.203 272.474H344.532"/><path stroke="#263238" stroke-linecap="round" stroke-linejoin="round" d="M363.618 254.122L363.95 246.876"/><path stroke="#263238" stroke-linecap="round" stroke-linejoin="round" d="M376.5 259.367L381.71 254.371"/><path stroke="#263238" stroke-linecap="round" stroke-linejoin="round" d="M343.893 290.577L349.185 285.51"/><path stroke="#263238" stroke-linecap="round" stroke-linejoin="round" d="M350.144 259.225L345.515 254.371"/><path stroke="#263238" stroke-linecap="round" stroke-linejoin="round" d="M380.088 290.577L375.482 285.747"/><path fill="#fff" stroke="#263238" stroke-linejoin="round" d="M395.847 339.808H267.584C267.001 339.809 266.423 339.691 265.887 339.462C265.35 339.233 264.866 338.897 264.463 338.475C264.06 338.054 263.747 337.554 263.543 337.008C263.338 336.462 263.247 335.88 263.274 335.297L263.807 322.853H401.625L401.104 334.693C401.052 336.058 400.477 337.35 399.499 338.302C398.52 339.255 397.212 339.794 395.847 339.808Z"/><path fill="#263238" stroke="#263238" stroke-linejoin="round" d="M435.854 369.349H369.893V562.945H435.854V369.349Z"/><path fill="#7D7D7D" stroke="#263238" stroke-linejoin="round" d="M440.152 369.349H374.191V562.945H440.152V369.349Z"/><path fill="#263238" stroke="#263238" stroke-linejoin="round" d="M440.152 369.349H374.191V379.508H440.152V369.349Z"/><path fill="#263238" stroke="#263238" stroke-linejoin="round" d="M245.846 369.349H179.885V562.945H245.846V369.349Z"/><path fill="#7D7D7D" stroke="#263238" stroke-linejoin="round" d="M250.144 369.349H184.183V562.945H250.144V369.349Z"/><path fill="#263238" stroke="#263238" stroke-linejoin="round" d="M456.941 365.868H170.555V372.427H456.941V365.868Z"/><path fill="#fff" stroke="#263238" stroke-linejoin="round" d="M456.941 365.868H370.758V372.427H456.941V365.868Z"/><path fill="#fff" stroke="#263238" stroke-linejoin="round" d="M350.464 365.856L350.334 365.513C349.315 362.916 347.538 360.687 345.234 359.116C342.93 357.545 340.205 356.704 337.416 356.704H331.934C329.554 356.71 327.216 357.327 325.142 358.497C323.069 359.666 321.331 361.348 320.094 363.382L318.496 365.856H350.464Z"/><path fill="#fff" stroke="#263238" stroke-linejoin="round" d="M234.432 219.822C234.432 219.822 234.432 220.71 234.432 222.012C234.349 225.232 234.207 231.034 234.207 232.407C234.207 234.314 231.2 237.049 231.2 238.967C231.2 240.885 232.845 246.9 233.39 248.806C233.935 250.712 228.465 252.358 228.465 252.358C228.465 252.358 226.002 261.392 222.45 263.57C218.898 265.749 211.794 263.57 210.42 263.298C209.047 263.026 204.678 261.664 204.678 261.664L204.406 275.6L181.708 266.305L183.437 251.032L183.627 249.35C183.627 249.35 184.444 236.504 183.354 230.217C181.436 219.218 185.817 205.057 202.76 201.505C208.07 200.325 213.602 200.617 218.758 202.351C223.914 204.085 228.499 207.195 232.017 211.344C233.911 213.807 234.432 219.822 234.432 219.822Z"/><path stroke="#263238" stroke-linejoin="round" d="M207.117 233.769L237.191 236.776"/><path stroke="#263238" stroke-linejoin="round" d="M232.822 235.415L238.564 235.959C238.564 235.959 237.735 243.608 231.993 243.608"/><path stroke="#263238" stroke-linejoin="round" d="M225.161 254.004C225.161 254.004 222.699 254.276 221.065 250.179"/><path stroke="#263238" stroke-linejoin="round" d="M229.814 236.776L228.169 240.328"/><path stroke="#263238" stroke-linejoin="round" d="M228.169 232.952C228.169 232.952 230.087 229.945 233.094 233.769"/><path fill="#263238" stroke="#263238" stroke-linejoin="round" d="M234.432 219.822C234.432 219.822 234.432 220.71 234.432 222.012L234.029 221.633C234.029 221.633 226.547 214.837 221.444 213.819C216.34 212.8 217.702 220.271 218.732 221.633C219.762 222.995 226.547 225.706 223.137 228.098C219.727 230.489 216.684 232.514 216.684 232.514L214.529 238.268C214.335 238.789 213.991 239.241 213.539 239.566C213.088 239.89 212.551 240.074 211.995 240.093C211.44 240.112 210.891 239.966 210.419 239.672C209.947 239.379 209.572 238.952 209.343 238.446C208.431 236.433 206.572 232.407 205.791 231.141C204.773 229.447 198.048 231.744 198.687 238.245C198.727 239.452 199.074 240.629 199.696 241.665C200.317 242.701 201.192 243.561 202.239 244.165C202.239 244.165 205.507 246.414 198.036 251.174C190.565 255.934 187.842 256.608 184.1 251.861C183.899 251.612 183.698 251.328 183.473 251.008L183.662 249.327C183.662 249.327 184.479 236.48 183.39 230.193C181.472 219.194 185.852 205.033 202.796 201.481C208.106 200.301 213.638 200.593 218.794 202.327C223.95 204.061 228.534 207.171 232.052 211.32C233.911 213.807 234.432 219.822 234.432 219.822Z"/><path fill="#fff" stroke="#263238" stroke-linejoin="round" d="M298.297 537.146C298.297 537.146 309.604 541.147 316.164 540.792C322.723 540.437 327.826 537.501 329.294 540.058C330.762 542.616 327.826 546.617 327.104 548.074C326.381 549.53 312.15 553.189 307.414 555.367C302.678 557.546 290.281 561.571 285.178 562.294C280.075 563.016 277.885 549.897 277.885 549.897L298.297 537.146Z"/><path fill="#fff" stroke="#263238" stroke-linejoin="round" d="M301.577 553.544C294.734 555.697 287.787 557.503 280.762 558.955C281.875 561.027 283.331 562.566 285.178 562.294C290.281 561.571 302.678 557.558 307.414 555.367C312.15 553.177 326.358 549.542 327.104 548.074C327.85 546.606 330.75 542.616 329.294 540.058C323.824 550.631 312.884 549.897 301.577 553.544Z"/><path fill="#263238" stroke="#263238" stroke-linejoin="round" d="M250.901 437.239L277.885 549.897C281.779 549.523 285.59 548.54 289.18 546.984C295.017 544.427 296.841 542.971 298.297 541.147C299.753 539.324 297.93 533.132 297.93 532.042C297.93 530.953 294.65 529.485 294.65 529.485L284.444 432.503L250.901 437.239Z"/><path fill="#fff" stroke="#263238" stroke-linejoin="round" d="M273.788 540.2C273.788 540.2 278.169 547.127 282.171 549.317C286.173 551.507 289.831 552.964 292.022 552.964C294.212 552.964 296.036 557.344 296.391 558.801C296.633 560.001 296.756 561.223 296.758 562.448H263.215C263.215 562.448 242.803 559.89 240.98 555.154C239.156 550.418 253.009 532.552 253.009 532.552L273.788 540.2Z"/><path fill="#fff" stroke="#263238" stroke-linejoin="round" d="M296.533 559.511C288.683 559.428 271.089 559.061 262.493 557.344C255.34 555.79 248.27 553.873 241.311 551.602C240.826 552.721 240.71 553.965 240.98 555.154C242.803 559.89 263.215 562.447 263.215 562.447H296.758C296.751 561.465 296.676 560.484 296.533 559.511Z"/><path fill="#263238" stroke="#263238" stroke-linejoin="round" d="M222.888 386.99L233.094 396.095C233.094 396.095 277.21 399.387 292.519 400.109C307.828 400.831 318.034 405.212 317.679 412.506C317.324 419.799 274.759 534.245 274.759 534.245L274.7 540.922C274.7 540.922 272.876 542.746 264.861 540.922C260.19 539.906 255.741 538.053 251.73 535.452C251.73 535.452 250.274 528.526 253.921 525.613C257.567 522.701 261.534 504.751 261.534 504.751L276.476 432.527H165.275C161.236 419.421 160.488 405.522 163.096 392.058C163.096 392.058 201.742 399.387 222.888 386.99Z"/><path fill="#007C97" stroke="#263238" stroke-linejoin="round" d="M208.739 277.636C203.133 273.525 197.294 269.742 191.252 266.305C181.649 260.894 179.412 263.606 174.51 266.554C169.608 269.502 147.905 283.556 146.188 288.233C144.472 292.91 146.188 298.818 146.188 298.818C146.188 298.818 154.559 350.547 156.773 371.231C158.988 391.916 165.393 402.264 178.938 403.744C192.483 405.224 213.913 397.824 219.585 394.627C225.256 391.43 225.741 392.662 225.244 386.505C224.747 380.348 219.324 358.421 218.59 353.495C217.856 348.57 218.353 337.487 218.353 337.487C218.353 337.487 223.516 312.623 219.537 299.067C217.396 291.277 213.726 283.992 208.739 277.636Z"/><path fill="#fff" stroke="#263238" stroke-linejoin="round" d="M277.66 346.154L317.312 354.359C317.312 354.359 328.797 348.072 331.804 347.788C334.812 347.504 341.371 352.441 342.744 352.986C344.118 353.531 345.479 355.721 346.024 357.639C346.569 359.557 348.759 359.001 346.841 360.646C344.923 362.292 342.472 359.001 342.472 359.001C342.472 359.001 337.002 359.273 333.995 360.919C330.987 362.565 327.151 365.015 323.054 365.572C319.932 365.802 316.793 365.522 313.76 364.743L273.563 361.736C273.563 361.736 279.033 352.986 277.66 346.154Z"/><path stroke="#263238" stroke-linejoin="round" d="M336.173 355.993C336.173 355.993 339.465 354.904 341.643 355.721C343.822 356.538 346.024 357.639 346.024 357.639"/><path stroke="#263238" stroke-linejoin="round" d="M207.839 332.313L196.319 329.626"/><path fill="#007C97" d="M204.927 276.973C204.927 276.973 212.315 278.619 216.956 283.26C221.597 287.901 253.329 334.397 254.418 335.214C255.507 336.031 272.178 344.781 272.178 344.781C272.178 344.781 273.551 352.714 271.089 355.437C268.626 358.16 262.611 361.724 262.611 361.724C262.611 361.724 247.847 360.09 243.194 358.989C238.54 357.888 196.437 323.717 196.437 323.717"/><path stroke="#263238" stroke-linejoin="round" d="M204.927 276.973C204.927 276.973 212.315 278.619 216.956 283.26C221.597 287.901 253.329 334.397 254.418 335.214C255.507 336.031 272.178 344.781 272.178 344.781C272.178 344.781 273.551 352.714 271.089 355.437C268.626 358.16 262.611 361.724 262.611 361.724C262.611 361.724 247.847 360.09 243.194 358.989C238.54 357.888 196.437 323.717 196.437 323.717"/><path stroke="#263238" stroke-linejoin="round" d="M246.426 338.624C248.072 338.695 249.753 338.731 251.482 338.731"/><path stroke="#263238" stroke-linejoin="round" d="M215.642 333.272C224.265 336.004 233.178 337.716 242.199 338.375"/><path fill="#fff" stroke="#263238" stroke-linejoin="round" d="M265.358 340.684C265.358 340.684 268.093 348.072 265.63 353.258C263.993 356.545 261.663 359.438 258.799 361.736C258.799 361.736 271.373 363.926 273.836 363.926C276.298 363.926 280.667 353.27 280.395 347.788C280.123 342.306 265.358 340.684 265.358 340.684Z"/><path stroke="#878787" stroke-linejoin="round" d="M276.476 432.563C284.354 430.217 291.762 426.515 298.368 421.623"/><path stroke="#878787" stroke-linejoin="round" d="M283.402 430.739C283.402 430.739 293.975 429.283 299.812 425.269"/><path fill="#fff" stroke="#263238" stroke-linejoin="round" d="M227.47 433.545C227.47 433.545 197.243 384.291 189.333 315.583C187.463 299.339 174.427 287.084 158.905 287.084C140.588 287.084 126.356 303.933 128.452 323.137C131.732 353.14 138.99 396.9 154.926 434.741L227.47 433.545Z"/><path fill="#263238" stroke="#263238" stroke-linejoin="round" d="M223.279 433.545C223.279 433.545 193.051 384.291 185.142 315.583C183.271 299.339 170.236 287.084 154.713 287.084C136.397 287.084 122.165 303.933 124.261 323.137C127.54 353.14 134.798 396.9 150.735 434.741L223.279 433.545Z"/><path fill="#263238" stroke="#263238" stroke-linejoin="round" d="M224.475 442.864H209.39V525.459H224.475V442.864Z"/><path fill="#263238" stroke="#263238" stroke-linejoin="round" d="M229.151 510.742H203.648V529.059H229.151V510.742Z"/><path fill="#fff" stroke="#263238" stroke-linejoin="round" d="M204.003 520.084L156.241 549.53V554.917H160.906V551.318L203.648 529.059L204.003 520.084Z"/><path fill="#263238" stroke="#263238" stroke-linejoin="round" d="M168.128 555.995C168.128 554.716 167.749 553.466 167.038 552.403C166.328 551.34 165.319 550.511 164.137 550.022C162.956 549.533 161.656 549.405 160.402 549.654C159.148 549.904 157.996 550.519 157.092 551.423C156.188 552.328 155.572 553.479 155.323 554.733C155.073 555.987 155.202 557.287 155.691 558.469C156.18 559.65 157.009 560.659 158.072 561.37C159.135 562.08 160.385 562.459 161.663 562.459C162.512 562.459 163.353 562.292 164.137 561.967C164.922 561.642 165.634 561.166 166.235 560.566C166.835 559.966 167.311 559.253 167.636 558.469C167.961 557.684 168.128 556.844 168.128 555.995Z"/><path fill="#fff" stroke="#263238" stroke-linejoin="round" d="M229.14 520.084L276.902 549.53V554.917H272.237V551.318L229.495 529.059L229.14 520.084Z"/><path fill="#263238" stroke="#263238" stroke-linejoin="round" d="M265.05 555.995C265.05 554.716 265.429 553.466 266.14 552.403C266.85 551.34 267.86 550.511 269.041 550.022C270.222 549.533 271.522 549.405 272.776 549.654C274.03 549.904 275.182 550.519 276.086 551.423C276.99 552.328 277.606 553.479 277.855 554.733C278.105 555.987 277.977 557.287 277.487 558.469C276.998 559.65 276.17 560.659 275.106 561.37C274.043 562.08 272.793 562.459 271.515 562.459C269.8 562.459 268.156 561.778 266.944 560.566C265.731 559.353 265.05 557.709 265.05 555.995Z"/><path fill="#263238" stroke="#263238" stroke-linejoin="round" d="M210.468 555.995C210.468 554.716 210.847 553.466 211.557 552.403C212.268 551.34 213.277 550.511 214.459 550.022C215.64 549.533 216.94 549.405 218.194 549.654C219.448 549.904 220.6 550.519 221.504 551.423C222.408 552.328 223.023 553.479 223.273 554.733C223.522 555.987 223.394 557.287 222.905 558.469C222.416 559.65 221.587 560.659 220.524 561.37C219.461 562.08 218.211 562.459 216.932 562.459C216.083 562.461 215.242 562.295 214.457 561.97C213.672 561.646 212.958 561.17 212.358 560.569C211.757 559.969 211.281 559.255 210.957 558.47C210.632 557.685 210.466 556.844 210.468 555.995Z"/><path fill="#fff" stroke="#263238" stroke-linejoin="round" d="M218.732 519.717H214.778V549.53H218.732V519.717Z"/><path fill="#fff" stroke="#263238" stroke-linejoin="round" d="M254.149 390.11L243.948 433.128L251.402 434.895L261.603 391.878L254.149 390.11Z"/><path fill="#263238" stroke="#263238" stroke-linejoin="round" d="M276.476 382.977H232.727C229.706 382.977 227.257 385.426 227.257 388.447C227.257 391.468 229.706 393.917 232.727 393.917H276.476C279.497 393.917 281.946 391.468 281.946 388.447C281.946 385.426 279.497 382.977 276.476 382.977Z"/><path fill="#263238" stroke="#263238" stroke-linejoin="round" d="M276.109 446.049H153.979C152.24 446.049 150.571 445.357 149.341 444.127C148.111 442.897 147.42 441.229 147.42 439.489C147.42 437.748 148.111 436.079 149.34 434.847C150.57 433.615 152.238 432.921 153.979 432.918H276.109C277.851 432.921 279.52 433.614 280.752 434.846C281.984 436.078 282.677 437.747 282.68 439.489C282.677 441.23 281.983 442.898 280.751 444.128C279.519 445.358 277.85 446.049 276.109 446.049Z"/><path fill="#fff" stroke="#263238" stroke-linejoin="round" d="M276.109 446.049H223.243C221.504 446.049 219.835 445.357 218.605 444.127C217.375 442.897 216.684 441.229 216.684 439.489C216.684 437.748 217.375 436.079 218.604 434.847C219.834 433.615 221.502 432.921 223.243 432.918H276.109C277.851 432.921 279.52 433.614 280.752 434.846C281.984 436.078 282.677 437.747 282.68 439.489C282.677 441.23 281.983 442.898 280.751 444.128C279.519 445.358 277.85 446.049 276.109 446.049Z"/><path stroke="#B6CED3" stroke-linejoin="round" d="M504.68 43.1924H387.867V181.093H504.68V43.1924Z"/><path fill="#fff" stroke="#263238" stroke-linecap="round" stroke-linejoin="round" stroke-width="3" d="M482.658 101.623C482.659 95.9047 481.284 90.2703 478.647 85.1963C476.011 80.1223 472.191 75.758 467.51 72.4726C462.83 69.1873 457.428 67.0775 451.76 66.3218C446.092 65.5661 440.325 66.1868 434.948 68.1312C429.57 70.0757 424.741 73.2868 420.867 77.4928C416.993 81.6988 414.189 86.776 412.693 92.2949C411.196 97.8137 411.051 103.612 412.269 109.199C413.488 114.785 416.034 119.997 419.692 124.391C424.939 130.685 427.81 138.622 427.803 146.816V151.694H466.295V146.816C466.288 138.638 469.155 130.718 474.393 124.439C479.741 118.039 482.667 109.962 482.658 101.623Z"/><path fill="#fff" stroke="#263238" stroke-linecap="round" stroke-linejoin="round" stroke-width="3" d="M466.295 151.682H427.803V161.202H466.295V151.682Z"/><path fill="#fff" stroke="#263238" stroke-linecap="round" stroke-linejoin="round" stroke-width="3" d="M427.803 161.225H466.295V165.156C466.295 166.642 465.705 168.066 464.654 169.116C463.604 170.167 462.18 170.757 460.694 170.757H433.344C431.859 170.757 430.434 170.167 429.384 169.116C428.334 168.066 427.744 166.642 427.744 165.156V161.225H427.803Z"/><path fill="#fff" stroke="#263238" stroke-linecap="round" stroke-linejoin="round" stroke-width="3" d="M432.657 170.733H461.428V172.663C461.428 174.676 460.629 176.606 459.206 178.029C457.782 179.453 455.852 180.252 453.839 180.252H440.247C438.234 180.252 436.303 179.453 434.88 178.029C433.457 176.606 432.657 174.676 432.657 172.663V170.733Z"/><path stroke="#263238" stroke-linecap="round" stroke-linejoin="round" stroke-width="3" d="M487.701 101.8H504.017"/><path stroke="#263238" stroke-linecap="round" stroke-linejoin="round" stroke-width="3" d="M388.553 101.8H405.07"/><path stroke="#263238" stroke-linecap="round" stroke-linejoin="round" stroke-width="3" d="M446.285 60.4314V44.0803"/><path stroke="#263238" stroke-linecap="round" stroke-linejoin="round" stroke-width="3" d="M475.85 72.2358L487.109 60.9878"/><path stroke="#263238" stroke-linecap="round" stroke-linejoin="round" stroke-width="3" d="M405.461 142.625L416.886 131.199"/><path stroke="#263238" stroke-linecap="round" stroke-linejoin="round" stroke-width="3" d="M416.401 71.9161L405.461 60.9878"/><path stroke="#263238" stroke-linecap="round" stroke-linejoin="round" stroke-width="3" d="M487.109 142.625L476.217 131.744"/><path stroke="#B6CED3" stroke-linejoin="round" d="M358.349 43.1924H241.536V181.093H358.349V43.1924Z"/><path stroke="#263238" stroke-linecap="round" stroke-linejoin="round" stroke-width="3" d="M335.64 101.623C335.644 95.9032 334.27 90.2669 331.634 85.1909C328.999 80.1149 325.179 75.7486 320.498 72.4617C315.817 69.1747 310.414 67.0638 304.744 66.3077C299.075 65.5515 293.307 66.1723 287.929 68.1176C282.55 70.0628 277.719 73.2753 273.845 77.483C269.971 81.6907 267.168 86.7698 265.673 92.2904C264.177 97.811 264.034 103.611 265.255 109.198C266.476 114.786 269.025 119.997 272.687 124.391C277.934 130.685 280.804 138.622 280.797 146.816V151.694H319.277V146.816C319.271 138.638 322.138 130.718 327.376 124.438C332.731 118.043 335.657 109.964 335.64 101.623Z"/><path stroke="#263238" stroke-linecap="round" stroke-linejoin="round" stroke-width="3" d="M319.289 151.682H280.797V161.202H319.289V151.682Z"/><path stroke="#263238" stroke-linecap="round" stroke-linejoin="round" stroke-width="3" d="M280.797 161.225H319.289V165.156C319.289 165.892 319.144 166.62 318.863 167.299C318.582 167.979 318.169 168.596 317.649 169.116C317.129 169.636 316.512 170.049 315.832 170.33C315.153 170.612 314.424 170.757 313.689 170.757H286.386C284.901 170.757 283.476 170.167 282.426 169.116C281.376 168.066 280.786 166.642 280.786 165.156V161.225H280.797Z"/><path stroke="#263238" stroke-linecap="round" stroke-linejoin="round" stroke-width="3" d="M285.652 170.733H314.423V172.663C314.423 174.676 313.623 176.606 312.2 178.029C310.777 179.453 308.846 180.252 306.834 180.252H293.241C291.228 180.252 289.298 179.453 287.875 178.029C286.451 176.606 285.652 174.676 285.652 172.663V170.733Z"/><path stroke="#B6CED3" stroke-linejoin="round" d="M258.704 101.8H341.335"/><path stroke="#B6CED3" stroke-linejoin="round" d="M299.919 159.532V60.4314"/><path stroke="#B6CED3" stroke-linejoin="round" d="M270.52 131.199L329.484 72.2358"/><path stroke="#B6CED3" stroke-linejoin="round" d="M329.851 131.744L270.023 71.9163"/><path stroke="#B6CED3" stroke-linejoin="round" d="M300.026 159.994C332.198 159.994 358.278 133.913 358.278 101.741C358.278 69.569 332.198 43.4883 300.026 43.4883C267.853 43.4883 241.773 69.569 241.773 101.741C241.773 133.913 267.853 159.994 300.026 159.994Z"/><path stroke="#B6CED3" stroke-linejoin="round" d="M300.026 143.063C322.847 143.063 341.347 124.563 341.347 101.741C341.347 78.92 322.847 60.4197 300.026 60.4197C277.204 60.4197 258.704 78.92 258.704 101.741C258.704 124.563 277.204 143.063 300.026 143.063Z"/><path stroke="#263238" stroke-linecap="round" stroke-linejoin="round" stroke-width="3" d="M340.696 101.8H357"/><path stroke="#263238" stroke-linecap="round" stroke-linejoin="round" stroke-width="3" d="M241.548 101.8H258.065"/><path stroke="#263238" stroke-linecap="round" stroke-linejoin="round" stroke-width="3" d="M299.268 60.4314V44.0803"/><path stroke="#263238" stroke-linecap="round" stroke-linejoin="round" stroke-width="3" d="M328.832 72.2358L340.092 60.9878"/><path stroke="#263238" stroke-linecap="round" stroke-linejoin="round" stroke-width="3" d="M258.455 142.625L269.881 131.199"/><path stroke="#263238" stroke-linecap="round" stroke-linejoin="round" stroke-width="3" d="M269.384 71.9161L258.455 60.9878"/><path stroke="#263238" stroke-linecap="round" stroke-linejoin="round" stroke-width="3" d="M340.092 142.625L329.211 131.744"/><path stroke="#B6CED3" stroke-linejoin="round" d="M211.865 43.1924H95.0515V181.093H211.865V43.1924Z"/><path stroke="#263238" stroke-linejoin="round" d="M153.908 137.226C173.571 137.226 189.511 121.286 189.511 101.623C189.511 81.96 173.571 66.02 153.908 66.02C134.245 66.02 118.305 81.96 118.305 101.623C118.305 121.286 134.245 137.226 153.908 137.226Z"/><path stroke="#263238" stroke-linejoin="round" d="M173.16 107.413H134.668V151.671H173.16V107.413Z"/><path stroke="#263238" stroke-linejoin="round" d="M173.16 151.682H134.668V161.202H173.16V151.682Z"/><path stroke="#263238" stroke-linejoin="round" d="M173.16 161.225H134.668V170.745H173.16V161.225Z"/><path stroke="#263238" stroke-linejoin="round" d="M168.294 170.733H139.523V180.252H168.294V170.733Z"/><path stroke="#B6CED3" stroke-linejoin="round" d="M96.1053 101.871H211.569"/><path stroke="#B6CED3" stroke-linejoin="round" d="M153.695 160.112V44.0803"/><path stroke="#B6CED3" stroke-linejoin="round" d="M112.61 142.933L195.005 60.5854"/><path stroke="#B6CED3" stroke-linejoin="round" d="M194.744 142.743L112.456 60.8103"/><path stroke="#B6CED3" stroke-linejoin="round" d="M153.908 159.994C186.08 159.994 212.161 133.913 212.161 101.741C212.161 69.569 186.08 43.4883 153.908 43.4883C121.736 43.4883 95.6554 69.569 95.6554 101.741C95.6554 133.913 121.736 159.994 153.908 159.994Z"/><path stroke="#B6CED3" stroke-linejoin="round" d="M153.908 143.063C176.729 143.063 195.23 124.563 195.23 101.741C195.23 78.92 176.729 60.4197 153.908 60.4197C131.087 60.4197 112.587 78.92 112.587 101.741C112.587 124.563 131.087 143.063 153.908 143.063Z"/><path stroke="#fff" stroke-linecap="round" stroke-linejoin="round" d="M31.5418 562.921H515.04"/></svg>