<svg width="203" height="203" viewBox="0 0 203 203" fill="none" xmlns="http://www.w3.org/2000/svg">
<g clip-path="url(#clip0_10_5958)">
<path opacity="0.7" d="M27.5796 67.8385C27.5796 67.8385 16.2603 97.0705 32.1674 126.506C48.0745 155.941 80.8387 171.49 107.062 184.787C133.286 198.083 160.516 191.608 173.455 169.83C186.395 148.052 168.648 132.506 168.624 101.451C168.6 70.3963 173.273 62.1748 156.444 35.9391C139.615 9.70337 98.3617 3.89351 67.1646 23.3531C35.9676 42.8127 27.5796 67.8385 27.5796 67.8385Z" fill="white"/>
<path d="M38.9192 35.6224L39.1465 35.4153C60.088 16.5648 87.8909 15.7122 108.15 36.0081C118.706 46.5844 137.459 44.5625 150.874 48.387C197.125 61.578 189.127 124.329 166.281 154.686C145.665 182.058 100.992 188.246 70.981 174.775C44.591 162.94 26.0368 136.501 19.419 108.853C18.7559 106.081 18.2145 103.284 17.795 100.461C14.3278 76.9045 21.0064 51.9111 38.9192 35.6224Z" fill="#007C97"/>
<path opacity="0.7" d="M38.9192 35.6224L39.1465 35.4153C60.088 16.5648 87.8909 15.7122 108.15 36.0081C118.706 46.5844 137.459 44.5625 150.874 48.387C197.125 61.578 189.127 124.329 166.281 154.686C145.665 182.058 100.992 188.246 70.981 174.775C44.591 162.94 26.0368 136.501 19.419 108.853C18.7559 106.081 18.2145 103.284 17.795 100.461C14.3278 76.9045 21.0064 51.9111 38.9192 35.6224Z" fill="white"/>
<path d="M181.015 74.0584H137.679V69.1377H174.925" stroke="#263238" stroke-linecap="round" stroke-linejoin="round"/>
<path d="M156.302 76.5716V74.0585" stroke="#263238" stroke-linecap="round" stroke-linejoin="round"/>
<path d="M152.814 74.3142L154.211 83.5507H156.302" stroke="#263238" stroke-linecap="round" stroke-linejoin="round"/>
<path d="M146.826 50.8637V69.1377H142.936V45.4476H146.826V46.4748" stroke="#263238" stroke-linecap="round" stroke-linejoin="round"/>
<path d="M146.826 48.2206V48.9676" stroke="#263238" stroke-linecap="round" stroke-linejoin="round"/>
<path d="M156.302 51.7569V45.4476H146.826" stroke="#263238" stroke-linecap="round" stroke-linejoin="round"/>
<path d="M154.507 69.1377H150.618V51.7568H154.507" stroke="#263238" stroke-linecap="round" stroke-linejoin="round"/>
<path d="M163.983 64.6717V51.7568H154.507" stroke="#263238" stroke-linecap="round" stroke-linejoin="round"/>
<path d="M154.507 58.6467V69.1378" stroke="#263238" stroke-linecap="round" stroke-linejoin="round"/>
<path d="M154.507 55.6423V57.6683" stroke="#263238" stroke-linecap="round" stroke-linejoin="round"/>
<path d="M154.507 52.7759V53.7584" stroke="#263238" stroke-linecap="round" stroke-linejoin="round"/>
<path d="M142.936 51.424H146.826" stroke="#263238" stroke-linecap="round" stroke-linejoin="round"/>
<path d="M143.692 55.6423H146.826" stroke="#263238" stroke-linecap="round" stroke-linejoin="round"/>
<path d="M150.618 64.8057H153.375" stroke="#263238" stroke-linecap="round" stroke-linejoin="round"/>
<path d="M150.618 66.4257H154.507" stroke="#263238" stroke-linecap="round" stroke-linejoin="round"/>
<path d="M156.302 56.4015H162.603V58.9349" stroke="#263238" stroke-linecap="round" stroke-linejoin="round"/>
<path d="M161.34 58.9349H156.302V57.9484" stroke="#263238" stroke-linecap="round" stroke-linejoin="round"/>
<path d="M155.875 80.4326L156.302 83.5507" stroke="#263238" stroke-linecap="round" stroke-linejoin="round"/>
<path d="M155.498 77.5745C155.583 78.1835 155.664 78.7925 155.746 79.3933" stroke="#263238" stroke-linecap="round" stroke-linejoin="round"/>
<path d="M155.007 74.0585C155.064 74.4645 155.124 74.9029 155.181 75.3252" stroke="#263238" stroke-linecap="round" stroke-linejoin="round"/>
<path d="M175.185 69.1378H160.114C159.541 69.141 158.989 68.9168 158.58 68.5143C158.172 68.1117 157.939 67.5636 157.934 66.99C157.935 66.4157 158.164 65.8653 158.57 65.4596C158.977 65.0539 159.528 64.826 160.102 64.826H175.173" stroke="#263238" stroke-linecap="round" stroke-linejoin="round"/>
<path d="M180.869 69.1378H169.858C169.285 69.141 168.733 68.9168 168.324 68.5143C167.916 68.1117 167.683 67.5636 167.678 66.99C167.679 66.4157 167.908 65.8653 168.314 65.4596C168.721 65.0539 169.272 64.826 169.846 64.826H177.609" stroke="#263238" stroke-linecap="round" stroke-linejoin="round"/>
<path d="M169.826 65.9872H176.785" stroke="#263238" stroke-linecap="round" stroke-linejoin="round"/>
<path d="M178.713 66.9697H172.562" stroke="#263238" stroke-linecap="round" stroke-linejoin="round"/>
<path d="M170.893 68.1187H176.784" stroke="#263238" stroke-linecap="round" stroke-linejoin="round"/>
<path opacity="0.3" d="M130.732 162.599L75.5931 176.61C74.0205 176.036 72.4831 175.412 70.9809 174.738C64.0635 171.606 57.6209 167.517 51.8421 162.591L130.732 162.599Z" fill="black" fill-opacity="0.7"/>
<path d="M81.7562 145.916V147.179C81.7562 147.261 81.74 147.342 81.7086 147.418C81.6772 147.494 81.6311 147.563 81.5731 147.621C81.515 147.679 81.4461 147.725 81.3702 147.757C81.2944 147.788 81.2131 147.804 81.131 147.804H56.5842C56.2953 147.804 56.0104 147.738 55.7514 147.61C55.4923 147.482 55.2662 147.296 55.0904 147.067C54.9146 146.838 54.7938 146.571 54.7374 146.288C54.6811 146.005 54.6906 145.712 54.7653 145.433L57.652 134.67L61.643 119.681H74.1234L74.5538 126.404L75.1181 135.133L75.585 142.413C75.6336 143.192 75.9777 143.924 76.5473 144.459C77.1169 144.994 77.869 145.292 78.6503 145.291H81.1513C81.3135 145.296 81.4674 145.365 81.5803 145.481C81.6932 145.598 81.7563 145.754 81.7562 145.916Z" fill="#007C97"/>
<mask id="mask0_10_5958" style="mask-type:luminance" maskUnits="userSpaceOnUse" x="54" y="119" width="28" height="29">
<path d="M81.7562 145.916V147.179C81.7562 147.261 81.74 147.342 81.7086 147.418C81.6772 147.494 81.6311 147.563 81.5731 147.621C81.515 147.679 81.4461 147.725 81.3702 147.757C81.2944 147.788 81.2131 147.804 81.131 147.804H56.5842C56.2953 147.804 56.0104 147.738 55.7514 147.61C55.4923 147.482 55.2662 147.296 55.0904 147.067C54.9146 146.838 54.7938 146.571 54.7374 146.288C54.6811 146.005 54.6906 145.712 54.7653 145.433L57.652 134.67L61.643 119.681H74.1234L74.5538 126.404L75.1181 135.133L75.585 142.413C75.6336 143.192 75.9777 143.924 76.5473 144.459C77.1169 144.994 77.869 145.292 78.6503 145.291H81.1513C81.3135 145.296 81.4674 145.365 81.5803 145.481C81.6932 145.598 81.7563 145.754 81.7562 145.916Z" fill="white"/>
</mask>
<g mask="url(#mask0_10_5958)">
<path opacity="0.3" d="M78.63 145.291H57.112L59.6251 134.914L61.6064 126.729L74.5172 126.404L75.0816 135.133L75.5485 142.413C75.5972 143.195 75.9436 143.93 76.5167 144.465C77.0897 145 77.8459 145.296 78.63 145.291Z" fill="black" fill-opacity="0.7"/>
<path opacity="0.3" d="M75.11 135.133C69.9637 135.583 64.785 135.51 59.6535 134.914C58.943 134.841 58.2731 134.755 57.6235 134.67L61.6145 119.681H74.095L74.5253 126.404L75.11 135.133Z" fill="black" fill-opacity="0.7"/>
</g>
<path d="M81.7562 145.916V147.179C81.7562 147.261 81.74 147.342 81.7086 147.418C81.6772 147.494 81.6311 147.563 81.5731 147.621C81.515 147.679 81.4461 147.725 81.3702 147.757C81.2944 147.788 81.2131 147.804 81.131 147.804H56.5842C56.2953 147.804 56.0104 147.738 55.7514 147.61C55.4923 147.482 55.2662 147.296 55.0904 147.067C54.9146 146.838 54.7938 146.571 54.7374 146.288C54.6811 146.005 54.6906 145.712 54.7653 145.433L57.652 134.67L61.643 119.681H74.1234L74.5538 126.404L75.1181 135.133L75.585 142.413C75.6336 143.192 75.9777 143.924 76.5473 144.459C77.1169 144.994 77.869 145.292 78.6503 145.291H81.1513C81.3135 145.296 81.4674 145.365 81.5803 145.481C81.6932 145.598 81.7563 145.754 81.7562 145.916Z" stroke="#263238" stroke-linecap="round" stroke-linejoin="round"/>
<path d="M123.931 124.914C123.932 125.647 123.651 126.353 123.148 126.886C122.644 127.419 121.956 127.739 121.223 127.78C112.239 128.292 83.4005 129.875 72.605 129.875C61.8094 129.875 32.9712 128.296 23.9905 127.78C23.2577 127.74 22.5682 127.42 22.0638 126.887C21.5594 126.354 21.2784 125.648 21.2784 124.914V54.7369C21.2784 53.9746 21.5813 53.2434 22.1204 52.7043C22.6594 52.1653 23.3906 51.8624 24.1529 51.8624H121.057C121.819 51.8624 122.551 52.1653 123.09 52.7043C123.629 53.2434 123.931 53.9746 123.931 54.7369V124.914Z" fill="#007C97" stroke="#263238" stroke-linecap="round" stroke-linejoin="round"/>
<path d="M125.43 124.914C125.431 125.648 125.151 126.354 124.647 126.887C124.143 127.42 123.454 127.74 122.722 127.78C113.737 128.292 84.8987 129.875 74.1031 129.875C63.3076 129.875 34.4694 128.296 25.4887 127.78C24.7559 127.74 24.0664 127.42 23.562 126.887C23.0576 126.354 22.7765 125.648 22.7766 124.914V54.7369C22.7766 53.9746 23.0795 53.2434 23.6185 52.7043C24.1576 52.1653 24.8887 51.8624 25.6511 51.8624H122.555C123.318 51.8624 124.049 52.1653 124.588 52.7043C125.127 53.2434 125.43 53.9746 125.43 54.7369V124.914Z" fill="#007C97" stroke="#263238" stroke-linecap="round" stroke-linejoin="round"/>
<path d="M122.726 54.4283H25.4886V124.029H122.726V54.4283Z" fill="#263238" stroke="#263238" stroke-linecap="round" stroke-linejoin="round"/>
<path opacity="0.2" d="M122.726 54.4283H25.4886V124.029H122.726V54.4283Z" fill="white"/>
<path d="M122.726 54.4283H25.4886V62.0977H122.726V54.4283Z" fill="white" stroke="#263238" stroke-linecap="round" stroke-linejoin="round"/>
<path d="M36.1461 62.0977H25.4886V124.029H36.1461V62.0977Z" fill="#BFBFBF" stroke="#263238" stroke-miterlimit="10"/>
<path d="M121.532 56.84C121.533 57.0513 121.471 57.2582 121.354 57.4343C121.237 57.6104 121.071 57.7479 120.876 57.8294C120.681 57.9108 120.466 57.9325 120.258 57.8918C120.051 57.851 119.86 57.7497 119.711 57.6005C119.561 57.4513 119.459 57.2611 119.417 57.0538C119.376 56.8466 119.397 56.6317 119.477 56.4363C119.558 56.241 119.695 56.074 119.871 55.9565C120.046 55.839 120.253 55.7763 120.464 55.7763C120.604 55.7757 120.743 55.8028 120.873 55.8561C121.002 55.9093 121.12 55.9875 121.219 56.0864C121.318 56.1852 121.397 56.3026 121.451 56.432C121.504 56.5613 121.532 56.6999 121.532 56.84Z" fill="#BFBFBF" stroke="#263238" stroke-miterlimit="10"/>
<path d="M117.427 56.84C117.427 57.0503 117.365 57.256 117.248 57.4309C117.131 57.6059 116.965 57.7422 116.771 57.8227C116.576 57.9032 116.362 57.9243 116.156 57.8832C115.95 57.8422 115.76 57.7409 115.611 57.5921C115.463 57.4434 115.361 57.2538 115.32 57.0475C115.279 56.8411 115.3 56.6273 115.381 56.4329C115.461 56.2385 115.598 56.0724 115.773 55.9555C115.948 55.8386 116.153 55.7762 116.364 55.7762C116.646 55.7762 116.916 55.8883 117.116 56.0878C117.315 56.2873 117.427 56.5578 117.427 56.84Z" fill="#BFBFBF" stroke="#263238" stroke-miterlimit="10"/>
<path d="M113.327 56.84C113.327 57.0503 113.264 57.256 113.148 57.4309C113.031 57.6059 112.865 57.7422 112.67 57.8227C112.476 57.9032 112.262 57.9243 112.056 57.8832C111.849 57.8422 111.66 57.7409 111.511 57.5921C111.362 57.4434 111.261 57.2538 111.22 57.0475C111.179 56.8411 111.2 56.6273 111.28 56.4329C111.361 56.2385 111.497 56.0724 111.672 55.9555C111.847 55.8386 112.053 55.7762 112.263 55.7762C112.545 55.7762 112.816 55.8883 113.015 56.0878C113.215 56.2873 113.327 56.5578 113.327 56.84Z" fill="#BFBFBF" stroke="#263238" stroke-miterlimit="10"/>
<path d="M34.4003 64.7854H27.2263V67.6802H34.4003V64.7854Z" fill="white" stroke="#263238" stroke-linecap="round" stroke-linejoin="round"/>
<path d="M34.4003 68.5491H27.2263V71.4439H34.4003V68.5491Z" fill="white" stroke="#263238" stroke-linecap="round" stroke-linejoin="round"/>
<path d="M34.4003 72.3086H27.2263V75.2034H34.4003V72.3086Z" fill="white" stroke="#263238" stroke-linecap="round" stroke-linejoin="round"/>
<path d="M34.4003 76.0721H27.2263V78.9669H34.4003V76.0721Z" fill="white" stroke="#263238" stroke-linecap="round" stroke-linejoin="round"/>
<path d="M34.4003 83.0919H27.2263V85.9867H34.4003V83.0919Z" fill="white" stroke="#263238" stroke-linecap="round" stroke-linejoin="round"/>
<path d="M34.4003 86.7338H27.2263V89.6285H34.4003V86.7338Z" fill="white" stroke="#263238" stroke-linecap="round" stroke-linejoin="round"/>
<path d="M34.4003 90.3756H27.2263V93.2704H34.4003V90.3756Z" fill="white" stroke="#263238" stroke-linecap="round" stroke-linejoin="round"/>
<path d="M34.4003 94.0133H27.2263V96.9081H34.4003V94.0133Z" fill="white" stroke="#263238" stroke-linecap="round" stroke-linejoin="round"/>
<path d="M34.4003 97.6552H27.2263V100.55H34.4003V97.6552Z" fill="white" stroke="#263238" stroke-linecap="round" stroke-linejoin="round"/>
<path d="M30.1211 104.691H27.2263V107.586H30.1211V104.691Z" fill="white" stroke="#263238" stroke-linecap="round" stroke-linejoin="round"/>
<path d="M34.4044 104.691H31.5096V107.586H34.4044V104.691Z" fill="white" stroke="#263238" stroke-linecap="round" stroke-linejoin="round"/>
<path d="M30.1211 109.007H27.2263V111.902H30.1211V109.007Z" fill="white" stroke="#263238" stroke-linecap="round" stroke-linejoin="round"/>
<path d="M34.4044 109.007H31.5096V111.902H34.4044V109.007Z" fill="white" stroke="#263238" stroke-linecap="round" stroke-linejoin="round"/>
<path d="M25.4886 81.1675H36.1421" stroke="#263238" stroke-linecap="round" stroke-linejoin="round"/>
<path d="M25.4886 102.799H36.1421" stroke="#263238" stroke-linecap="round" stroke-linejoin="round"/>
<path d="M107.03 56.028H95.5724V57.6601H107.03V56.028Z" fill="#BFBFBF" stroke="#263238" stroke-miterlimit="10"/>
<path d="M29.504 55.7073H27.2263V57.9849H29.504V55.7073Z" fill="#BFBFBF" stroke="#263238" stroke-miterlimit="10"/>
<path d="M42.5488 147.804H138.397C106.437 147.791 74.4874 147.784 42.5488 147.784V147.804Z" fill="white" stroke="#263238" stroke-linecap="round" stroke-linejoin="round"/>
<path d="M24.36 147.804H27.2832H24.36Z" fill="white"/>
<path d="M24.36 147.804H27.2832" stroke="#263238" stroke-linecap="round" stroke-linejoin="round"/>
<path d="M51.7244 153.906H76.5107V148.84L51.7812 149.164L51.7244 153.906Z" fill="#263238" stroke="#263238" stroke-linecap="round" stroke-linejoin="round"/>
<path d="M123.838 153.906H69.5559L53.1129 149.911L51.7812 147.013H98.4672L123.838 152.108V153.906Z" fill="#007C97" stroke="#263238" stroke-linecap="round" stroke-linejoin="round"/>
<path d="M78.2768 152.108H123.838L98.4672 147.013H51.7812L69.5559 152.108H76.1372" fill="#007C97"/>
<mask id="mask1_10_5958" style="mask-type:luminance" maskUnits="userSpaceOnUse" x="51" y="147" width="73" height="6">
<path d="M78.2768 152.108H123.838L98.4672 147.013H51.7812L69.5559 152.108H76.1372" fill="white"/>
</mask>
<g mask="url(#mask1_10_5958)">
<path opacity="0.3" d="M51.7812 147.013L69.5559 152.108H123.838L98.4672 147.013H51.7812Z" fill="black" fill-opacity="0.7"/>
</g>
<path d="M78.2768 152.108H123.838L98.4672 147.013H51.7812L69.5559 152.108H76.1372" stroke="#263238" stroke-linecap="round" stroke-linejoin="round"/>
<path d="M69.5559 153.233V153.906" stroke="#263238" stroke-linecap="round" stroke-linejoin="round"/>
<path d="M53.7463 149.116C53.8609 149.554 53.9183 150.006 53.9168 150.46C53.9168 152.364 52.9343 153.906 51.7244 153.906C50.5145 153.906 49.528 152.364 49.528 150.46C49.528 148.555 50.5105 147.013 51.7244 147.013C52.3943 147.013 52.9911 147.484 53.3971 148.231" fill="#007C97"/>
<path d="M53.7463 149.116C53.8609 149.554 53.9183 150.006 53.9168 150.46C53.9168 152.364 52.9343 153.906 51.7244 153.906C50.5145 153.906 49.528 152.364 49.528 150.46C49.528 148.555 50.5105 147.013 51.7244 147.013C52.3943 147.013 52.9911 147.484 53.3971 148.231" stroke="#263238" stroke-linecap="round" stroke-linejoin="round"/>
<path d="M42.4026 157.743C73.486 157.934 105.154 157.934 136.595 157.743H42.4026Z" fill="white"/>
<path d="M42.4026 157.743C73.486 157.934 105.154 157.934 136.595 157.743" stroke="#263238" stroke-linecap="round" stroke-linejoin="round"/>
<path d="M34.8672 157.743C36.396 157.934 37.9425 157.934 39.4713 157.743H34.8672Z" fill="white"/>
<path d="M34.8672 157.743C36.396 157.934 37.9425 157.934 39.4713 157.743" stroke="#263238" stroke-linecap="round" stroke-linejoin="round"/>
<path d="M80.0591 162.599C98.658 162.4 116.928 162.4 135.511 162.599H80.0591Z" fill="white"/>
<path d="M80.0591 162.599C98.658 162.4 116.928 162.4 135.511 162.599" stroke="#263238" stroke-linecap="round" stroke-linejoin="round"/>
<path d="M44.4935 162.599C54.404 162.4 64.148 162.4 73.7783 162.599H44.4935Z" fill="white"/>
<path d="M44.4935 162.599C54.404 162.4 64.148 162.4 73.7783 162.599" stroke="#263238" stroke-linecap="round" stroke-linejoin="round"/>
<path d="M234.25 261.5C234.25 262.362 233.907 263.189 233.298 263.798C232.688 264.408 231.862 264.75 231 264.75H153C152.138 264.75 151.311 264.408 150.702 263.798C150.092 263.189 149.75 262.362 149.75 261.5C149.75 260.638 150.092 259.811 150.702 259.202C151.311 258.592 152.138 258.25 153 258.25H231C231.862 258.25 232.688 258.592 233.298 259.202C233.907 259.811 234.25 260.638 234.25 261.5ZM234.25 199.75V245.25C234.25 246.974 233.565 248.627 232.346 249.846C231.127 251.065 229.474 251.75 227.75 251.75H156.25C154.526 251.75 152.873 251.065 151.654 249.846C150.435 248.627 149.75 246.974 149.75 245.25V199.75C149.75 198.026 150.435 196.373 151.654 195.154C152.873 193.935 154.526 193.25 156.25 193.25H227.75C229.474 193.25 231.127 193.935 232.346 195.154C233.565 196.373 234.25 198.026 234.25 199.75ZM206.625 222.5C206.625 221.978 206.499 221.463 206.258 221C206.016 220.537 205.667 220.139 205.24 219.839L188.99 208.464C188.503 208.123 187.931 207.922 187.338 207.883C186.745 207.844 186.152 207.968 185.625 208.243C185.097 208.517 184.655 208.931 184.347 209.439C184.038 209.947 183.875 210.53 183.875 211.125V233.875C183.875 234.47 184.038 235.053 184.347 235.561C184.655 236.069 185.097 236.483 185.625 236.757C186.152 237.032 186.745 237.156 187.338 237.117C187.931 237.078 188.503 236.877 188.99 236.536L205.24 225.161C205.667 224.861 206.016 224.463 206.258 224C206.499 223.537 206.625 223.022 206.625 222.5Z" fill="white"/>
<path d="M124.281 109.64C122.638 110.032 120.942 110.142 119.262 109.965L118.682 109.888C116.55 109.567 116.498 107.334 114.91 98.7798C114.455 96.3438 116.092 93.1567 115.146 89.4906C114.947 88.7151 116.213 82.9052 117.951 81.0255C123.607 74.9111 136.603 76.0601 138.795 84.2735C142.011 96.2789 133.842 107.399 124.281 109.64Z" fill="white" stroke="#263238" stroke-linecap="round" stroke-linejoin="round"/>
<path d="M121.138 105.26C121.012 106.563 117.647 109.023 118.682 109.888" stroke="#263238" stroke-linecap="round" stroke-linejoin="round"/>
<path d="M124.281 109.64C122.638 110.032 120.941 110.142 119.262 109.965C120.61 109.425 121.82 108.593 122.807 107.529L124.281 109.64Z" fill="#263238"/>
<path d="M62.4306 146.058C62.3158 146.635 62.3158 147.228 62.4306 147.804C62.4603 147.924 62.5292 148.03 62.6263 148.106C62.7235 148.182 62.8432 148.223 62.9665 148.223C63.0899 148.223 63.2096 148.182 63.3067 148.106C63.4039 148.03 63.4728 147.924 63.5025 147.804C63.7254 147.194 64.0126 146.608 64.3591 146.058" fill="white"/>
<path d="M62.4306 146.058C62.3158 146.635 62.3158 147.228 62.4306 147.804C62.4603 147.924 62.5292 148.03 62.6263 148.106C62.7235 148.182 62.8432 148.223 62.9665 148.223C63.0899 148.223 63.2096 148.182 63.3067 148.106C63.4039 148.03 63.4728 147.924 63.5025 147.804C63.7254 147.194 64.0126 146.608 64.3591 146.058" stroke="#263238" stroke-linecap="round" stroke-linejoin="round"/>
<path d="M96.5833 147.565C96.5833 147.565 77.8383 143.249 76.3929 143.391C74.9476 143.533 68.3907 138.17 67.5137 138.231C66.6368 138.292 63.336 140.813 63.336 140.813L59.5683 145.348L58.5127 147.991C58.5127 147.991 59.0527 149.343 60.6807 147.423L63.3482 146.046C63.3482 146.046 68.0659 150.382 72.8607 149.66C72.8607 149.66 92.9009 161.166 96.6929 160.768C100.485 160.37 113.302 147.423 113.302 147.423L96.5833 147.565Z" fill="white" stroke="#263238" stroke-linecap="round" stroke-linejoin="round"/>
<path d="M122.429 108.361C123.59 109.173 124.983 112.535 123.769 116.262L139.01 115.097C139.01 115.097 135.092 108.849 134.159 103.226C133.225 97.6025 126.189 101.727 126.189 101.727" fill="white"/>
<path d="M122.429 108.361C123.59 109.173 124.983 112.535 123.769 116.262L139.01 115.097C139.01 115.097 135.092 108.849 134.159 103.226C133.225 97.6025 126.189 101.727 126.189 101.727" stroke="#263238" stroke-linecap="round" stroke-linejoin="round"/>
<path d="M142.275 87.3306C140.825 78.6503 134.967 75.6053 129.08 75.8327L126.773 75.5282C117.841 74.3467 113.534 78.1631 112.819 81.7643C112.3 84.3628 113.42 87.9761 118.503 89.6732C118.134 89.1632 117.872 88.5838 117.732 87.9698C117.593 87.3558 117.579 86.7199 117.691 86.1004C117.952 86.8061 118.278 87.4857 118.666 88.1304C120.367 91.0049 120.667 92.4056 120.85 93.4531L121.309 93.9037C121.532 92.6857 122.121 91.0618 123.615 92.2513C126.319 94.4234 125.085 99.8679 123.927 101.545C123.927 101.545 126.388 107.399 134.252 106.169C134.248 106.181 143.724 96.0109 142.275 87.3306Z" fill="#263238"/>
<path d="M122.157 94.6345C122.157 94.6345 121.471 90.8953 122.644 91.1064C123.818 91.3175 124.557 95.2354 124.114 97.505C123.672 99.7745 122.649 101.906 121.828 101.159C121.008 100.412 122.234 99.336 122.234 99.336" fill="white"/>
<path d="M122.157 94.6345C122.157 94.6345 121.471 90.8953 122.644 91.1064C123.818 91.3175 124.557 95.2354 124.114 97.505C123.672 99.7745 122.649 101.906 121.828 101.159C121.008 100.412 122.234 99.336 122.234 99.336" stroke="#263238" stroke-linecap="round" stroke-linejoin="round"/>
<path d="M164.024 157.471C155.79 167.049 144.443 173.736 131.95 177.605C129.368 178.417 126.742 179.093 124.074 179.635C123.359 179.784 122.642 179.919 121.922 180.041C120.436 180.311 118.947 180.55 117.456 180.755C116.709 171.779 114.748 162.485 113.177 153.838C112.848 152.015 112.535 150.216 112.251 148.458C112.198 148.109 112.141 147.76 112.088 147.415C111.581 144.102 111.199 140.919 111.041 137.947C110.594 129.287 112.068 122.271 117.943 118.341C119.326 117.433 120.829 116.724 122.409 116.234C122.482 116.169 123.079 115.682 124.033 115.016C126.579 113.302 131.719 110.444 136.846 111.143C137.078 111.175 137.309 111.212 137.541 111.26C138.501 111.453 139.43 111.776 140.301 112.223C143.027 112.715 145.675 113.565 148.178 114.752C150.93 116.075 153.772 118.028 155.575 120.842C158.413 125.255 161.848 144.069 164.024 157.471Z" fill="#999999"/>
<mask id="mask2_10_5958" style="mask-type:luminance" maskUnits="userSpaceOnUse" x="110" y="111" width="55" height="70">
<path d="M164.024 157.471C155.79 167.049 144.443 173.736 131.95 177.605C129.368 178.417 126.742 179.093 124.074 179.635C123.359 179.784 122.642 179.919 121.922 180.041C120.436 180.311 118.947 180.55 117.456 180.755C116.709 171.779 114.748 162.485 113.177 153.838C112.848 152.015 112.535 150.216 112.251 148.458C112.198 148.109 112.141 147.76 112.088 147.415C111.581 144.102 111.199 140.919 111.041 137.947C110.594 129.287 112.068 122.271 117.943 118.341C119.326 117.433 120.829 116.724 122.409 116.234C122.482 116.169 123.079 115.682 124.033 115.016C126.579 113.302 131.719 110.444 136.846 111.143C137.078 111.175 137.309 111.212 137.541 111.26C138.501 111.453 139.43 111.776 140.301 112.223C143.027 112.715 145.675 113.565 148.178 114.752C150.93 116.075 153.772 118.028 155.575 120.842C158.413 125.255 161.848 144.069 164.024 157.471Z" fill="white"/>
</mask>
<g mask="url(#mask2_10_5958)">
<path opacity="0.3" d="M126.81 139.741C126.81 139.741 124.427 152.676 119.908 156.586C119.908 156.586 118.061 160.646 114.663 161.921C114.159 159.197 113.643 156.501 113.164 153.866C112.836 152.043 112.523 150.244 112.239 148.486C112.186 148.137 112.129 147.788 112.076 147.443C112.024 147.098 111.967 146.733 111.918 146.379L126.81 139.741Z" fill="black" fill-opacity="0.7"/>
<path opacity="0.3" d="M164.024 157.471C155.79 167.049 144.443 173.736 131.95 177.605C129.368 178.417 126.742 179.093 124.074 179.635C123.359 179.784 122.642 179.919 121.922 180.041C121.276 180.163 120.631 180.272 119.981 180.378C120.639 172.968 121.946 162.165 124.074 160.764C124.074 160.764 125.738 148.99 127.5 143.01C130.972 131.211 125.742 119.644 136.116 114.728C133.042 115.097 129.931 115.031 126.875 114.533C128.698 113.132 132.705 111.922 136.712 111.126L136.887 111.147C137.118 111.179 137.35 111.216 137.581 111.264C138.541 111.457 139.47 111.78 140.342 112.227C143.068 112.719 145.716 113.569 148.218 114.756C150.971 116.08 153.813 118.032 155.616 120.846C158.413 125.255 161.848 144.069 164.024 157.471Z" fill="black" fill-opacity="0.7"/>
</g>
<path d="M164.024 157.471C155.79 167.049 144.443 173.736 131.95 177.605C129.368 178.417 126.742 179.093 124.074 179.635C123.359 179.784 122.642 179.919 121.922 180.041C120.436 180.311 118.947 180.55 117.456 180.755C116.709 171.779 114.748 162.485 113.177 153.838C112.848 152.015 112.535 150.216 112.251 148.458C112.198 148.109 112.141 147.76 112.088 147.415C111.581 144.102 111.199 140.919 111.041 137.947C110.594 129.287 112.068 122.271 117.943 118.341C119.326 117.433 120.829 116.724 122.409 116.234C122.482 116.169 123.079 115.682 124.033 115.016C126.579 113.302 131.719 110.444 136.846 111.143C137.078 111.175 137.309 111.212 137.541 111.26C138.501 111.453 139.43 111.776 140.301 112.223C143.027 112.715 145.675 113.565 148.178 114.752C150.93 116.075 153.772 118.028 155.575 120.842C158.413 125.255 161.848 144.069 164.024 157.471Z" stroke="#263238" stroke-linecap="round" stroke-linejoin="round"/>
<path d="M117.854 118.252C108.02 120.586 105.057 132.652 100.31 136.258C97.395 138.502 94.9071 141.252 92.9659 144.378C92.9659 144.378 88.7435 145.084 88.7435 146.619C88.7435 148.153 87.3387 156.55 95.7957 158.941C104.253 161.332 106.713 157.869 106.713 157.869C106.713 157.869 121.126 149.315 123.765 145.766C125.691 143.274 126.92 140.316 127.328 137.193C127.736 134.07 127.308 130.895 126.087 127.992" fill="#999999"/>
<mask id="mask3_10_5958" style="mask-type:luminance" maskUnits="userSpaceOnUse" x="88" y="118" width="40" height="42">
<path d="M117.854 118.252C108.02 120.586 105.057 132.652 100.31 136.258C97.395 138.502 94.9071 141.252 92.9659 144.378C92.9659 144.378 88.7435 145.084 88.7435 146.619C88.7435 148.153 87.3387 156.55 95.7957 158.941C104.253 161.332 106.713 157.869 106.713 157.869C106.713 157.869 121.126 149.315 123.765 145.766C125.691 143.274 126.92 140.316 127.328 137.193C127.736 134.07 127.308 130.895 126.087 127.992" fill="white"/>
</mask>
<g mask="url(#mask3_10_5958)">
<path opacity="0.3" d="M104.062 155.811C90.9359 157.812 90.197 149.29 90.6111 145.023C91.3763 144.745 92.1642 144.533 92.9659 144.39C92.9659 144.39 93.0958 144.162 93.3719 143.773C91.955 150.654 104.062 155.811 104.062 155.811Z" fill="black" fill-opacity="0.7"/>
</g>
<path d="M117.854 118.252C108.02 120.586 105.057 132.652 100.31 136.258C97.395 138.502 94.9071 141.252 92.9659 144.378C92.9659 144.378 88.7435 145.084 88.7435 146.619C88.7435 148.153 87.3387 156.55 95.7957 158.941C104.253 161.332 106.713 157.869 106.713 157.869C106.713 157.869 121.126 149.315 123.765 145.766C125.691 143.274 126.92 140.316 127.328 137.193C127.736 134.07 127.308 130.895 126.087 127.992" stroke="#263238" stroke-linecap="round" stroke-linejoin="round"/>
<path d="M63.0721 144.772C63.0721 144.772 62.8569 143.273 63.0721 142.685C63.2873 142.096 64.2901 142.254 64.4119 141.613C64.5337 140.971 65.0534 139.741 65.7517 139.741C66.45 139.741 67.0346 139.023 67.0346 139.023" stroke="#263238" stroke-linecap="round" stroke-linejoin="round"/>
<path d="M59.5683 145.348C59.5683 145.348 61.8622 143.724 62.4306 143.367" stroke="#263238" stroke-linecap="round" stroke-linejoin="round"/>
<path d="M124.642 136.526C124.642 136.526 107.042 140.744 101.711 134.902" stroke="#263238" stroke-linecap="round" stroke-linejoin="round"/>
<path d="M92.9739 144.39C92.9739 144.39 91.4027 149.668 95.4099 152.916C99.4172 156.164 104.565 155.819 104.565 155.819" stroke="#263238" stroke-linecap="round" stroke-linejoin="round"/>
<path d="M122.429 116.262C122.429 116.262 133.761 111.289 140.346 112.255" stroke="#263238" stroke-linecap="round" stroke-linejoin="round"/>
<path d="M129.299 139.741C129.299 139.741 126.164 147.573 119.461 149.558" stroke="#263238" stroke-linecap="round" stroke-linejoin="round"/>
<path d="M116.425 151.706C116.425 151.706 121.268 161.905 132.433 163.671" stroke="#263238" stroke-linecap="round" stroke-linejoin="round"/>
<path d="M124.074 179.643C123.899 177.641 123.668 175.177 123.383 172.814C122.953 169.16 122.437 165.725 121.91 164.641C120.627 161.99 120.891 157.694 120.891 157.694C119.068 155.258 119.461 150.464 119.461 150.464" stroke="#263238" stroke-linecap="round" stroke-linejoin="round"/>
<g opacity="0.4">
<path d="M130.363 89.7261C131.183 90.0143 132.03 90.2171 132.892 90.331" stroke="white" stroke-linecap="round" stroke-linejoin="round"/>
<path d="M121.65 76.4945C119.189 77.5501 118.073 80.7047 119.494 82.8809C121.646 85.9421 125.178 87.5052 128.572 89.0724" stroke="white" stroke-linecap="round" stroke-linejoin="round"/>
<path d="M117.915 77.4567C114.326 79.1497 113.233 82.6088 115.941 85.7188" stroke="white" stroke-linecap="round" stroke-linejoin="round"/>
<path d="M138.446 89.653C138.845 90.1576 139.176 90.7116 139.432 91.3013" stroke="white" stroke-linecap="round" stroke-linejoin="round"/>
<path d="M129.766 78.0292C128.203 83.2706 134.833 85.6376 137.618 88.6542" stroke="white" stroke-linecap="round" stroke-linejoin="round"/>
</g>
<path d="M183.747 110.432C183.674 110.956 183.601 111.475 183.52 111.999C181.108 127.89 174.706 143.48 166.281 154.686C165.559 155.65 164.805 156.585 164.02 157.491C155.786 167.069 144.439 173.756 131.946 177.625C129.364 178.437 126.738 179.114 124.07 179.655C123.355 179.804 122.638 179.939 121.918 180.061C122.344 177.958 122.835 175.506 123.379 172.806C124.082 169.306 124.865 165.396 125.681 161.32C129.262 143.411 133.46 122.255 134.114 118.247C134.261 117.283 134.487 116.332 134.792 115.405C135.169 114.231 135.781 113.145 136.591 112.214C136.761 112.028 136.94 111.845 137.131 111.666C137.321 111.488 137.427 111.406 137.581 111.281C140.423 109.015 145.458 108.033 154.576 108.167C170.297 108.414 179.192 105.353 183.642 110.294C183.68 110.338 183.715 110.384 183.747 110.432Z" fill="#007C97"/>
<mask id="mask4_10_5958" style="mask-type:luminance" maskUnits="userSpaceOnUse" x="121" y="107" width="63" height="74">
<path d="M183.747 110.432C183.674 110.956 183.601 111.475 183.52 111.999C181.108 127.89 174.706 143.48 166.281 154.686C165.559 155.65 164.805 156.585 164.02 157.491C155.786 167.069 144.439 173.756 131.946 177.625C129.364 178.437 126.738 179.114 124.07 179.655C123.355 179.804 122.638 179.939 121.918 180.061C122.344 177.958 122.835 175.506 123.379 172.806C124.082 169.306 124.865 165.396 125.681 161.32C129.262 143.411 133.46 122.255 134.114 118.247C134.261 117.283 134.487 116.332 134.792 115.405C135.169 114.231 135.781 113.145 136.591 112.214C136.761 112.028 136.94 111.845 137.131 111.666C137.321 111.488 137.427 111.406 137.581 111.281C140.423 109.015 145.458 108.033 154.576 108.167C170.297 108.414 179.192 105.353 183.642 110.294C183.68 110.338 183.715 110.384 183.747 110.432Z" fill="white"/>
</mask>
<g mask="url(#mask4_10_5958)">
<path opacity="0.3" d="M183.512 112.003C181.108 127.89 174.706 143.48 166.281 154.686C165.559 155.65 164.805 156.585 164.02 157.491C155.786 167.069 144.439 173.756 131.946 177.625C135.125 164 143.464 128.121 144.499 121.865C145.177 117.805 146.383 115.775 148.218 114.805C149.875 113.919 152.039 113.867 154.779 113.879C159.002 113.875 173.711 111.577 183.512 112.003Z" fill="black" fill-opacity="0.7"/>
</g>
<path d="M183.747 110.432C183.674 110.956 183.601 111.475 183.52 111.999C181.108 127.89 174.706 143.48 166.281 154.686C165.559 155.65 164.805 156.585 164.02 157.491C155.786 167.069 144.439 173.756 131.946 177.625C129.364 178.437 126.738 179.114 124.07 179.655C123.355 179.804 122.638 179.939 121.918 180.061C122.344 177.958 122.835 175.506 123.379 172.806C124.082 169.306 124.865 165.396 125.681 161.32C129.262 143.411 133.46 122.255 134.114 118.247C134.261 117.283 134.487 116.332 134.792 115.405C135.169 114.231 135.781 113.145 136.591 112.214C136.761 112.028 136.94 111.845 137.131 111.666C137.321 111.488 137.427 111.406 137.581 111.281C140.423 109.015 145.458 108.033 154.576 108.167C170.297 108.414 179.192 105.353 183.642 110.294C183.68 110.338 183.715 110.384 183.747 110.432Z" stroke="#263238" stroke-linecap="round" stroke-linejoin="round"/>
<path d="M176.561 112.024C178.043 111.963 179.529 111.93 181.027 111.942" stroke="#263238" stroke-linecap="round" stroke-linejoin="round"/>
<path d="M173.768 112.178L175.156 112.093" stroke="#263238" stroke-linecap="round" stroke-linejoin="round"/>
<path d="M137.281 154.686C139.453 145.555 141.674 136.416 143.371 127.196C143.992 123.834 144.15 119.847 146.099 116.912C148.417 113.416 152.595 113.948 156.249 113.786C161.527 113.55 166.805 112.714 172.083 112.3" stroke="#263238" stroke-linecap="round" stroke-linejoin="round"/>
<path d="M136.453 158.206C136.599 157.573 136.745 156.943 136.895 156.31" stroke="#263238" stroke-linecap="round" stroke-linejoin="round"/>
<path d="M131.95 177.605C133.146 172.478 134.337 167.351 135.523 162.221" stroke="#263238" stroke-linecap="round" stroke-linejoin="round"/>
</g>
<defs>
<clipPath id="clip0_10_5958">
<rect width="203" height="203" fill="white"/>
</clipPath>
</defs>
</svg>
